<svg width="55" height="55" viewBox="0 0 55 55" fill="none" xmlns="http://www.w3.org/2000/svg">
<rect width="55" height="55" rx="10.7714" fill="url(#paint0_linear_10283_3088)"/>
<rect x="12" y="12.8447" width="31" height="32" rx="2.11326" fill="#FFFCF6" stroke="#101828" stroke-width="0.293355"/>
<rect x="12" y="12.8447" width="31" height="22" rx="2.11326" stroke="#101828" stroke-width="0.293355"/>
<rect x="12" y="12.8447" width="31" height="24" rx="2.11326" stroke="#101828" stroke-width="0.293355"/>
<rect x="12" y="13.001" width="31" height="26" rx="2.11326" stroke="#101828" stroke-width="0.293355"/>
<rect x="12" y="12.8447" width="31" height="28" rx="2.11326" stroke="#101828" stroke-width="0.293355"/>
<rect x="12" y="12.8447" width="31" height="30" rx="2.11326" stroke="#101828" stroke-width="0.293355"/>
<circle cx="36.099" cy="17.5511" r="2.32459" fill="#101828"/>
<rect x="34.9023" y="10.1543" width="2.53591" height="8.45304" rx="1.26796" fill="#101828"/>
<rect x="35.3242" y="10.5771" width="1.69061" height="8.03039" rx="0.845304" fill="#D3D8E0"/>
<circle cx="18.6332" cy="17.5511" r="2.32459" fill="#101828"/>
<rect x="17.4355" y="10.1543" width="2.53591" height="8.45304" rx="1.26796" fill="#101828"/>
<rect x="17.8574" y="10.5771" width="1.69061" height="8.03039" rx="0.845304" fill="#D3D8E0"/>
<path d="M20.4066 25.7541C21.2482 25.421 21.8531 24.9169 22.2213 24.2419C22.5895 23.5668 22.7823 22.7296 22.7999 21.7302H25.3904V31.001H24.0886V22.9269L24.3121 22.0853H23.9571C23.8782 23.3126 23.6152 24.3295 23.1681 25.1361C22.7297 25.9426 21.9495 26.5256 20.8274 26.885L20.4066 25.7541ZM34.555 27.937V29.0548H33.3847V31.001H32.096V29.0548H27.191V26.7272C28.3044 26.324 29.2249 25.6928 29.9525 24.8336C30.6889 23.9657 31.1185 22.9313 31.2412 21.7302H32.5299C32.2056 24.6145 30.5443 26.6396 27.5461 27.8055V28.1606L28.4403 27.937H32.096V24.8599H33.3847V27.937H34.555Z" fill="#101828"/>
<path d="M34 36.8447H39V39.9994C39 40.4663 38.6215 40.8447 38.1547 40.8447H34.8453C34.3785 40.8447 34 40.4663 34 39.9994L34 36.8447Z" fill="#101828" fill-opacity="0.22"/>
<path d="M33 36.8447H38V38.9994C38 39.4663 37.6215 39.8447 37.1547 39.8447H33.8453C33.3785 39.8447 33 39.4663 33 38.9994V36.8447Z" fill="#FECC2F" stroke="#101828" stroke-width="0.293355"/>
<path d="M18 39.001H23V42.1557C23 42.6225 22.6215 43.001 22.1547 43.001H18.8453C18.3785 43.001 18 42.6225 18 42.1557L18 39.001Z" fill="#101828" fill-opacity="0.22"/>
<path d="M17 39.001H22V41.1557C22 41.6225 21.6215 42.001 21.1547 42.001H17.8453C17.3785 42.001 17 41.6225 17 41.1557V39.001Z" fill="#3C9E86" stroke="#101828" stroke-width="0.293355"/>
<defs>
<linearGradient id="paint0_linear_10283_3088" x1="30.5052" y1="-23.4418" x2="66.3267" y2="32.1954" gradientUnits="userSpaceOnUse">
<stop offset="0.433904" stop-color="#FFEAB4"/>
<stop offset="0.827555" stop-color="#FFCF11"/>
</linearGradient>
</defs>
</svg>
