<svg width="90" height="90" viewBox="0 0 90 90" fill="none" xmlns="http://www.w3.org/2000/svg">
<path d="M66.8254 74.9291C58.6496 81.6568 46.1957 80.2369 46.1957 80.2369C46.1957 80.2369 46.9972 67.9092 55.173 61.1815C63.3488 54.4539 75.8027 55.8738 75.8027 55.8738C75.8027 55.8738 75.0011 68.2015 66.8254 74.9291Z" fill="#137159" stroke="#101828" stroke-width="0.9"/>
<path d="M46.7372 80.1194L60.1058 68.4455" stroke="#101828" stroke-width="0.9"/>
<mask id="mask0_17403_3248" style="mask-type:alpha" maskUnits="userSpaceOnUse" x="45" y="55" width="32" height="26">
<path d="M66.8254 74.9213C58.6496 81.649 46.1957 80.2291 46.1957 80.2291C46.1957 80.2291 46.9972 67.9014 55.173 61.1737C63.3488 54.446 75.8027 55.866 75.8027 55.866C75.8027 55.866 75.0011 68.1937 66.8254 74.9213Z" fill="#137159" stroke="black" stroke-width="0.9"/>
</mask>
<g mask="url(#mask0_17403_3248)">
<path d="M66.8408 43.8623V69.9043H35.6084V43.8623H66.8408Z" fill="#101828" stroke="#101828" stroke-width="0.9"/>
</g>
<path d="M47.0938 13.6523C49.146 13.7774 50.9718 14.2066 52.5713 14.9404C54.5108 15.8251 56.0201 17.0553 57.0977 18.6318C58.1751 20.2084 58.7306 22.0348 58.7646 24.1104H51.7041C51.568 22.7382 50.984 21.672 49.9521 20.9121C49.1969 20.3561 48.2437 20.0047 47.0938 19.8555V28.3311L48.7949 28.7383C50.3147 29.0785 51.7102 29.5325 52.9805 30.0996C54.2506 30.6667 55.3503 31.3645 56.2803 32.1924C57.2103 33.0204 57.931 33.9953 58.4414 35.1182C58.9632 36.241 59.2299 37.5287 59.2412 38.9805C59.2298 41.1127 58.6849 42.9612 57.6074 44.5264C56.5413 46.0802 54.9992 47.2884 52.9805 48.1504C51.3063 48.8598 49.3437 49.2718 47.0938 49.3896V53.2881H44.3027V49.3867C42.0744 49.2644 40.0949 48.8482 38.3652 48.1338C36.2898 47.2718 34.6682 45.9955 33.5 44.3057C32.3431 42.6043 31.7364 40.4998 31.6797 37.9932H38.8076C38.887 39.1614 39.2217 40.1373 39.8115 40.9199C40.4127 41.6912 41.2128 42.2749 42.2109 42.6719C42.8551 42.9179 43.5524 43.0838 44.3027 43.1729V34.21L42.0918 33.6553C39.1542 32.9407 36.8341 31.8236 35.1328 30.3037C33.4315 28.7838 32.5863 26.7358 32.5977 24.1611C32.5864 22.0517 33.1481 20.2083 34.2822 18.6318C35.4278 17.0554 36.999 15.8251 38.9951 14.9404C40.5905 14.2334 42.3597 13.809 44.3027 13.667V9.73438H47.0938V13.6523ZM47.0938 43.1543C47.7455 43.0663 48.3412 42.9189 48.8799 42.7061C49.8097 42.3432 50.5297 41.8386 51.04 41.1924C51.5504 40.5459 51.8057 39.8022 51.8057 38.9629C51.8056 38.1804 51.5734 37.5223 51.1084 36.9893C50.6547 36.4563 49.9851 36.0031 49.1006 35.6289C48.5195 35.3799 47.8506 35.1457 47.0938 34.9268V43.1543ZM44.3027 19.8682C43.7092 19.9515 43.1761 20.0883 42.7041 20.2822C41.8763 20.6111 41.2412 21.0706 40.7988 21.6602C40.3679 22.2499 40.1524 22.9195 40.1523 23.668C40.1297 24.2918 40.2594 24.8367 40.543 25.3018C40.8379 25.7668 41.2406 26.1695 41.751 26.5098C42.2613 26.8387 42.8514 27.1274 43.5205 27.377C43.7744 27.4673 44.0358 27.5503 44.3027 27.6309V19.8682Z" fill="#101828"/>
<path d="M16.4961 31.4844L19.0928 29.6928L34.1553 51.5248L31.5585 53.3163L16.4961 31.4844Z" fill="#FEE29E" stroke="#101828" stroke-width="0.9"/>
<path d="M74.0156 32.0547L71.4457 30.2816L56.8237 51.4753L59.3936 53.2483L74.0156 32.0547Z" fill="#FEE29E" stroke="#101828" stroke-width="0.9"/>
<rect x="25.625" y="44.5703" width="39.9248" height="19.9624" fill="#FEE29E" stroke="#101828" stroke-width="0.9"/>
<rect x="45.5859" y="44.5703" width="19.9624" height="19.9624" fill="#FFCA00"/>
<rect x="25.625" y="44.5703" width="39.9248" height="19.9624" stroke="#101828" stroke-width="0.9"/>
<path d="M26.4598 74.9213C34.6356 81.649 47.0895 80.2291 47.0895 80.2291C47.0895 80.2291 46.2879 67.9014 38.1121 61.1737C29.9364 54.446 17.4824 55.866 17.4824 55.866C17.4824 55.866 18.284 68.1937 26.4598 74.9213Z" fill="#3C9E86" stroke="#101828" stroke-width="0.9"/>
<path d="M46.5479 80.1116L33.1794 68.4377" stroke="#101828" stroke-width="0.9"/>
</svg>
