<svg width="44" height="43" viewBox="0 0 44 43" fill="none" xmlns="http://www.w3.org/2000/svg">
<g filter="url(#filter0_f_10723_2747)">
<circle cx="23.5744" cy="19.6437" r="7.21109" fill="#FECC2F"/>
</g>
<path d="M20.0293 23.1572H25.8818C28.7328 23.1576 31.0437 25.4684 31.0439 28.3193V31.0732H28.9795V28.3193C28.9793 26.6089 27.5922 25.222 25.8818 25.2217H20.0293V31.0732H17.9648V25.2217H12.1133C10.4028 25.2219 9.01583 26.6088 9.01562 28.3193V31.0732H6.95117V28.3193C6.95138 25.4683 9.26223 23.1574 12.1133 23.1572H17.9648V15.9287H20.0293V23.1572Z" fill="white"/>
<path d="M20.0293 23.1572H19.7793V23.4072H20.0293V23.1572ZM25.8818 23.1572L25.8819 22.9072H25.8818V23.1572ZM31.0439 28.3193H31.2939V28.3193L31.0439 28.3193ZM31.0439 31.0732V31.3232H31.2939V31.0732H31.0439ZM28.9795 31.0732H28.7295V31.3232H28.9795V31.0732ZM28.9795 28.3193H29.2295V28.3193L28.9795 28.3193ZM25.8818 25.2217L25.8819 24.9717H25.8818V25.2217ZM20.0293 25.2217V24.9717H19.7793V25.2217H20.0293ZM20.0293 31.0732V31.3232H20.2793V31.0732H20.0293ZM17.9648 31.0732H17.7148V31.3232H17.9648V31.0732ZM17.9648 25.2217H18.2148V24.9717H17.9648V25.2217ZM12.1133 25.2217V24.9717H12.1133L12.1133 25.2217ZM9.01562 28.3193L8.76562 28.3193V28.3193H9.01562ZM9.01562 31.0732V31.3232H9.26562V31.0732H9.01562ZM6.95117 31.0732H6.70117V31.3232H6.95117V31.0732ZM6.95117 28.3193L6.70117 28.3193V28.3193H6.95117ZM12.1133 23.1572V22.9072H12.1133L12.1133 23.1572ZM17.9648 23.1572V23.4072H18.2148V23.1572H17.9648ZM17.9648 15.9287V15.6787H17.7148V15.9287H17.9648ZM20.0293 15.9287H20.2793V15.6787H20.0293V15.9287ZM20.0293 23.1572V23.4072H25.8818V23.1572V22.9072H20.0293V23.1572ZM25.8818 23.1572L25.8818 23.4072C28.5947 23.4076 30.7937 25.6065 30.7939 28.3194L31.0439 28.3193L31.2939 28.3193C31.2937 25.3303 28.8708 22.9076 25.8819 22.9072L25.8818 23.1572ZM31.0439 28.3193H30.7939V31.0732H31.0439H31.2939V28.3193H31.0439ZM31.0439 31.0732V30.8232H28.9795V31.0732V31.3232H31.0439V31.0732ZM28.9795 31.0732H29.2295V28.3193H28.9795H28.7295V31.0732H28.9795ZM28.9795 28.3193L29.2295 28.3193C29.2293 26.4708 27.7303 24.9721 25.8819 24.9717L25.8818 25.2217L25.8818 25.4717C27.4542 25.472 28.7293 26.747 28.7295 28.3194L28.9795 28.3193ZM25.8818 25.2217V24.9717H20.0293V25.2217V25.4717H25.8818V25.2217ZM20.0293 25.2217H19.7793V31.0732H20.0293H20.2793V25.2217H20.0293ZM20.0293 31.0732V30.8232H17.9648V31.0732V31.3232H20.0293V31.0732ZM17.9648 31.0732H18.2148V25.2217H17.9648H17.7148V31.0732H17.9648ZM17.9648 25.2217V24.9717H12.1133V25.2217V25.4717H17.9648V25.2217ZM12.1133 25.2217L12.1133 24.9717C10.2647 24.9719 8.76585 26.4708 8.76562 28.3193L9.01562 28.3193L9.26562 28.3194C9.26582 26.7469 10.5409 25.4719 12.1133 25.4717L12.1133 25.2217ZM9.01562 28.3193H8.76562V31.0732H9.01562H9.26562V28.3193H9.01562ZM9.01562 31.0732V30.8232H6.95117V31.0732V31.3232H9.01562V31.0732ZM6.95117 31.0732H7.20117V28.3193H6.95117H6.70117V31.0732H6.95117ZM6.95117 28.3193L7.20117 28.3194C7.20137 25.6064 9.40031 23.4074 12.1133 23.4072L12.1133 23.1572L12.1133 22.9072C9.12416 22.9074 6.70139 25.3302 6.70117 28.3193L6.95117 28.3193ZM12.1133 23.1572V23.4072H17.9648V23.1572V22.9072H12.1133V23.1572ZM17.9648 23.1572H18.2148V15.9287H17.9648H17.7148V23.1572H17.9648ZM17.9648 15.9287V16.1787H20.0293V15.9287V15.6787H17.9648V15.9287ZM20.0293 15.9287H19.7793V23.1572H20.0293H20.2793V15.9287H20.0293Z" fill="#101828"/>
<rect x="15.0117" y="30.3877" width="7.97069" height="6.37655" rx="1.37676" fill="#FECC2F" stroke="#101828" stroke-width="0.5"/>
<rect x="15.0117" y="10.4814" width="7.97069" height="6.37655" rx="1.37676" fill="#FEE29E" stroke="#101828" stroke-width="0.5"/>
<path d="M25.4805 9.62207L25.4571 10.6194C25.4113 12.5726 27.0066 14.1679 28.9597 14.1221L29.9571 14.0987L28.9597 14.0753C27.0066 14.0294 25.4113 15.6248 25.4571 17.5779L25.4805 18.5753L25.5039 17.5779C25.5497 15.6248 23.9544 14.0294 22.0013 14.0753L21.0039 14.0987L22.0013 14.1221C23.9544 14.1679 25.5497 12.5726 25.5039 10.6194L25.4805 9.62207Z" fill="white" stroke="#101828" stroke-width="0.5"/>
<path opacity="0.15" fill-rule="evenodd" clip-rule="evenodd" d="M21.654 32.9245C21.654 34.4453 20.4212 35.6781 18.9005 35.6781H15.5431C15.2496 35.6781 15.0117 35.916 15.0117 36.2094C15.0117 36.5029 15.2496 36.7408 15.5431 36.7408H21.6057C22.366 36.7408 22.9824 36.1244 22.9824 35.3641V31.0285C22.9824 30.6616 22.685 30.3643 22.3182 30.3643C21.9513 30.3643 21.654 30.6616 21.654 31.0285V32.9245Z" fill="#101828"/>
<path opacity="0.15" fill-rule="evenodd" clip-rule="evenodd" d="M21.654 12.9245C21.654 14.4453 20.4212 15.6781 18.9005 15.6781H15.5431C15.2496 15.6781 15.0117 15.916 15.0117 16.2094C15.0117 16.5029 15.2496 16.7408 15.5431 16.7408H21.6057C22.366 16.7408 22.9824 16.1244 22.9824 15.3641V11.0285C22.9824 10.6616 22.685 10.3643 22.3182 10.3643C21.9513 10.3643 21.654 10.6616 21.654 11.0285V12.9245Z" fill="#101828"/>
<rect x="3.85547" y="30.3877" width="7.97069" height="6.37655" rx="1.37676" fill="#FECC2F" stroke="#101828" stroke-width="0.5"/>
<rect x="26.1758" y="30.3877" width="7.97069" height="6.37655" rx="1.37676" fill="#FECC2F" stroke="#101828" stroke-width="0.5"/>
<path opacity="0.15" fill-rule="evenodd" clip-rule="evenodd" d="M32.818 32.9245C32.818 34.4453 31.5852 35.6781 30.0645 35.6781H26.7072C26.4137 35.6781 26.1758 35.916 26.1758 36.2094C26.1758 36.5029 26.4137 36.7408 26.7072 36.7408H32.7697C33.5301 36.7408 34.1465 36.1244 34.1465 35.3641V31.0285C34.1465 30.6616 33.8491 30.3643 33.4822 30.3643C33.1154 30.3643 32.818 30.6616 32.818 31.0285V32.9245Z" fill="#101828"/>
<path opacity="0.15" fill-rule="evenodd" clip-rule="evenodd" d="M10.4977 32.9245C10.4977 34.4453 9.26492 35.6781 7.7442 35.6781H4.38685C4.09338 35.6781 3.85547 35.916 3.85547 36.2094C3.85547 36.5029 4.09338 36.7408 4.38685 36.7408H10.4494C11.2098 36.7408 11.8262 36.1244 11.8262 35.3641V31.0285C11.8262 30.6616 11.5288 30.3643 11.1619 30.3643C10.7951 30.3643 10.4977 30.6616 10.4977 31.0285V32.9245Z" fill="#101828"/>
<defs>
<filter id="filter0_f_10723_2747" x="3.93037" y="-0.000290871" width="39.2877" height="39.2877" filterUnits="userSpaceOnUse" color-interpolation-filters="sRGB">
<feFlood flood-opacity="0" result="BackgroundImageFix"/>
<feBlend mode="normal" in="SourceGraphic" in2="BackgroundImageFix" result="shape"/>
<feGaussianBlur stdDeviation="6.21645" result="effect1_foregroundBlur_10723_2747"/>
</filter>
</defs>
</svg>
