<svg width="90" height="90" viewBox="0 0 90 90" fill="none" xmlns="http://www.w3.org/2000/svg">
<g clip-path="url(#clip0_17403_3252)">
<path d="M50.0786 85.3522C53.0871 79.2465 54.6575 73.1358 53.6419 65.8356C52.7851 59.6772 49.5596 55.4257 46.5667 50.1698C43.5861 44.9354 41.0191 38.934 41.9162 29.6081L43.6629 29.7759C42.8121 38.6205 45.2183 44.2559 48.0918 49.3021C50.9529 54.3266 54.4625 59.0015 55.3797 65.594C56.4556 73.3282 54.7731 79.7953 51.6529 86.1276L50.0786 85.3522Z" fill="#2DA17D"/>
<path d="M50.0786 85.3522L49.6749 85.1533C49.6221 85.2603 49.6141 85.384 49.6525 85.497C49.6909 85.61 49.7726 85.7031 49.8797 85.7559L50.0786 85.3522ZM53.6419 65.8356L54.0876 65.7736L54.0876 65.7736L53.6419 65.8356ZM46.5667 50.1698L46.1757 50.3925L46.1757 50.3925L46.5667 50.1698ZM41.9162 29.6081L41.9593 29.1602C41.7119 29.1364 41.4921 29.3176 41.4683 29.565L41.9162 29.6081ZM43.6629 29.7759L44.1108 29.819C44.1222 29.7002 44.086 29.5817 44.01 29.4896C43.9341 29.3976 43.8247 29.3394 43.7059 29.328L43.6629 29.7759ZM48.0918 49.3021L47.7007 49.5247L47.7007 49.5247L48.0918 49.3021ZM55.3797 65.594L55.8254 65.532L55.8254 65.532L55.3797 65.594ZM51.6529 86.1276L51.4541 86.5313C51.677 86.6411 51.9467 86.5494 52.0566 86.3265L51.6529 86.1276ZM50.0786 85.3522L50.4822 85.5511C53.5194 79.3873 55.1187 73.1851 54.0876 65.7736L53.6419 65.8356L53.1962 65.8976C54.1963 73.0865 52.6548 79.1058 49.6749 85.1533L50.0786 85.3522ZM53.6419 65.8356L54.0876 65.7736C53.2153 59.5037 49.9164 55.1429 46.9578 49.9471L46.5667 50.1698L46.1757 50.3925C49.2028 55.7086 52.3549 59.8507 53.1962 65.8976L53.6419 65.8356ZM46.5667 50.1698L46.9578 49.9472C44.0047 44.761 41.479 38.8536 42.3641 29.6512L41.9162 29.6081L41.4683 29.565C40.5593 39.0144 43.1676 45.1098 46.1757 50.3925L46.5667 50.1698ZM41.9162 29.6081L41.8732 30.056L43.6198 30.2239L43.6629 29.7759L43.7059 29.328L41.9593 29.1602L41.9162 29.6081ZM43.6629 29.7759L43.2149 29.7328C42.3523 38.7008 44.7998 44.4302 47.7007 49.5247L48.0918 49.3021L48.4828 49.0794C45.6369 44.0815 43.2719 38.5401 44.1108 29.819L43.6629 29.7759ZM48.0918 49.3021L47.7007 49.5247C50.5952 54.6078 54.0322 59.1748 54.9339 65.656L55.3797 65.594L55.8254 65.532C54.8927 58.8282 51.3106 54.0454 48.4828 49.0794L48.0918 49.3021ZM55.3797 65.594L54.9339 65.656C55.9944 73.2788 54.3408 79.6545 51.2492 85.9287L51.6529 86.1276L52.0566 86.3265C55.2054 79.936 56.9168 73.3775 55.8254 65.532L55.3797 65.594ZM51.6529 86.1276L51.8517 85.7239L50.2774 84.9485L50.0786 85.3522L49.8797 85.7559L51.4541 86.5313L51.6529 86.1276Z" fill="#101828"/>
<path fill-rule="evenodd" clip-rule="evenodd" d="M28.258 52.487V52.487ZM28.2486 52.4722C28.2464 52.4684 28.2443 52.4647 28.2422 52.4609C28.2427 52.4619 28.2432 52.4628 28.2438 52.4637L28.2486 52.4722Z" fill="#2DA17D"/>
<path d="M66.7483 49.5844C59.6982 49.861 55.6446 58.3968 54.4991 63.9458L54.871 68.0681L55.2424 69.3903C62.2166 68.309 65.8189 55.7358 66.7483 49.5844Z" fill="#2DA17D"/>
<path d="M54.4991 63.9458C55.6446 58.3968 59.6982 49.861 66.7483 49.5844C65.8189 55.7358 62.2166 68.309 55.2424 69.3903" stroke="#101828" stroke-width="0.9" stroke-linecap="round"/>
<path d="M40.8752 59.011C48.1279 59.5244 53.6561 67.1868 54.3954 72.4048L54.6532 73.654L53.7746 76.1527C46.6646 74.8913 41.3434 64.7831 40.8752 59.011Z" fill="#2DA17D"/>
<path d="M54.3933 72.3198C53.6541 67.1018 48.1256 59.5249 40.8729 59.0115C41.3411 64.7836 46.6623 74.8918 53.7724 76.1531" stroke="#101828" stroke-width="0.9" stroke-linecap="round"/>
<rect x="10.3633" y="81.2422" width="66.5357" height="8.67857" fill="#F9F4F2" stroke="#101828" stroke-width="0.9"/>
<rect x="16.1484" y="11.8125" width="54.9643" height="33.2679" stroke="#101828" stroke-width="0.9"/>
<path d="M44.1938 19.0425C45.3945 20.2148 46.2635 21.486 46.7924 22.7465C47.2016 23.7217 48.0966 24.5495 49.0602 25.2454C49.2766 25.4017 49.4806 25.5724 49.6701 25.7575C51.8624 27.8979 51.2929 31.1406 48.3979 33.0006C45.5027 34.8606 41.378 34.6336 39.1854 32.4932C38.994 32.3064 38.8238 32.1111 38.6744 31.909C38.0149 31.017 37.1777 30.151 36.0568 29.6315C34.6124 28.9621 33.2251 28.0282 32.0272 26.8588C28.145 23.0687 27.7211 18.2462 31.0808 16.0878C34.4405 13.9296 40.3117 15.2526 44.1938 19.0425Z" fill="#FECC2F"/>
<path d="M44.1938 19.0425L44.5724 18.7993L44.5724 18.7993L44.1938 19.0425ZM49.6701 25.7575L50.0488 25.5143L50.0487 25.5143L49.6701 25.7575ZM48.3979 33.0006L48.7199 33.315L48.72 33.315L48.3979 33.0006ZM39.1854 32.4932L38.8068 32.7365L38.8068 32.7365L39.1854 32.4932ZM32.0272 26.8588L31.6486 27.102L31.6486 27.102L32.0272 26.8588ZM31.0808 16.0878L30.7588 15.7734L30.7588 15.7734L31.0808 16.0878ZM38.6744 31.909L38.2496 32.0994L38.6744 31.909ZM46.7924 22.7465L46.3219 22.8571L46.7924 22.7465ZM44.1938 19.0425L43.8151 19.2858C44.9765 20.4197 45.8138 21.6461 46.3219 22.8571L46.7924 22.7465L47.2629 22.6359C46.7133 21.3259 45.8124 20.01 44.5724 18.7993L44.1938 19.0425ZM49.0602 25.2454L48.7366 25.5348C48.9334 25.6769 49.1189 25.8322 49.2915 26.0007L49.6701 25.7575L50.0487 25.5143C49.8422 25.3127 49.6198 25.1265 49.3838 24.956L49.0602 25.2454ZM49.6701 25.7575L49.2915 26.0007C51.2718 27.9342 50.8043 30.9333 48.0759 32.6863L48.3979 33.0006L48.72 33.315C51.7815 31.3479 52.4529 27.8616 50.0488 25.5143L49.6701 25.7575ZM48.3979 33.0006L48.0759 32.6863C45.3472 34.4393 41.5446 34.1834 39.564 32.25L39.1854 32.4932L38.8068 32.7365C41.2114 35.0837 45.6582 35.282 48.7199 33.315L48.3979 33.0006ZM39.1854 32.4932L39.564 32.25C39.3898 32.0799 39.2351 31.9023 39.0992 31.7186L38.6744 31.909L38.2496 32.0994C38.4126 32.3198 38.5982 32.5328 38.8068 32.7365L39.1854 32.4932ZM36.0568 29.6315L36.2909 29.2899C34.9032 28.6467 33.5645 27.7466 32.4058 26.6155L32.0272 26.8588L31.6486 27.102C32.8857 28.3097 34.3216 29.2774 35.8228 29.9731L36.0568 29.6315ZM32.0272 26.8588L32.4058 26.6155C30.5262 24.7806 29.4972 22.7079 29.3341 20.8518C29.1709 18.9956 29.8719 17.3856 31.4028 16.4022L31.0808 16.0878L30.7588 15.7734C28.9299 16.9484 28.163 18.8288 28.3425 20.871C28.522 22.9133 29.646 25.1469 31.6486 27.102L32.0272 26.8588ZM31.0808 16.0878L31.4028 16.4022C32.9336 15.4188 35.0674 15.2076 37.3273 15.7169C39.5869 16.226 41.9356 17.4509 43.8151 19.2858L44.1938 19.0425L44.5724 18.7993C42.5698 16.8443 40.0419 15.5127 37.5554 14.9524C35.0693 14.3922 32.5877 14.5986 30.7588 15.7734L31.0808 16.0878ZM38.6744 31.909L39.0992 31.7186C38.4225 30.8033 37.5282 29.8634 36.2909 29.2899L36.0568 29.6315L35.8228 29.9731C36.8272 30.4386 37.6074 31.2307 38.2496 32.0994L38.6744 31.909ZM46.7924 22.7465L46.3219 22.8571C46.7736 23.9335 47.7479 24.8207 48.7366 25.5348L49.0602 25.2454L49.3838 24.956C48.4453 24.2782 47.6296 23.5099 47.2629 22.6359L46.7924 22.7465Z" fill="#101828"/>
<ellipse opacity="0.2" cx="9.82371" cy="7.23046" rx="9.82371" ry="7.23046" transform="matrix(0.715547 0.698565 -0.84134 0.540506 37.1602 12.1797)" fill="#101828"/>
<path d="M42.1422 19.0425C40.942 20.2143 40.073 21.4848 39.544 22.7446C39.1344 23.7201 38.2386 24.5479 37.2741 25.2436C37.0571 25.4001 36.8526 25.5711 36.6626 25.7566C34.4702 27.8971 35.0404 31.1402 37.9357 33.0002C40.8309 34.86 44.9549 34.6327 47.1474 32.4923C47.3382 32.306 47.508 32.1112 47.6571 31.9098C48.317 31.018 49.1545 30.1522 50.2756 29.633C51.7213 28.9635 53.1099 28.0291 54.3088 26.8588C58.1909 23.0687 58.6148 18.2462 55.2552 16.0878C51.8955 13.9294 46.0244 15.2525 42.1422 19.0425Z" fill="#FECC2F"/>
<path d="M42.1422 19.0425L41.7636 18.7993L41.7636 18.7993L42.1422 19.0425ZM36.6626 25.7566L36.284 25.5134L36.284 25.5134L36.6626 25.7566ZM37.9357 33.0002L37.6137 33.3146L37.6137 33.3146L37.9357 33.0002ZM47.1474 32.4923L47.526 32.7355L47.5259 32.7356L47.1474 32.4923ZM54.3088 26.8588L54.6874 27.102L54.6873 27.102L54.3088 26.8588ZM55.2552 16.0878L55.5772 15.7734L55.5772 15.7734L55.2552 16.0878ZM42.1422 19.0425L42.5208 19.2858C41.3599 20.4192 40.5227 21.6449 40.0144 22.8553L39.544 22.7446L39.0735 22.6339C39.6234 21.3246 40.5241 20.0094 41.7636 18.7993L42.1422 19.0425ZM37.2741 25.2436L37.5974 25.5332C37.4002 25.6755 37.2142 25.831 37.0412 25.9998L36.6626 25.7566L36.284 25.5134C36.491 25.3113 36.714 25.1248 36.9507 24.954L37.2741 25.2436ZM36.6626 25.7566L37.0413 25.9998C35.0608 27.9334 35.5289 30.9328 38.2577 32.6859L37.9357 33.0002L37.6137 33.3146C34.5518 31.3476 33.8796 27.8608 36.284 25.5134L36.6626 25.7566ZM37.9357 33.0002L38.2576 32.6859C40.9863 34.4386 44.7882 34.1825 46.7688 32.2491L47.1474 32.4923L47.5259 32.7356C45.1215 35.0828 40.6755 35.2814 37.6137 33.3146L37.9357 33.0002ZM47.1474 32.4923L46.7687 32.2491C46.9425 32.0795 47.0969 31.9024 47.2324 31.7193L47.6571 31.9098L48.0818 32.1003C47.9192 32.3201 47.734 32.5324 47.526 32.7355L47.1474 32.4923ZM50.2756 29.633L50.0416 29.2914C51.4306 28.6481 52.7706 27.7475 53.9302 26.6155L54.3088 26.8588L54.6873 27.102C53.4493 28.3106 52.0119 29.2789 50.5095 29.9747L50.2756 29.633ZM54.3088 26.8588L53.9302 26.6155C55.8097 24.7806 56.8388 22.7079 57.0019 20.8519C57.165 18.9956 56.464 17.3856 54.9332 16.4022L55.2552 16.0878L55.5772 15.7734C57.406 16.9484 58.1729 18.8289 57.9934 20.871C57.8139 22.9133 56.69 25.1469 54.6874 27.102L54.3088 26.8588ZM55.2552 16.0878L54.9332 16.4022C53.4023 15.4187 51.2685 15.2075 49.0087 15.7167C46.7491 16.2259 44.4003 17.4508 42.5208 19.2858L42.1422 19.0425L41.7636 18.7993C43.7662 16.8442 46.2941 15.5126 48.7805 14.9523C51.2667 14.3921 53.7483 14.5985 55.5772 15.7734L55.2552 16.0878ZM47.6571 31.9098L47.2324 31.7193C47.9095 30.8042 48.8041 29.8645 50.0416 29.2914L50.2756 29.633L50.5095 29.9747C49.5049 30.4399 48.7245 31.2318 48.0818 32.1003L47.6571 31.9098ZM39.544 22.7446L40.0144 22.8553C39.5623 23.932 38.5871 24.8193 37.5974 25.5332L37.2741 25.2436L36.9507 24.954C37.89 24.2765 38.7064 23.5081 39.0735 22.6339L39.544 22.7446Z" fill="#101828"/>
<ellipse opacity="0.2" cx="9.82371" cy="7.23046" rx="9.82371" ry="7.23046" transform="matrix(-0.715547 0.698565 0.84134 0.540506 49.1719 12.1797)" fill="#101828"/>
<path d="M30.6197 17.1247C32.8803 17.3756 34.9338 17.8831 36.6015 18.5473C37.2144 18.7915 37.8926 18.8654 38.5693 18.8126C39.1747 18.7654 39.8079 18.7739 40.4533 18.8455C43.8996 19.2281 46.3888 21.2571 46.0139 23.3778C45.6386 25.4986 42.5408 26.9084 39.0942 26.526C38.4468 26.4541 37.8334 26.3235 37.2663 26.1452C36.6338 25.9463 35.9558 25.8693 35.2813 25.9705C33.4488 26.2454 31.3008 26.2866 29.0428 26.0361C22.9406 25.3588 18.347 22.8154 18.7818 20.3546C19.2173 17.8936 24.5171 16.4475 30.6197 17.1247Z" fill="#FECC2F"/>
<path d="M30.6197 17.1247L30.6981 16.6816L30.6981 16.6816L30.6197 17.1247ZM40.4533 18.8455L40.5317 18.4024L40.5317 18.4024L40.4533 18.8455ZM46.0139 23.3778L46.4611 23.4274L46.4611 23.4273L46.0139 23.3778ZM39.0942 26.526L39.0158 26.9691L39.0159 26.9691L39.0942 26.526ZM29.0428 26.0361L28.9644 26.4792L28.9644 26.4792L29.0428 26.0361ZM18.7818 20.3546L18.3346 20.305L18.3345 20.3051L18.7818 20.3546ZM30.6197 17.1247L30.5413 17.5678C32.7672 17.8148 34.7817 18.3139 36.4088 18.962L36.6015 18.5473L36.7941 18.1326C35.086 17.4522 32.9934 16.9363 30.6981 16.6816L30.6197 17.1247ZM38.5693 18.8126L38.5772 19.2571C39.1533 19.2122 39.7576 19.2201 40.3749 19.2886L40.4533 18.8455L40.5317 18.4024C39.8582 18.3276 39.1961 18.3187 38.5614 18.3681L38.5693 18.8126ZM40.4533 18.8455L40.3749 19.2886C42.0281 19.4721 43.4303 20.0491 44.3639 20.8101C45.3035 21.5759 45.7171 22.4771 45.5666 23.3282L46.0139 23.3778L46.4611 23.4273C46.6856 22.1578 46.042 20.9841 44.9691 20.1096C43.8903 19.2303 42.3247 18.6014 40.5317 18.4024L40.4533 18.8455ZM46.0139 23.3778L45.5666 23.3281C45.416 24.1793 44.7055 24.956 43.5363 25.488C42.3745 26.0166 40.826 26.2663 39.1726 26.0829L39.0942 26.526L39.0159 26.9691C40.809 27.1681 42.5327 26.904 43.8752 26.2932C45.2104 25.6857 46.2365 24.697 46.4611 23.4274L46.0139 23.3778ZM39.0942 26.526L39.1727 26.0829C38.5536 26.0142 37.9683 25.8893 37.4287 25.7197L37.2663 26.1452L37.1039 26.5706C37.6984 26.7576 38.34 26.8941 39.0158 26.9691L39.0942 26.526ZM35.2813 25.9705L35.2401 25.5298C33.4521 25.7981 31.3445 25.8397 29.1212 25.5929L29.0428 26.0361L28.9644 26.4792C31.2571 26.7336 33.4455 26.6928 35.3224 26.4112L35.2813 25.9705ZM29.0428 26.0361L29.1212 25.5929C26.1133 25.2591 23.498 24.4668 21.7021 23.4724C20.8031 22.9747 20.1297 22.4374 19.7101 21.9003C19.2916 21.3646 19.1483 20.8612 19.2291 20.4041L18.7818 20.3546L18.3345 20.3051C18.1979 21.0785 18.4657 21.8158 18.9769 22.4702C19.4871 23.1232 20.2619 23.7255 21.2197 24.2559C23.1375 25.3177 25.8702 26.1357 28.9644 26.4792L29.0428 26.0361ZM18.7818 20.3546L19.2291 20.4042C19.3099 19.9472 19.6224 19.4943 20.2107 19.0702C20.8004 18.645 21.6344 18.275 22.6716 17.992C24.7435 17.4266 27.5331 17.234 30.5413 17.5678L30.6197 17.1247L30.6981 16.6816C27.6036 16.3382 24.6921 16.53 22.4796 17.1337C21.3745 17.4352 20.4205 17.8458 19.7034 18.3628C18.9848 18.8808 18.4714 19.5315 18.3346 20.305L18.7818 20.3546ZM37.2663 26.1452L37.4287 25.7197C36.7433 25.5042 35.9954 25.4164 35.2401 25.5298L35.2813 25.9705L35.3224 26.4112C35.9161 26.3221 36.5243 26.3884 37.1039 26.5706L37.2663 26.1452ZM36.6015 18.5473L36.4088 18.962C37.0951 19.2354 37.8441 19.3142 38.5772 19.2571L38.5693 18.8126L38.5614 18.3681C37.9411 18.4165 37.3336 18.3475 36.7941 18.1326L36.6015 18.5473Z" fill="#101828"/>
<path d="M56.102 17.1248C53.8737 17.3721 51.8469 17.8689 50.1923 18.5192C49.6535 18.731 49.0639 18.811 48.4702 18.7897C47.9901 18.7724 47.4952 18.7899 46.9928 18.8456C43.5464 19.2281 41.0563 21.2573 41.4313 23.378C41.8066 25.4988 44.9052 26.9086 48.3519 26.5261C48.9474 26.46 49.5141 26.344 50.0424 26.187C50.6151 26.0168 51.2236 25.9475 51.8319 26.0259C53.5758 26.2506 55.5799 26.2701 57.679 26.0371C63.7815 25.3599 68.376 22.8155 67.9409 20.3546C67.5054 17.8936 62.2047 16.4475 56.102 17.1248Z" fill="#FECC2F"/>
<path d="M56.102 17.1248L56.0236 16.6817L56.0236 16.6817L56.102 17.1248ZM46.9928 18.8456L46.9144 18.4025L46.9144 18.4025L46.9928 18.8456ZM41.4313 23.378L40.984 23.4276L40.984 23.4276L41.4313 23.378ZM48.3519 26.5261L48.4303 26.9692L48.4303 26.9692L48.3519 26.5261ZM57.679 26.0371L57.7574 26.4802L57.7574 26.4802L57.679 26.0371ZM67.9409 20.3546L68.3881 20.305L68.3881 20.305L67.9409 20.3546ZM50.0424 26.187L50.1982 26.6145L50.0424 26.187ZM51.8319 26.0259L51.8004 26.4679L51.8319 26.0259ZM50.1923 18.5192L50.3832 18.9347L50.1923 18.5192ZM48.4702 18.7897L48.4587 18.3441L48.4702 18.7897ZM56.102 17.1248L56.1804 17.5679C53.9864 17.8114 51.9979 18.3 50.3832 18.9347L50.1923 18.5192L50.0015 18.1038C51.6958 17.4378 53.761 16.9328 56.0236 16.6817L56.102 17.1248ZM48.4702 18.7897L48.4818 19.2353C48.0242 19.2188 47.5516 19.2354 47.0712 19.2887L46.9928 18.8456L46.9144 18.4025C47.4387 18.3443 47.956 18.326 48.4587 18.3441L48.4702 18.7897ZM46.9928 18.8456L47.0712 19.2887C45.4179 19.4722 44.0154 20.0492 43.0816 20.8102C42.1418 21.5761 41.7281 22.4773 41.8785 23.3284L41.4313 23.378L40.984 23.4276C40.7595 22.1579 41.4034 20.9842 42.4765 20.1097C43.5555 19.2303 45.1213 18.6015 46.9144 18.4025L46.9928 18.8456ZM41.4313 23.378L41.8785 23.3284C42.0291 24.1795 42.7398 24.9562 43.9092 25.4882C45.0713 26.0168 46.6201 26.2665 48.2735 26.083L48.3519 26.5261L48.4303 26.9692C46.637 27.1682 44.9132 26.9042 43.5704 26.2934C42.2351 25.6859 41.2087 24.6973 40.984 23.4276L41.4313 23.378ZM48.3519 26.5261L48.2735 26.083C48.8428 26.0198 49.3835 25.909 49.8866 25.7595L50.0424 26.187L50.1982 26.6145C49.6446 26.779 49.0521 26.9002 48.4303 26.9692L48.3519 26.5261ZM51.8319 26.0259L51.8633 25.5838C53.567 25.8034 55.5341 25.8233 57.6006 25.594L57.679 26.0371L57.7574 26.4802C55.6257 26.7168 53.5846 26.6979 51.8004 26.4679L51.8319 26.0259ZM57.679 26.0371L57.6006 25.594C60.6087 25.2602 63.2242 24.4677 65.0203 23.473C65.9194 22.9752 66.593 22.4378 67.0126 21.9006C67.4311 21.3647 67.5744 20.8612 67.4936 20.4042L67.9409 20.3546L68.3881 20.305C68.5249 21.0785 68.257 21.8159 67.7458 22.4704C67.2356 23.1235 66.4607 23.726 65.5028 24.2565C63.5848 25.3186 60.8519 26.1368 57.7574 26.4802L57.679 26.0371ZM67.9409 20.3546L67.4936 20.4042C67.4127 19.9472 67.1003 19.4943 66.5119 19.0702C65.9221 18.645 65.0879 18.275 64.0507 17.992C61.9785 17.4267 59.1886 17.2341 56.1804 17.5679L56.102 17.1248L56.0236 16.6817C59.1181 16.3383 62.0299 16.53 64.2426 17.1337C65.3478 17.4352 66.3019 17.8458 67.0191 18.3628C67.7378 18.8808 68.2512 19.5315 68.3881 20.305L67.9409 20.3546ZM50.0424 26.187L49.8866 25.7595C50.5081 25.5748 51.1807 25.4959 51.8633 25.5838L51.8319 26.0259L51.8004 26.4679C51.2666 26.3991 50.7222 26.4588 50.1982 26.6145L50.0424 26.187ZM50.1923 18.5192L50.3832 18.9347C49.7793 19.172 49.127 19.2584 48.4818 19.2353L48.4702 18.7897L48.4587 18.3441C49.0007 18.3635 49.5277 18.29 50.0015 18.1038L50.1923 18.5192Z" fill="#101828"/>
<ellipse cx="43.2986" cy="22.1479" rx="8.23608" ry="5.61667" fill="#E7A200" stroke="#101828" stroke-width="0.9"/>
<path opacity="0.3" fill-rule="evenodd" clip-rule="evenodd" d="M42.0994 20.1787C40.0287 20.1787 38.1365 19.6576 36.6894 18.7972C35.6674 19.7328 35.0625 20.8928 35.0625 22.1492C35.0625 25.2512 38.7499 27.7658 43.2986 27.7658C47.8472 27.7658 51.5347 25.2512 51.5347 22.1492C51.5347 20.4593 50.4403 18.9437 48.7086 17.9141C47.2072 19.2885 44.8058 20.1787 42.0994 20.1787Z" fill="#101828" stroke="#101828" stroke-width="0.9"/>
<path d="M22.154 23.5962C24.3935 22.8024 26.6193 22.3202 28.5969 22.1448C29.296 22.0828 29.9406 21.8534 30.4984 21.5191C31.0233 21.2046 31.6139 20.9256 32.2607 20.6963C35.6543 19.4934 39.301 20.1029 40.4059 22.0574C41.5107 24.012 39.6551 26.5718 36.2614 27.7748C35.6127 28.0048 34.9546 28.168 34.3068 28.2684C33.62 28.3749 32.9739 28.6025 32.4494 28.9742C30.9677 30.0245 29.0336 31.0176 26.7966 31.8106C20.7877 33.9406 14.8769 33.8284 13.5948 31.5603C12.3128 29.2921 16.1449 25.7263 22.154 23.5962Z" fill="#FECC2F"/>
<path d="M22.154 23.5962L21.9326 23.2044L21.9326 23.2044L22.154 23.5962ZM32.2607 20.6963L32.0393 20.3046L32.0393 20.3046L32.2607 20.6963ZM40.4059 22.0574L40.8301 21.907L40.8301 21.907L40.4059 22.0574ZM36.2614 27.7748L36.4828 28.1666L36.4828 28.1666L36.2614 27.7748ZM26.7966 31.8106L27.0181 32.2023L27.0181 32.2023L26.7966 31.8106ZM13.5948 31.5603L13.1706 31.7106L13.1706 31.7107L13.5948 31.5603ZM34.3068 28.2684L34.4414 28.682L34.3068 28.2684ZM32.4494 28.9742L32.775 29.3124L32.4494 28.9742ZM28.5969 22.1448L28.6984 22.5624L28.5969 22.1448ZM22.154 23.5962L22.3754 23.988C24.5817 23.2059 26.7674 22.7336 28.6984 22.5624L28.5969 22.1448L28.4955 21.7273C26.4712 21.9068 24.2052 22.3989 21.9326 23.2044L22.154 23.5962ZM30.4984 21.5191L30.7979 21.8743C31.2983 21.5744 31.8626 21.3077 32.4821 21.0881L32.2607 20.6963L32.0393 20.3046C31.3652 20.5435 30.7484 20.8347 30.1988 21.164L30.4984 21.5191ZM32.2607 20.6963L32.4821 21.0881C34.1123 20.5102 35.7836 20.3756 37.155 20.6048C38.5345 20.8353 39.5335 21.4147 39.9818 22.2078L40.4059 22.0574L40.8301 21.907C40.1734 20.7455 38.7966 20.0429 37.2281 19.7808C35.6516 19.5174 33.8027 19.6795 32.0393 20.3046L32.2607 20.6963ZM40.4059 22.0574L39.9818 22.2077C40.43 23.0008 40.3102 23.9768 39.6083 24.9451C38.9105 25.9078 37.6702 26.8052 36.04 27.3831L36.2614 27.7748L36.4828 28.1666C38.2463 27.5415 39.6307 26.5575 40.4329 25.4508C41.231 24.3499 41.4866 23.0686 40.8301 21.907L40.4059 22.0574ZM36.2614 27.7748L36.04 27.3831C35.4186 27.6033 34.7896 27.7592 34.1723 27.8549L34.3068 28.2684L34.4414 28.682C35.1196 28.5768 35.8067 28.4063 36.4828 28.1666L36.2614 27.7748ZM32.4494 28.9742L32.1238 28.6361C30.677 29.6616 28.7789 30.6376 26.5752 31.4188L26.7966 31.8106L27.0181 32.2023C29.2883 31.3975 31.2585 30.3873 32.775 29.3124L32.4494 28.9742ZM26.7966 31.8106L26.5752 31.4188C23.6118 32.4692 20.692 32.9591 18.3786 32.9152C17.2207 32.8932 16.2396 32.738 15.4889 32.4696C14.7401 32.2018 14.2607 31.8377 14.0189 31.4099L13.5948 31.5603L13.1706 31.7107C13.5699 32.417 14.3101 32.9174 15.218 33.242C16.1239 33.566 17.2365 33.7309 18.4676 33.7542C20.9324 33.801 23.9724 33.2819 27.0181 32.2023L26.7966 31.8106ZM13.5948 31.5603L14.0189 31.41C13.7771 30.9822 13.7536 30.4564 14.0002 29.8358C14.2475 29.2137 14.7549 28.5308 15.5057 27.8322C17.0055 26.4367 19.412 25.0384 22.3754 23.988L22.154 23.5962L21.9326 23.2044C18.8869 24.2841 16.3728 25.7338 14.7748 27.2207C13.9766 27.9634 13.3908 28.7304 13.0923 29.4813C12.7933 30.2338 12.7714 31.0043 13.1706 31.7106L13.5948 31.5603ZM34.3068 28.2684L34.1723 27.8549C33.4268 27.9704 32.7115 28.2195 32.1238 28.6361L32.4494 28.9742L32.775 29.3124C33.2362 28.9855 33.8132 28.7793 34.4414 28.682L34.3068 28.2684ZM28.5969 22.1448L28.6984 22.5624C29.4816 22.4929 30.1925 22.237 30.7979 21.8743L30.4984 21.5191L30.1988 21.164C29.6887 21.4697 29.1103 21.6727 28.4955 21.7273L28.5969 22.1448Z" fill="#FECC2F"/>
<path d="M22.1502 23.5945C16.1412 25.7246 12.3089 29.2901 13.5909 31.5583C14.8728 33.8265 20.7834 33.9383 26.7925 31.8083C28.7782 31.1044 30.5261 30.2435 31.9303 29.3246C32.8075 28.7506 33.8754 28.3837 34.9718 28.1421C35.4012 28.0475 35.8321 27.925 36.2591 27.7737C39.6528 26.5707 41.5085 24.0111 40.4039 22.0564C39.2991 20.1017 35.6522 19.4923 32.2585 20.6953C31.8336 20.8459 31.433 21.0178 31.0593 21.2072" stroke="#101828" stroke-width="0.9"/>
<path d="M64.5686 23.5962C62.3296 22.8025 60.1041 22.3206 58.1268 22.1452C57.4276 22.0832 56.783 21.8536 56.2251 21.5194C55.6999 21.2047 55.1091 20.9257 54.4619 20.6963C51.0682 19.4933 47.4215 20.1027 46.3167 22.0574C45.212 24.0121 47.0675 26.5718 50.4613 27.7748C51.11 28.0048 51.7681 28.168 52.4158 28.2684C53.1027 28.3749 53.7488 28.6025 54.2733 28.9742C55.7551 30.0242 57.6895 31.0167 59.9265 31.8097C65.9353 33.9397 71.8456 33.8282 73.1279 31.5603C74.4099 29.2921 70.5778 25.7263 64.5686 23.5962Z" fill="#FECC2F"/>
<path d="M64.5686 23.5962L64.7901 23.2044L64.7901 23.2044L64.5686 23.5962ZM54.4619 20.6963L54.6834 20.3046L54.6834 20.3046L54.4619 20.6963ZM46.3167 22.0574L45.8926 21.907L45.8926 21.907L46.3167 22.0574ZM50.4613 27.7748L50.2399 28.1666L50.2399 28.1666L50.4613 27.7748ZM59.9265 31.8097L59.7051 32.2015L59.7051 32.2015L59.9265 31.8097ZM73.1279 31.5603L73.552 31.7106L73.552 31.7107L73.1279 31.5603ZM52.4158 28.2684L52.2813 28.682L52.4158 28.2684ZM54.2733 28.9742L54.5989 28.636L54.2733 28.9742ZM58.1268 22.1452L58.0253 22.5628L58.1268 22.1452ZM64.5686 23.5962L64.3472 23.988C62.1413 23.206 59.956 22.734 58.0253 22.5628L58.1268 22.1452L58.2282 21.7276C60.2522 21.9072 62.5178 22.399 64.7901 23.2044L64.5686 23.5962ZM56.2251 21.5194L55.9256 21.8745C55.425 21.5746 54.8604 21.3078 54.2405 21.0881L54.4619 20.6963L54.6834 20.3046C55.3577 20.5436 55.9748 20.8348 56.5247 21.1643L56.2251 21.5194ZM54.4619 20.6963L54.2405 21.0881C52.6103 20.5102 50.9389 20.3755 49.5675 20.6047C48.188 20.8352 47.1891 21.4146 46.7409 22.2077L46.3167 22.0574L45.8926 21.907C46.5491 20.7454 47.926 20.0428 49.4944 19.7807C51.071 19.5173 52.9199 19.6795 54.6834 20.3046L54.4619 20.6963ZM46.3167 22.0574L46.7409 22.2077C46.2926 23.0008 46.4124 23.9768 47.1143 24.9451C47.8122 25.9078 49.0524 26.8052 50.6827 27.3831L50.4613 27.7748L50.2399 28.1666C48.4764 27.5415 47.0919 26.5575 46.2897 25.4508C45.4916 24.3499 45.2361 23.0686 45.8926 21.907L46.3167 22.0574ZM50.4613 27.7748L50.6827 27.3831C51.304 27.6033 51.933 27.7592 52.5504 27.8549L52.4158 28.2684L52.2813 28.682C51.6031 28.5768 50.916 28.4063 50.2399 28.1666L50.4613 27.7748ZM54.2733 28.9742L54.5989 28.636C56.0458 29.6613 57.9442 30.6368 60.1479 31.4179L59.9265 31.8097L59.7051 32.2015C57.4349 31.3967 55.4644 30.3871 53.9478 29.3123L54.2733 28.9742ZM59.9265 31.8097L60.1479 31.4179C63.1112 32.4684 66.0309 32.9584 68.3442 32.9147C69.5021 32.8928 70.4831 32.7377 71.2338 32.4693C71.9825 32.2017 72.462 31.8376 72.7038 31.4099L73.1279 31.5603L73.552 31.7107C73.1527 32.417 72.4124 32.9173 71.5046 33.2418C70.5986 33.5656 69.4861 33.7305 68.2551 33.7537C65.7904 33.8003 62.7506 33.281 59.7051 32.2015L59.9265 31.8097ZM73.1279 31.5603L72.7038 31.41C72.9455 30.9822 72.9691 30.4564 72.7224 29.8358C72.4751 29.2137 71.9677 28.5308 71.217 27.8322C69.7172 26.4367 67.3107 25.0384 64.3472 23.988L64.5686 23.5962L64.7901 23.2044C67.8357 24.2841 70.3498 25.7338 71.9478 27.2207C72.746 27.9634 73.3319 28.7304 73.6303 29.4813C73.9294 30.2338 73.9513 31.0043 73.552 31.7106L73.1279 31.5603ZM52.4158 28.2684L52.5504 27.8549C53.2959 27.9704 54.0111 28.2195 54.5989 28.636L54.2733 28.9742L53.9478 29.3123C53.4865 28.9855 52.9095 28.7793 52.2813 28.682L52.4158 28.2684ZM58.1268 22.1452L58.0253 22.5628C57.2419 22.4933 56.5311 22.2373 55.9256 21.8745L56.2251 21.5194L56.5247 21.1643C57.0349 21.47 57.6133 21.6731 58.2282 21.7276L58.1268 22.1452Z" fill="#FECC2F"/>
<path d="M64.5727 23.5945C70.5817 25.7246 74.414 29.2901 73.1321 31.5583C71.8501 33.8265 65.9395 33.9383 59.9304 31.8083C57.9447 31.1044 56.1969 30.2435 54.7927 29.3246C53.9154 28.7506 52.8475 28.3837 51.7512 28.1421C51.3218 28.0475 50.8908 27.925 50.4639 27.7737C47.0701 26.5707 45.2144 24.0111 46.3191 22.0564C47.4238 20.1017 51.0707 19.4923 54.4645 20.6953C54.8893 20.8459 55.2899 21.0178 55.6636 21.2072" stroke="#101828" stroke-width="0.9"/>
<path d="M25.3115 29.4052C26.744 28.0192 28.3395 26.8895 29.9255 26.0738C30.7665 25.6413 31.4157 25.0009 31.8956 24.3012C32.1394 23.9459 32.4317 23.5998 32.7725 23.27C35.1275 20.9913 38.9072 20.3563 41.2151 21.8522C43.523 23.348 43.4852 26.4083 41.1304 28.6872C40.7891 29.0175 40.4176 29.313 40.0249 29.5724C39.2527 30.0827 38.588 30.7133 38.2188 31.4519C37.523 32.8439 36.4411 34.3054 35.0093 35.6908C30.8397 39.7257 25.2886 41.5894 22.6106 39.8537C19.9326 38.118 21.1419 33.4401 25.3115 29.4052Z" fill="#FECC2F"/>
<path d="M25.3115 29.4052L24.9339 29.1605L24.9339 29.1605L25.3115 29.4052ZM32.7725 23.27L32.3949 23.0253L32.3949 23.0253L32.7725 23.27ZM41.2151 21.8522L41.5385 21.5392L41.5385 21.5392L41.2151 21.8522ZM41.1304 28.6872L41.5081 28.9319L41.5081 28.9319L41.1304 28.6872ZM35.0093 35.6908L35.387 35.9356L35.387 35.9356L35.0093 35.6908ZM22.6106 39.8537L22.2872 40.1667L22.2872 40.1667L22.6106 39.8537ZM40.0249 29.5724L39.7184 29.2709L40.0249 29.5724ZM31.8956 24.3012L31.4621 24.1224L31.8956 24.3012ZM25.3115 29.4052L25.6892 29.65C27.0896 28.2949 28.6447 27.1953 30.1812 26.4051L29.9255 26.0738L29.6698 25.7425C28.0343 26.5836 26.3984 27.7434 24.9339 29.1605L25.3115 29.4052ZM31.8956 24.3012L32.3292 24.4801C32.557 24.148 32.8306 23.824 33.1501 23.5148L32.7725 23.27L32.3949 23.0253C32.0329 23.3755 31.7218 23.7437 31.4621 24.1224L31.8956 24.3012ZM32.7725 23.27L33.1501 23.5148C35.382 21.3553 38.8517 20.8429 40.8917 22.1651L41.2151 21.8522L41.5385 21.5392C38.9627 19.8698 34.8731 20.6274 32.3949 23.0253L32.7725 23.27ZM41.2151 21.8522L40.8917 22.1651C42.9318 23.4874 42.9844 26.2828 40.7528 28.4425L41.1304 28.6872L41.5081 28.9319C43.9861 26.5338 44.1142 23.2087 41.5385 21.5392L41.2151 21.8522ZM41.1304 28.6872L40.7528 28.4424C40.433 28.752 40.0852 29.0284 39.7184 29.2709L40.0249 29.5724L40.3315 29.874C40.75 29.5975 41.1453 29.283 41.5081 28.9319L41.1304 28.6872ZM38.2188 31.4519L37.7582 31.3189C37.0841 32.6676 36.0314 34.0917 34.6317 35.4461L35.0093 35.6908L35.387 35.9356C36.8508 34.5191 37.962 33.0203 38.6794 31.5849L38.2188 31.4519ZM35.0093 35.6908L34.6317 35.4461C32.5908 37.4211 30.2269 38.8487 28.0756 39.571C25.9051 40.2997 24.0717 40.2782 22.934 39.5408L22.6106 39.8537L22.2872 40.1667C23.8276 41.165 26.1086 41.0794 28.4256 40.3015C30.7618 39.5171 33.2583 37.9955 35.387 35.9356L35.0093 35.6908ZM22.6106 39.8537L22.934 39.5408C21.7964 38.8034 21.4071 37.3843 21.8799 35.5553C22.3486 33.7424 23.6482 31.625 25.6892 29.65L25.3115 29.4052L24.9339 29.1605C22.8052 31.2204 21.4154 33.4593 20.9065 35.428C20.4017 37.3806 20.7469 39.1683 22.2872 40.1667L22.6106 39.8537ZM40.0249 29.5724L39.7184 29.2709C38.8994 29.8121 38.169 30.4971 37.7582 31.3189L38.2188 31.4519L38.6794 31.5849C39.007 30.9296 39.6061 30.3534 40.3315 29.874L40.0249 29.5724ZM29.9255 26.0738L30.1812 26.4051C31.1169 25.9239 31.8204 25.2219 32.3292 24.4801L31.8956 24.3012L31.4621 24.1224C31.011 24.7799 30.4161 25.3587 29.6698 25.7425L29.9255 26.0738Z" fill="#101828"/>
<path opacity="0.1" fill-rule="evenodd" clip-rule="evenodd" d="M31.1715 34.0285C27.7304 36.0185 23.957 36.9292 21.201 36.6319C21.1014 38.0171 21.5525 39.1638 22.6117 39.8503C25.2897 41.5858 30.8403 39.7225 35.0099 35.6878C36.3327 34.4078 37.3562 33.0626 38.0527 31.7674C38.5554 30.8328 39.4104 30.0327 40.3516 29.3401C40.6241 29.1396 40.8843 28.9208 41.1291 28.684C43.484 26.4052 43.5228 23.3445 41.2149 21.8486C40.9043 21.6474 40.5671 21.4847 40.2102 21.3594C40.4925 21.5493 40.7496 21.7662 40.9758 22.0097C42.8018 23.9756 41.9254 26.9322 39.0194 28.6128C38.7174 28.7874 38.4052 28.9412 38.0863 29.0744C36.9847 29.5347 35.937 30.1185 35.1939 30.9114C34.1641 32.0104 32.8039 33.0845 31.1715 34.0285Z" fill="#101828" stroke="#101828" stroke-width="0.9"/>
<path d="M61.4111 29.4052C59.9769 28.0174 58.3791 26.8867 56.7911 26.0709C55.9497 25.6386 55.3001 24.9984 54.8202 24.2985C54.5771 23.9439 54.2856 23.5986 53.9456 23.2696C51.5905 20.9909 47.8101 20.3564 45.5022 21.8523C43.1946 23.3482 43.2329 26.408 45.5877 28.6867C45.9302 29.0182 46.3031 29.3148 46.6972 29.575C47.4704 30.0855 48.1363 30.7163 48.506 31.4555C49.2018 32.8465 50.2828 34.3066 51.7133 35.6908C55.8829 39.7256 61.434 41.5892 64.112 39.8537C66.79 38.118 65.5808 33.4401 61.4111 29.4052Z" fill="#FECC2F"/>
<path d="M61.4111 29.4052L61.7887 29.1605L61.7887 29.1605L61.4111 29.4052ZM53.9456 23.2696L54.3232 23.0248L54.3232 23.0248L53.9456 23.2696ZM45.5022 21.8523L45.1787 21.5393L45.1788 21.5393L45.5022 21.8523ZM45.5877 28.6867L45.21 28.9315L45.21 28.9315L45.5877 28.6867ZM51.7133 35.6908L51.3357 35.9356L51.3357 35.9356L51.7133 35.6908ZM64.112 39.8537L64.4354 40.1667L64.4354 40.1667L64.112 39.8537ZM48.506 31.4555L48.9666 31.3224L48.506 31.4555ZM56.7911 26.0709L56.5355 26.4023L56.7911 26.0709ZM61.4111 29.4052L61.0335 29.65C59.6313 28.2932 58.074 27.1927 56.5355 26.4023L56.7911 26.0709L57.0466 25.7395C58.6841 26.5808 60.3224 27.7416 61.7887 29.1605L61.4111 29.4052ZM54.8202 24.2985L54.3866 24.4773C54.1595 24.146 53.8867 23.8227 53.568 23.5143L53.9456 23.2696L54.3232 23.0248C54.6845 23.3744 54.9947 23.7419 55.2538 24.1198L54.8202 24.2985ZM53.9456 23.2696L53.568 23.5143C51.3362 21.3549 47.8657 20.8429 45.8255 22.1652L45.5022 21.8523L45.1788 21.5393C47.7545 19.8699 51.8449 20.6269 54.3232 23.0248L53.9456 23.2696ZM45.5022 21.8523L45.8256 22.1652C43.7858 23.4875 43.7337 26.2825 45.9653 28.442L45.5877 28.6867L45.21 28.9315C42.7321 26.5335 42.6033 23.2089 45.1787 21.5393L45.5022 21.8523ZM45.5877 28.6867L45.9653 28.442C46.2864 28.7527 46.6354 29.0302 47.0037 29.2733L46.6972 29.575L46.3908 29.8767C45.9708 29.5993 45.5741 29.2837 45.21 28.9315L45.5877 28.6867ZM48.506 31.4555L48.9666 31.3224C49.6407 32.67 50.6925 34.0929 52.0909 35.4461L51.7133 35.6908L51.3357 35.9356C49.8731 34.5203 48.7629 33.0229 48.0454 31.5886L48.506 31.4555ZM51.7133 35.6908L52.0909 35.4461C54.1319 37.421 56.4957 38.8486 58.647 39.5709C60.8175 40.2996 62.651 40.2781 63.7887 39.5408L64.112 39.8537L64.4354 40.1667C62.895 41.1649 60.614 41.0793 58.297 40.3014C55.9608 39.517 53.4644 37.9954 51.3357 35.9356L51.7133 35.6908ZM64.112 39.8537L63.7887 39.5408C64.9263 38.8034 65.3155 37.3844 64.8427 35.5553C64.3741 33.7424 63.0745 31.625 61.0335 29.65L61.4111 29.4052L61.7887 29.1605C63.9174 31.2204 65.3073 33.4593 65.8162 35.428C66.3209 37.3806 65.9758 39.1683 64.4354 40.1667L64.112 39.8537ZM46.6972 29.575L47.0037 29.2733C47.8234 29.8146 48.5552 30.4999 48.9666 31.3224L48.506 31.4555L48.0454 31.5886C47.7174 30.9328 47.1173 30.3564 46.3908 29.8767L46.6972 29.575ZM56.7911 26.0709L56.5355 26.4023C55.5995 25.9214 54.8955 25.2195 54.3866 24.4773L54.8202 24.2985L55.2538 24.1198C55.7047 24.7773 56.3 25.3559 57.0466 25.7395L56.7911 26.0709Z" fill="#101828"/>
<path opacity="0.1" fill-rule="evenodd" clip-rule="evenodd" d="M59.7251 40.2801C61.4702 40.6634 63.0267 40.551 64.1116 39.8478C66.7892 38.1119 65.5805 33.4344 61.4111 29.3998C60.0863 28.1178 58.6217 27.0553 57.1543 26.2577C56.097 25.6829 55.2749 24.8616 54.6025 23.9949C54.4085 23.7448 54.1896 23.5005 53.9457 23.2646C52.7804 22.1369 51.2661 21.4119 49.7539 21.1484C50.6272 21.6915 51.4082 22.4148 52.0009 23.2837C52.1884 23.5585 52.3496 23.837 52.4852 24.1168C52.955 25.0865 53.5816 26.0383 54.4925 26.7904C55.7568 27.8342 56.9605 29.1372 57.9791 30.6303C60.5696 34.4273 61.1734 38.2909 59.7251 40.2801Z" fill="#101828" stroke="#101828" stroke-width="0.9"/>
<path d="M35.5234 34.6826C35.5235 33.2878 35.7954 31.9672 36.2805 30.7882C36.7784 29.5781 36.7075 28.165 36.6089 26.8602C36.6014 26.7617 36.5977 26.6624 36.5977 26.5625C36.5977 23.7465 39.5877 21.4639 43.2764 21.4639C46.9648 21.464 49.9551 23.7466 49.9551 26.5625C49.9551 26.6637 49.9512 26.7642 49.9435 26.864C49.8432 28.1693 49.7705 29.5828 50.2681 30.7938C50.7521 31.9713 51.0234 33.2899 51.0234 34.6826C51.0234 39.6687 47.5536 43.7109 43.2734 43.7109C38.9932 43.7109 35.5234 39.6687 35.5234 34.6826Z" fill="#FECC2F"/>
<path d="M35.5234 34.6826L35.0734 34.6826L35.0734 34.6826L35.5234 34.6826ZM36.5977 26.5625L36.1477 26.5625L36.1477 26.5625L36.5977 26.5625ZM43.2764 21.4639L43.2764 21.0139L43.2764 21.0139L43.2764 21.4639ZM49.9551 26.5625L50.4051 26.5625L50.4051 26.5625L49.9551 26.5625ZM51.0234 34.6826L51.4734 34.6826L51.4734 34.6826L51.0234 34.6826ZM43.2734 43.7109L43.2734 44.1609L43.2734 44.1609L43.2734 43.7109ZM49.9435 26.864L50.3922 26.8985L49.9435 26.864ZM36.2805 30.7882L36.6966 30.9595L36.2805 30.7882ZM35.5234 34.6826L35.9734 34.6826C35.9735 33.3463 36.234 32.0839 36.6966 30.9595L36.2805 30.7882L35.8643 30.617C35.3568 31.8505 35.0735 33.2293 35.0734 34.6826L35.5234 34.6826ZM36.6089 26.8602L37.0576 26.8263C37.051 26.739 37.0477 26.6511 37.0477 26.5625L36.5977 26.5625L36.1477 26.5625C36.1477 26.6738 36.1519 26.7844 36.1602 26.8941L36.6089 26.8602ZM36.5977 26.5625L37.0477 26.5625C37.0477 25.3245 37.7038 24.1722 38.8268 23.3149C39.9502 22.4572 41.5219 21.9139 43.2764 21.9139L43.2764 21.4639L43.2764 21.0139C41.3422 21.0139 39.5745 21.6118 38.2807 22.5995C36.9865 23.5875 36.1477 24.9845 36.1477 26.5625L36.5977 26.5625ZM43.2764 21.4639L43.2764 21.9139C45.0308 21.9139 46.6024 22.4573 47.7258 23.3149C48.8489 24.1723 49.5051 25.3245 49.5051 26.5625L49.9551 26.5625L50.4051 26.5625C50.4051 24.9845 49.5662 23.5875 48.272 22.5996C46.9782 21.6119 45.2104 21.0139 43.2764 21.0139L43.2764 21.4639ZM49.9551 26.5625L49.5051 26.5625C49.5051 26.6522 49.5016 26.7412 49.4948 26.8295L49.9435 26.864L50.3922 26.8985C50.4007 26.7873 50.4051 26.6753 50.4051 26.5625L49.9551 26.5625ZM50.2681 30.7938L49.8519 30.9648C50.3135 32.0879 50.5734 33.3484 50.5734 34.6826L51.0234 34.6826L51.4734 34.6826C51.4734 33.2314 51.1907 31.8547 50.6843 30.6227L50.2681 30.7938ZM51.0234 34.6826L50.5734 34.6826C50.5734 39.4871 47.2431 43.2609 43.2734 43.2609L43.2734 43.7109L43.2734 44.1609C47.8642 44.1609 51.4734 39.8503 51.4734 34.6826L51.0234 34.6826ZM43.2734 43.7109L43.2734 43.2609C39.3037 43.2609 35.9734 39.4871 35.9734 34.6826L35.5234 34.6826L35.0734 34.6826C35.0734 39.8503 38.6827 44.1609 43.2734 44.1609L43.2734 43.7109ZM49.9435 26.864L49.4948 26.8295C49.3955 28.1222 49.3078 29.6409 49.8519 30.9648L50.2681 30.7938L50.6843 30.6227C50.2331 29.5248 50.2909 28.2164 50.3922 26.8985L49.9435 26.864ZM36.2805 30.7882L36.6966 30.9595C37.241 29.6366 37.1553 28.1185 37.0576 26.8263L36.6089 26.8602L36.1602 26.8941C36.2598 28.2114 36.3159 29.5197 35.8643 30.617L36.2805 30.7882Z" fill="#101828"/>
<g opacity="0.1">
<path fill-rule="evenodd" clip-rule="evenodd" d="M46.8696 22.2578C47.6607 23.3421 47.9849 24.6188 47.6679 25.8786C47.617 26.0809 47.5635 26.2853 47.5095 26.4914C47.1768 27.7623 46.8277 29.0955 46.973 30.3683C47.1052 31.5274 47.03 32.7617 46.7157 34.0108C45.6043 38.4268 41.8926 41.5094 38.0938 41.3947C39.466 42.831 41.2808 43.705 43.2709 43.7051C47.551 43.7051 51.021 39.6633 51.0212 34.6774C51.0212 33.3964 50.7917 32.1778 50.3783 31.074C49.9244 29.862 49.9376 28.4925 49.9503 27.1865C49.9523 26.9746 49.9543 26.7644 49.9544 26.5568C49.9544 24.7509 48.7246 23.164 46.8696 22.2578Z" fill="#101828"/>
<path d="M47.6679 25.8786C47.9849 24.6188 47.6607 23.3421 46.8696 22.2578C48.7246 23.164 49.9544 24.7509 49.9544 26.5568C49.9543 26.7644 49.9523 26.9746 49.9503 27.1865C49.9376 28.4925 49.9244 29.862 50.3783 31.074C50.7917 32.1778 51.0212 33.3964 51.0212 34.6774C51.021 39.6633 47.551 43.7051 43.2709 43.7051C41.2808 43.705 39.466 42.831 38.0938 41.3947C41.8926 41.5094 45.6043 38.4268 46.7157 34.0108C47.03 32.7617 47.1052 31.5274 46.973 30.3683C46.8277 29.0955 47.1768 27.7623 47.5095 26.4914M47.6679 25.8786C47.617 26.0809 47.5635 26.2853 47.5095 26.4914M47.6679 25.8786C47.6377 25.9986 47.6066 26.1194 47.575 26.2408C47.5533 26.324 47.5315 26.4076 47.5095 26.4914" stroke="#101828" stroke-width="0.9"/>
</g>
<path opacity="0.1" d="M47.5084 26.4948C47.5463 26.3501 47.5839 26.2062 47.6206 26.0632" stroke="#101828" stroke-width="0.9"/>
<path d="M19.1254 51.2807C19.7835 51.1043 20.4995 51.4595 20.6822 52.1404L22.3271 58.2794L22.4366 58.25L21.4948 54.7353C21.3126 54.0543 21.7551 53.3887 22.4132 53.2124C23.0712 53.036 23.7873 53.3913 23.97 54.0721L24.9117 57.5868L25.0212 57.5575L24.3953 55.2219C24.2129 54.5408 24.6556 53.8753 25.3137 53.6989C25.9717 53.5228 26.687 53.8779 26.8696 54.5589L27.4954 56.8945L27.6048 56.8652L27.2949 55.7087C27.1125 55.0277 27.5552 54.3622 28.2133 54.1857C28.8715 54.0094 29.5876 54.3643 29.7701 55.0455L31.705 62.2664C32.1813 64.0452 31.0304 65.8572 29.2079 66.3456L25.2621 67.4029C24.1254 67.7074 22.9022 67.4621 22.0763 66.7157C19.3285 64.2327 16.1014 61.6668 16.0638 61.6369L16.0597 61.6329L16.0575 61.6325C15.5756 61.3896 15.3116 60.867 15.4224 60.3337C15.497 59.9752 15.7296 59.6731 16.0477 59.4979C16.3196 59.3481 16.6362 59.3003 16.9375 59.3626L17.0648 59.3962L17.0846 59.402L17.1027 59.4093L20.3405 60.7659L18.207 52.8037C18.0247 52.1227 18.4675 51.4572 19.1254 51.2807Z" fill="#101828" stroke="#101828" stroke-width="0.9"/>
<path d="M18.6879 51.3979C19.346 51.2215 20.062 51.5767 20.2447 52.2576L21.875 58.3418C21.883 58.3719 21.9142 58.3898 21.9443 58.3819C21.9745 58.3738 21.9925 58.3427 21.9844 58.3125L21.0573 54.8525C20.8751 54.1715 21.3176 53.5059 21.9757 53.3295C22.6337 53.1532 23.3498 53.5085 23.5325 54.1893L24.4596 57.6493C24.4677 57.6795 24.4988 57.6974 24.5289 57.6893C24.559 57.6812 24.5771 57.6501 24.569 57.62L23.9578 55.3391C23.7754 54.658 24.2181 53.9925 24.8762 53.8161C25.5342 53.64 26.2495 53.9951 26.4321 54.6761L27.0432 56.957C27.0513 56.987 27.0826 57.0049 27.1126 56.997C27.1428 56.989 27.1607 56.9578 27.1527 56.9277L26.8574 55.8259C26.675 55.1448 27.1177 54.4794 27.7758 54.3029C28.434 54.1266 29.1501 54.4815 29.3326 55.1627L31.2675 62.3836C31.7438 64.1624 30.5929 65.9744 28.7704 66.4628L24.8246 67.5201C23.6879 67.8246 22.4647 67.5793 21.6388 66.8329C18.891 64.3499 15.6639 61.784 15.6263 61.7541L15.6222 61.7501L15.62 61.7497C15.1381 61.5068 14.8741 60.9842 14.9849 60.4509C15.0595 60.0923 15.2921 59.7903 15.6102 59.6151C15.8821 59.4653 16.1987 59.4175 16.5 59.4798L16.6273 59.5134L16.6471 59.5192L16.6652 59.5265L19.903 60.8831L17.7695 52.9209C17.5872 52.2399 18.03 51.5743 18.6879 51.3979Z" fill="white" stroke="#101828" stroke-width="0.9"/>
<path d="M57.9336 62.9347C58.6645 60.5958 61.0912 54.953 64.9505 51.0938" stroke="#101828" stroke-width="0.9"/>
<path d="M40.8281 58.9922C44.7751 62.0621 46.5293 68.2019 51.3535 72.1489" stroke="#101828" stroke-width="0.9"/>
<circle cx="16.1501" cy="11.8181" r="2.16964" fill="#101828"/>
<circle cx="71.115" cy="11.8181" r="2.16964" fill="#101828"/>
<circle cx="16.1501" cy="45.0837" r="2.16964" fill="#101828"/>
<circle cx="71.115" cy="45.0837" r="2.16964" fill="#101828"/>
</g>
<defs>
<clipPath id="clip0_17403_3252">
<rect width="81" height="81" fill="white" transform="translate(3.85547 3.85938)"/>
</clipPath>
</defs>
</svg>
