<svg width="55" height="55" viewBox="0 0 55 55" fill="none" xmlns="http://www.w3.org/2000/svg">
<rect width="55" height="55" rx="10.7714" fill="url(#paint0_linear_10283_2954)"/>
<path d="M26.5598 8.27051C26.5598 8.78597 26.9777 9.20384 27.4932 9.20384C28.0086 9.20384 28.4265 8.78597 28.4265 8.27051C28.4265 7.75504 28.0086 7.33717 27.4932 7.33717C26.9777 7.33717 26.5598 7.75504 26.5598 8.27051ZM26.5598 19.2077C26.5598 19.7232 26.9777 20.1411 27.4932 20.1411C28.0086 20.1411 28.4265 19.7232 28.4265 19.2077C28.4265 18.6923 28.0086 18.2744 27.4932 18.2744C26.9777 18.2744 26.5598 18.6923 26.5598 19.2077ZM27.4932 8.27051H27.3182V19.2077H27.4932H27.6682V8.27051H27.4932Z" fill="black"/>
<path d="M31.8089 8.27051C31.8089 8.78597 32.2267 9.20384 32.7422 9.20384C33.2577 9.20384 33.6755 8.78597 33.6755 8.27051C33.6755 7.75504 33.2577 7.33717 32.7422 7.33717C32.2267 7.33717 31.8089 7.75504 31.8089 8.27051ZM39.6836 21.3952C39.6836 21.9106 40.1015 22.3285 40.617 22.3285C41.1324 22.3285 41.5503 21.9106 41.5503 21.3952C41.5503 20.8797 41.1324 20.4618 40.617 20.4618C40.1015 20.4618 39.6836 20.8797 39.6836 21.3952ZM32.7422 8.27051H32.5672V10.0205H32.7422H32.9172V8.27051H32.7422ZM35.3671 12.6454V12.8204H37.992V12.6454V12.4704H35.3671V12.6454ZM40.617 15.2703H40.442V21.3952H40.617H40.792V15.2703H40.617ZM37.992 12.6454V12.8204C39.3451 12.8204 40.442 13.9173 40.442 15.2703H40.617H40.792C40.792 13.724 39.5384 12.4704 37.992 12.4704V12.6454ZM32.7422 10.0205H32.5672C32.5672 11.5668 33.8208 12.8204 35.3671 12.8204V12.6454V12.4704C34.0141 12.4704 32.9172 11.3735 32.9172 10.0205H32.7422Z" fill="black"/>
<path d="M23.1765 8.27051C23.1765 8.78597 22.7586 9.20384 22.2432 9.20384C21.7277 9.20384 21.3098 8.78597 21.3098 8.27051C21.3098 7.75504 21.7277 7.33717 22.2432 7.33717C22.7586 7.33717 23.1765 7.75504 23.1765 8.27051ZM15.3017 21.3952C15.3017 21.9106 14.8838 22.3285 14.3684 22.3285C13.8529 22.3285 13.435 21.9106 13.435 21.3952C13.435 20.8797 13.8529 20.4618 14.3684 20.4618C14.8838 20.4618 15.3017 20.8797 15.3017 21.3952ZM22.2432 8.27051H22.4182V10.0205H22.2432H22.0682V8.27051H22.2432ZM19.6182 12.6454V12.8204H16.9933V12.6454V12.4704H19.6182V12.6454ZM14.3684 15.2703H14.5434V21.3952H14.3684H14.1934V15.2703H14.3684ZM16.9933 12.6454V12.8204C15.6402 12.8204 14.5434 13.9173 14.5434 15.2703H14.3684H14.1934C14.1934 13.724 15.4469 12.4704 16.9933 12.4704V12.6454ZM22.2432 10.0205H22.4182C22.4182 11.5668 21.1646 12.8204 19.6182 12.8204V12.6454V12.4704C20.9713 12.4704 22.0682 11.3735 22.0682 10.0205H22.2432Z" fill="black"/>
<mask id="mask0_10283_2954" style="mask-type:alpha" maskUnits="userSpaceOnUse" x="10" y="15" width="36" height="32">
<path d="M24.0459 40.5586H31.21V43.3875H24.0459V40.5586Z" fill="#6E61B6"/>
<path d="M28.3799 40.5586H31.2155V43.3875H28.3799V40.5586Z" fill="#6354B1"/>
<path d="M12.1245 40.559C11.1329 40.559 10.3262 39.7523 10.3262 38.7607V17.2046C10.3262 16.213 11.1329 15.4062 12.1245 15.4062H43.1371C44.1287 15.4062 44.9354 16.213 44.9354 17.2046V38.7607C44.9354 39.7523 44.1287 40.559 43.1371 40.559H12.1245ZM12.1245 16.2884C11.6193 16.2884 11.2084 16.6994 11.2084 17.2046V36.5419H44.0532V17.2046C44.0532 16.6994 43.6423 16.2884 43.1371 16.2884H12.1245Z" fill="#978ECB"/>
<path d="M12.1241 16.2881C11.619 16.2881 11.208 16.6991 11.208 17.2042V36.5415H44.0528V17.2042C44.0528 16.6991 43.6419 16.2881 43.1367 16.2881H12.1241Z" fill="#978ECB"/>
<path d="M44.4975 36.9804H10.7705V17.202C10.7705 16.4524 11.3781 15.8447 12.1277 15.8447H43.1403C43.8899 15.8447 44.4975 16.4524 44.4975 17.202V36.9804Z" fill="white"/>
<path d="M43.1451 15.8447H41.7539V36.9804H44.5023V17.202C44.5023 16.4524 43.8947 15.8447 43.1451 15.8447Z" fill="#F3F0F3"/>
<path d="M43.1366 15.3379H12.124C11.0949 15.3379 10.2578 16.175 10.2578 17.2041V38.7602C10.2578 39.7893 11.0949 40.6264 12.124 40.6264H43.1366C44.1656 40.6264 45.0028 39.7893 45.0028 38.7602V17.2041C45.0028 16.1751 44.1656 15.3379 43.1366 15.3379ZM43.9849 35.6447C43.9849 36.1025 43.6138 36.4735 43.1561 36.4735H12.1045C11.6468 36.4735 11.2757 36.1025 11.2757 35.6448V17.2041C11.2757 16.7363 11.6562 16.3558 12.124 16.3558H43.1366C43.6044 16.3558 43.9849 16.7363 43.9849 17.2041V35.6447Z" fill="#FFCA00" stroke="#101828" stroke-width="0.35"/>
<path d="M43.138 15.3379H41.7469V16.3558H43.138C43.6058 16.3558 43.9863 16.7363 43.9863 17.2041V36.4735H41.7469V39.2692C41.7469 40.0188 41.1392 40.6264 40.3896 40.6264H43.138C44.1671 40.6264 45.0042 39.7893 45.0042 38.7602V17.2041C45.0042 16.1751 44.1671 15.3379 43.138 15.3379Z" fill="#8379C1"/>
<path d="M34.5598 43.3174H20.6909C19.3865 43.3174 18.3291 44.3748 18.3291 45.6792V46.3895C18.3291 46.577 18.481 46.7288 18.6684 46.7288H36.5823C36.7696 46.7288 36.9216 46.577 36.9216 46.3895V45.6792C36.9216 44.3748 35.8642 43.3174 34.5598 43.3174Z" fill="#FFCA00" stroke="#101828" stroke-width="0.35"/>
<path d="M34.5643 43.3174H31.7148C33.0192 43.3174 34.0766 44.3748 34.0766 45.6792V46.3895C34.0766 46.577 33.9247 46.7288 33.7373 46.7288H36.5867C36.7741 46.7288 36.926 46.577 36.926 46.3895V45.6792C36.926 44.3748 35.8686 43.3174 34.5643 43.3174Z" fill="#8379C1"/>
</mask>
<g mask="url(#mask0_10283_2954)">
<path d="M16.7754 9.15625C22.1517 9.15634 26.5098 13.5153 26.5098 18.8916C26.5093 24.2675 22.1514 28.6259 16.7754 28.626C14.4875 28.626 12.3853 27.8349 10.7236 26.5137L9.7959 27.4424L10.2812 27.9277L8.84473 29.3643L8.84375 29.3633L3.27246 34.9355C2.63266 35.5753 1.63124 35.629 0.927734 35.1016L0.914062 35.1191L0.731445 34.9355C0.726528 34.9306 0.721625 34.9249 0.716797 34.9199L0.595703 34.7988L0.600586 34.79C0.0334056 34.085 0.0767377 33.0502 0.731445 32.3955L6.30176 26.8242L6.30078 26.8232L7.7373 25.3867L8.21484 25.8643L9.14551 24.9336C7.82908 23.2734 7.0412 21.1749 7.04102 18.8916C7.04102 13.5153 11.399 9.15625 16.7754 9.15625Z" fill="#101828"/>
</g>
<path d="M24.0225 40.5586H31.1866V43.3875H24.0225V40.5586Z" fill="#FFCA00" stroke="black" stroke-width="0.35"/>
<path d="M28.3633 40.5586H31.1989V43.3875H28.3633V40.5586Z" fill="#E7A200"/>
<path d="M24.0225 40.5586H31.1866V43.3875H24.0225V40.5586Z" stroke="black" stroke-width="0.35"/>
<path d="M12.1079 40.559C11.1163 40.559 10.3096 39.7523 10.3096 38.7607V17.2046C10.3096 16.213 11.1163 15.4062 12.1079 15.4062H43.1205C44.1121 15.4062 44.9188 16.213 44.9188 17.2046V38.7607C44.9188 39.7523 44.1121 40.559 43.1205 40.559H12.1079ZM12.1079 16.2884C11.6027 16.2884 11.1918 16.6994 11.1918 17.2046V36.5419H44.0366V17.2046C44.0366 16.6994 43.6256 16.2884 43.1205 16.2884H12.1079Z" fill="#978ECB"/>
<path d="M12.1075 16.2881C11.6024 16.2881 11.1914 16.6991 11.1914 17.2042V36.5415H44.0362V17.2042C44.0362 16.6991 43.6253 16.2881 43.1201 16.2881H12.1075Z" fill="#978ECB"/>
<path d="M44.4751 36.9804H10.748V17.202C10.748 16.4524 11.3557 15.8447 12.1053 15.8447H43.1179C43.8675 15.8447 44.4751 16.4524 44.4751 17.202V36.9804Z" fill="white"/>
<path d="M42.335 15.4434H40.5312V36.8249H44.0948V16.8164C44.0948 16.0581 43.307 15.4434 42.335 15.4434Z" fill="#F9F4F2"/>
<path d="M36.6997 36.8591C33.1159 39.8658 28.6348 39.2312 28.6348 39.2312C28.6348 39.2312 28.9861 33.7218 32.5699 30.7151C36.1536 27.7084 40.6348 28.343 40.6348 28.343C40.6348 28.343 40.2834 33.8524 36.6997 36.8591Z" fill="#3C9E86"/>
<path d="M29.8463 39.1777L35.806 32.5011M36.6997 36.8591C33.1159 39.8658 28.6348 39.2312 28.6348 39.2312C28.6348 39.2312 28.9861 33.7218 32.5699 30.7151C36.1536 27.7084 40.6348 28.343 40.6348 28.343C40.6348 28.343 40.2834 33.8524 36.6997 36.8591Z" stroke="#101828" stroke-width="0.35"/>
<path d="M18.5699 36.8591C22.1536 39.8658 26.6348 39.2312 26.6348 39.2312C26.6348 39.2312 26.2834 33.7218 22.6997 30.7151C19.1159 27.7084 14.6348 28.343 14.6348 28.343C14.6348 28.343 14.9861 33.8524 18.5699 36.8591Z" fill="#3C9E86"/>
<path d="M25.4232 39.1777L19.4635 32.5011M18.5699 36.8591C22.1536 39.8658 26.6348 39.2312 26.6348 39.2312C26.6348 39.2312 26.2834 33.7218 22.6997 30.7151C19.1159 27.7084 14.6348 28.343 14.6348 28.343C14.6348 28.343 14.9861 33.8524 18.5699 36.8591Z" stroke="#101828" stroke-width="0.35"/>
<path d="M43.1131 15.3379H12.1006C11.0715 15.3379 10.2344 16.175 10.2344 17.2041V38.7602C10.2344 39.7893 11.0715 40.6264 12.1006 40.6264H43.1131C44.1422 40.6264 44.9793 39.7893 44.9793 38.7602V17.2041C44.9793 16.1751 44.1422 15.3379 43.1131 15.3379ZM43.9614 36.4735H11.2523V17.2041C11.2523 16.7363 11.6328 16.3558 12.1006 16.3558H43.1131C43.5809 16.3558 43.9614 16.7363 43.9614 17.2041V36.4735Z" fill="#FEE29E" stroke="#101828" stroke-width="0.35"/>
<path d="M43.1146 15.3379H41.7234V16.3558H43.1146C43.5824 16.3558 43.9629 16.7363 43.9629 17.2041V36.4735H41.7234V39.2692C41.7234 40.0188 41.1158 40.6264 40.3662 40.6264H43.1146C44.1436 40.6264 44.9808 39.7893 44.9808 38.7602V17.2041C44.9808 16.1751 44.1436 15.3379 43.1146 15.3379Z" fill="#FFCA00"/>
<path d="M34.5432 42.4424H20.6743C19.3699 42.4424 18.3125 43.4998 18.3125 44.8042V45.5145C18.3125 45.702 18.4644 45.8538 18.6518 45.8538H36.5657C36.753 45.8538 36.905 45.702 36.905 45.5145V44.8042C36.905 43.4998 35.8476 42.4424 34.5432 42.4424Z" fill="#FEE29E" stroke="#101828" stroke-width="0.35"/>
<path d="M43.1131 15.3379H12.1006C11.0715 15.3379 10.2344 16.175 10.2344 17.2041V38.7602C10.2344 39.7893 11.0715 40.6264 12.1006 40.6264H43.1131C44.1422 40.6264 44.9793 39.7893 44.9793 38.7602V17.2041C44.9793 16.1751 44.1422 15.3379 43.1131 15.3379ZM43.9614 36.4735H11.2523V17.2041C11.2523 16.7363 11.6328 16.3558 12.1006 16.3558H43.1131C43.5809 16.3558 43.9614 16.7363 43.9614 17.2041V36.4735Z" stroke="#101828" stroke-width="0.35"/>
<path d="M34.5418 42.4424H31.6924C32.9967 42.4424 34.0542 43.4998 34.0542 44.8042V45.5145C34.0542 45.702 33.9022 45.8538 33.7149 45.8538H36.5643C36.7516 45.8538 36.9036 45.702 36.9036 45.5145V44.8042C36.9036 43.4998 35.8462 42.4424 34.5418 42.4424Z" fill="#FFCA00"/>
<path d="M34.552 42.4443H20.6831C19.3787 42.4443 18.3213 43.5017 18.3213 44.8061V45.5165C18.3213 45.7039 18.4732 45.8558 18.6606 45.8558H36.5745C36.7618 45.8558 36.9138 45.7039 36.9138 45.5165V44.8061C36.9138 43.5017 35.8564 42.4443 34.552 42.4443Z" stroke="#101828" stroke-width="0.35"/>
<path d="M13.208 45.8574H42.0223" stroke="#101828" stroke-width="0.35"/>
<path d="M34.1726 17.0792L35.0782 16.1735C35.2798 15.9719 35.3012 15.6539 35.1318 15.4247C34.5671 14.6597 33.8902 13.9828 33.1252 13.418C32.896 13.2487 32.5779 13.2701 32.3764 13.4717L31.4706 14.3775C30.8253 13.9918 30.1285 13.7036 29.3989 13.5205V12.239C29.3989 11.954 29.1892 11.7138 28.9073 11.6716C28.4445 11.6023 27.9707 11.5664 27.4884 11.5664C27.0061 11.5664 26.5323 11.6023 26.0695 11.6716C25.7876 11.7138 25.5779 11.954 25.5779 12.239V13.5205C24.8481 13.7036 24.1514 13.9919 23.5061 14.3775L22.6004 13.4718C22.3989 13.2703 22.0808 13.2488 21.8515 13.418C21.0865 13.983 20.4097 14.6597 19.8448 15.4247C19.6756 15.6541 19.697 15.9721 19.8986 16.1736L20.8042 17.0793C20.4187 17.7248 20.1304 18.4214 19.9472 19.1512H18.6657C18.3807 19.1512 18.1405 19.3608 18.0984 19.6428C18.0291 20.1055 17.9932 20.5793 17.9932 21.0616C17.9932 21.544 18.0291 22.0177 18.0984 22.4805C18.1405 22.7625 18.3807 22.9721 18.6657 22.9721H19.9472C20.1304 23.7019 20.4186 24.3985 20.8042 25.0438L19.8984 25.9497C19.697 26.1512 19.6756 26.4692 19.8448 26.6984C20.4096 27.4634 21.0865 28.1403 21.8515 28.7051C22.0808 28.8745 22.3987 28.853 22.6004 28.6515L23.5061 27.7458L27.4884 28.8374L32.9883 26.5615L35.2641 21.0616L34.1726 17.0792ZM27.4884 25.4559C25.0616 25.4559 23.0942 23.4885 23.0942 21.0616C23.0942 18.6348 25.0616 16.6674 27.4884 16.6674C29.9152 16.6674 31.8826 18.6348 31.8826 21.0616C31.8826 23.4885 29.9152 25.4559 27.4884 25.4559Z" fill="#F9F4F2"/>
<path d="M36.8803 19.6427C36.8382 19.3608 36.598 19.1511 36.313 19.1511H35.0312C34.848 18.4213 34.56 17.7246 34.1744 17.0791C33.6978 17.5556 33.5427 18.2617 33.7615 18.899C33.9971 19.5855 34.1198 20.314 34.1198 21.0616C34.1198 22.8344 33.4308 24.4999 32.1797 25.751C30.9286 27.002 29.2631 27.6911 27.4903 27.6911C26.7427 27.6911 26.0142 27.5684 25.3277 27.3328C24.6904 27.114 23.9845 27.2691 23.5078 27.7457C24.1533 28.1313 24.85 28.4193 25.5798 28.6024V29.8843C25.5798 30.1692 25.7895 30.4096 26.0714 30.4518C26.5342 30.5209 27.008 30.5568 27.4903 30.5568C27.9726 30.5568 28.4464 30.5209 28.9092 30.4516C29.1911 30.4095 29.4008 30.1692 29.4008 29.8843V28.6027C30.1305 28.4196 30.8273 28.1313 31.4728 27.7457L32.3783 28.6514C32.58 28.853 32.8979 28.8744 33.1272 28.7052C33.8922 28.1403 34.5691 27.4635 35.1339 26.6985C35.3031 26.4691 35.2817 26.1511 35.0801 25.9496L34.1744 25.0439C34.56 24.3984 34.8483 23.7018 35.0314 22.972H36.313C36.598 22.972 36.8382 22.7624 36.8803 22.4804C36.9496 22.0177 36.9855 21.5439 36.9855 21.0616C36.9855 20.5793 36.9496 20.1055 36.8803 19.6427Z" fill="#F9F4F2"/>
<path d="M36.8803 19.6427C36.8382 19.3608 36.598 19.1511 36.313 19.1511H35.0312C34.848 18.4213 34.56 17.7246 34.1744 17.0791C33.6978 17.5556 33.5427 18.2617 33.7615 18.899C33.9971 19.5855 34.1198 20.314 34.1198 21.0616C34.1198 22.8344 33.4308 24.4999 32.1797 25.751C30.9286 27.002 29.2631 27.6911 27.4903 27.6911C26.7427 27.6911 26.0142 27.5684 25.3277 27.3328C24.6904 27.114 23.9845 27.2691 23.5078 27.7457C24.1533 28.1313 24.85 28.4193 25.5798 28.6024V29.8843C25.5798 30.1692 25.7895 30.4096 26.0714 30.4518C26.5342 30.5209 27.008 30.5568 27.4903 30.5568C27.9726 30.5568 28.4464 30.5209 28.9092 30.4516C29.1911 30.4095 29.4008 30.1692 29.4008 29.8843V28.6027C30.1305 28.4196 30.8273 28.1313 31.4728 27.7457L32.3783 28.6514C32.58 28.853 32.8979 28.8744 33.1272 28.7052C33.8922 28.1403 34.5691 27.4635 35.1339 26.6985C35.3031 26.4691 35.2817 26.1511 35.0801 25.9496L34.1744 25.0439C34.56 24.3984 34.8483 23.7018 35.0314 22.972H36.313C36.598 22.972 36.8382 22.7624 36.8803 22.4804C36.9496 22.0177 36.9855 21.5439 36.9855 21.0616C36.9855 20.5793 36.9496 20.1055 36.8803 19.6427Z" fill="#101828" fill-opacity="0.15"/>
<path fill-rule="evenodd" clip-rule="evenodd" d="M27.4962 11.5664C27.9784 11.5664 28.452 11.6022 28.9146 11.6714C29.1966 11.7136 29.4067 11.9543 29.4067 12.2393V13.5203C30.1362 13.7034 30.8329 13.9915 31.4782 14.3772L32.384 13.4713C32.5855 13.2699 32.9036 13.2485 33.1327 13.4176C33.8977 13.9823 34.5748 14.6595 35.1395 15.4244C35.3089 15.6535 35.2873 15.9715 35.0858 16.1731L34.1792 17.0789C34.5646 17.7243 34.8529 18.4208 35.0361 19.1505H36.3178C36.6027 19.1505 36.8434 19.3598 36.8857 19.6417C36.9549 20.1044 36.9907 20.5785 36.9907 21.0609C36.9907 21.543 36.9549 22.0167 36.8857 22.4793C36.8435 22.7612 36.6028 22.9713 36.3178 22.9713H35.0368C34.8537 23.7011 34.5647 24.3974 34.1792 25.0428L35.085 25.9487C35.2865 26.1502 35.3079 26.468 35.1387 26.6974C34.574 27.4624 33.8969 28.1392 33.1319 28.7041C32.9026 28.8733 32.5849 28.852 32.3833 28.6504L31.4782 27.7446C30.8327 28.1301 30.1357 28.4191 29.4059 28.6023V29.8833C29.4059 30.1682 29.1958 30.4089 28.9138 30.4511C28.4512 30.5203 27.9776 30.5561 27.4954 30.5561C27.0131 30.5561 26.539 30.5202 26.0762 30.4511C25.7944 30.4088 25.585 30.1682 25.585 29.8833V28.6015C24.8557 28.4185 24.1594 28.1306 23.5143 27.7454L22.6084 28.6512C22.4067 28.8528 22.0883 28.8743 21.8589 28.7049C21.094 28.1402 20.4169 27.4631 19.8522 26.6982C19.6832 26.469 19.7046 26.1509 19.9059 25.9495L20.8117 25.0436C20.4261 24.3984 20.138 23.7018 19.9548 22.9721H18.6739C18.3889 22.9721 18.1482 22.762 18.106 22.4801C18.0368 22.0175 18.001 21.5438 18.001 21.0617C18.001 20.5793 18.0368 20.1052 18.106 19.6425C18.1483 19.3606 18.3889 19.1512 18.6739 19.1512H19.9548C20.138 18.4215 20.4262 17.7244 20.8117 17.0789L19.9067 16.1739C19.7051 15.9723 19.6829 15.6537 19.8522 15.4244C20.4171 14.6594 21.0939 13.9825 21.8589 13.4176C22.0883 13.2484 22.4069 13.2706 22.6084 13.4721L23.5135 14.3772C24.1588 13.9916 24.856 13.7034 25.5858 13.5203V12.2393C25.5858 11.9544 25.7952 11.7137 26.077 11.6714C26.5398 11.6022 27.0139 11.5664 27.4962 11.5664ZM27.4962 16.6675C25.0694 16.6675 23.102 18.6348 23.102 21.0617C23.1021 23.4885 25.0694 25.4559 27.4962 25.4559C29.923 25.4558 31.8904 23.4884 31.8904 21.0617C31.8904 18.6349 29.923 16.6675 27.4962 16.6675Z" stroke="black" stroke-width="0.35"/>
<path d="M27.4893 15.4004C30.6209 15.4005 33.1475 17.9275 33.1475 21.0586C33.1474 24.1902 30.6202 26.7167 27.4893 26.7168C24.3576 26.7168 21.8312 24.1896 21.8311 21.0586C21.8311 17.9269 24.3581 15.4004 27.4893 15.4004ZM27.4893 18.043C25.818 18.043 24.4736 19.3879 24.4736 21.0586C24.4737 22.7297 25.8186 24.0742 27.4893 24.0742C29.1603 24.0741 30.5048 22.7291 30.5049 21.0586C30.5049 19.3874 29.1599 18.0431 27.4893 18.043Z" fill="#D3D8E0" stroke="black" stroke-width="0.35"/>
<path d="M31.3686 17.1807C30.9425 17.6068 30.8644 18.2706 31.1824 18.7825C31.6039 19.4613 31.8293 20.2441 31.8293 21.0604C31.8293 22.2166 31.377 23.3056 30.5556 24.1269C29.7343 24.9483 28.645 25.4006 27.4888 25.4006C26.6727 25.4006 25.89 25.1752 25.2112 24.7537C24.6994 24.4357 24.0355 24.5138 23.6094 24.9399C24.6007 25.9313 25.9714 26.5435 27.489 26.5435C30.5235 26.5435 32.9722 24.0953 32.9722 21.0603C32.9722 19.543 32.36 18.1721 31.3686 17.1807Z" fill="#101828" fill-opacity="0.19"/>
<defs>
<linearGradient id="paint0_linear_10283_2954" x1="30.5052" y1="-23.4418" x2="66.3267" y2="32.1954" gradientUnits="userSpaceOnUse">
<stop offset="0.433904" stop-color="#FFEAB4"/>
<stop offset="0.827555" stop-color="#FFCF11"/>
</linearGradient>
</defs>
</svg>
