<svg width="46" height="45" viewBox="0 0 46 45" fill="none" xmlns="http://www.w3.org/2000/svg">
<g filter="url(#filter0_f_10723_2718)">
<circle cx="19.6447" cy="19.6437" r="7.21109" fill="#FECC2F"/>
</g>
<path d="M30.3515 19.5715C30.3515 20.5138 29.6204 21.2778 28.7186 21.2778H18.3928C17.4908 21.2778 16.7598 22.0416 16.7598 22.9841V37.4168C16.7598 38.3592 17.4908 39.123 18.3928 39.123H39.3761C40.2781 39.123 41.0091 38.3592 41.0091 37.4168V19.5715C41.0091 18.629 40.2781 17.8652 39.3761 17.8652H31.9845C31.0827 17.8652 30.3515 18.629 30.3515 19.5715Z" fill="#E7A200" stroke="#101828" stroke-width="0.5"/>
<path d="M39.3066 14.873V36.373H20.8066V14.873H39.3066Z" fill="#D3D8E0" stroke="#101828" stroke-width="0.5"/>
<path opacity="0.2" d="M21.0566 15.123H39.0566V36.123H21.0566V15.123Z" fill="#101828" stroke="black" stroke-width="0.5"/>
<path d="M16.5176 11.668H34.6106V24.8923H16.5176V11.668Z" fill="white" stroke="black" stroke-width="0.5"/>
<path d="M37.5013 19.5715V37.4168C37.5013 38.3592 36.7703 39.123 35.8683 39.123H15.885C14.9836 39.123 14.252 38.3592 14.252 37.4168V22.9838C14.252 22.0414 14.9836 21.2776 15.885 21.2776H25.211C26.1128 21.2776 26.8439 20.5138 26.8439 19.5715C26.8439 18.629 27.5749 17.8652 28.4769 17.8652H35.8683C36.7703 17.8652 37.5013 18.629 37.5013 19.5715Z" fill="#FECC2F" stroke="#101828" stroke-width="0.5"/>
<path d="M35.7939 19.5715V37.4168C35.7939 38.3592 35.0629 39.123 34.1608 39.123H15.885C14.9836 39.123 14.252 38.3592 14.252 37.4168V22.9838C14.252 22.0414 14.9836 21.2776 15.885 21.2776H25.211C26.1128 21.2776 26.8439 20.5138 26.8439 19.5715C26.8439 18.629 27.5749 17.8652 28.4769 17.8652H34.1608C35.0629 17.8652 35.7939 18.629 35.7939 19.5715Z" fill="#FEE29E" stroke="#101828" stroke-width="0.5"/>
<path d="M19.7871 16.9512H27.7871" stroke="black" stroke-width="0.5"/>
<path d="M19.7871 14.9512H27.7871" stroke="black" stroke-width="0.5"/>
<path d="M19.7871 18.9512H24.7871" stroke="black" stroke-width="0.5"/>
<path d="M16.5996 26.2363L16.5762 27.2337C16.5304 29.1868 18.1258 30.7822 20.0789 30.7363L21.0762 30.7129L20.0789 30.6895C18.1258 30.6437 16.5304 32.239 16.5762 34.1922L16.5996 35.1895L16.623 34.1922C16.6689 32.239 15.0735 30.6437 13.1204 30.6895L12.123 30.7129L13.1204 30.7363C15.0735 30.7822 16.6689 29.1868 16.623 27.2337L16.5996 26.2363Z" fill="white" stroke="#101828" stroke-width="0.5"/>
<defs>
<filter id="filter0_f_10723_2718" x="0.000685692" y="-0.000290871" width="39.2877" height="39.2877" filterUnits="userSpaceOnUse" color-interpolation-filters="sRGB">
<feFlood flood-opacity="0" result="BackgroundImageFix"/>
<feBlend mode="normal" in="SourceGraphic" in2="BackgroundImageFix" result="shape"/>
<feGaussianBlur stdDeviation="6.21645" result="effect1_foregroundBlur_10723_2718"/>
</filter>
</defs>
</svg>
