<svg width="105" height="124" viewBox="0 0 105 124" fill="none" xmlns="http://www.w3.org/2000/svg">
<g clip-path="url(#clip0_10283_1423)">
<path d="M88.6613 66.2476L73.2693 73.7191L52.4043 74.5343L30.8729 74.1829L16.1475 66.2476L52.4043 57.959L88.6613 66.2476Z" fill="#E7A200" stroke="#101828" stroke-width="0.4"/>
<path opacity="0.2" d="M88.6613 66.2476L73.2693 73.7191L52.4043 74.5343L30.8729 74.1829L16.1475 66.2476L52.4043 57.959L88.6613 66.2476Z" fill="#101828" stroke="#101828" stroke-width="0.4"/>
<path d="M64.8465 64.6254C62.4458 73.8545 59.3631 92.9517 66.3922 109.593L66.9063 109.375L67.4217 109.158C60.5389 92.8624 63.5441 74.0654 65.9265 64.9065L64.8465 64.6254Z" fill="#2DA17D"/>
<path d="M64.8465 64.6254L64.653 64.575L64.7033 64.3815L64.8969 64.4318L64.8465 64.6254ZM66.3922 109.593L66.4703 109.777L66.2859 109.855L66.208 109.671L66.3922 109.593ZM66.9063 109.375L66.8282 109.191L66.8285 109.191L66.9063 109.375ZM67.4217 109.158L67.6059 109.08L67.6838 109.264L67.4995 109.342L67.4217 109.158ZM65.9265 64.9065L65.9769 64.713L66.1704 64.7634L66.1201 64.9569L65.9265 64.9065ZM64.8465 64.6254L65.0401 64.6757C62.6426 73.8922 59.5735 92.9359 66.5764 109.515L66.3922 109.593L66.208 109.671C59.1527 92.9675 62.249 73.8167 64.653 64.575L64.8465 64.6254ZM66.3922 109.593L66.3141 109.409L66.8282 109.191L66.9063 109.375L66.9843 109.559L66.4703 109.777L66.3922 109.593ZM66.9063 109.375L66.8285 109.191L67.3439 108.973L67.4217 109.158L67.4995 109.342L66.9841 109.559L66.9063 109.375ZM67.4217 109.158L67.2375 109.235C60.3285 92.8783 63.3472 74.0276 65.7329 64.8562L65.9265 64.9065L66.1201 64.9569C63.7409 74.1032 60.7493 92.8466 67.6059 109.08L67.4217 109.158ZM65.9265 64.9065L65.8761 65.1001L64.7961 64.8189L64.8465 64.6254L64.8969 64.4318L65.9769 64.713L65.9265 64.9065Z" fill="#101828"/>
<ellipse cx="69.4775" cy="53.7281" rx="2.153" ry="9.18073" transform="rotate(18.1175 69.4775 53.7281)" fill="#CD90E3" stroke="#101828" stroke-width="0.4"/>
<ellipse cx="71.6416" cy="54.636" rx="2.153" ry="9.18073" transform="rotate(38.2842 71.6416 54.636)" fill="#CD90E3" stroke="#101828" stroke-width="0.4"/>
<ellipse cx="2.153" cy="9.18072" rx="2.153" ry="9.18072" transform="matrix(-0.965562 0.260172 0.260172 0.965562 63.4092 43.5869)" fill="#CD90E3" stroke="#101828" stroke-width="0.4"/>
<ellipse cx="2.153" cy="9.18072" rx="2.153" ry="9.18072" transform="matrix(-0.996062 -0.0886603 -0.0886603 0.996062 68.9307 44.0547)" fill="#CD90E3" stroke="#101828" stroke-width="0.4"/>
<ellipse cx="2.153" cy="9.18073" rx="2.153" ry="9.18073" transform="matrix(-0.979568 -0.201112 -0.201112 0.979568 71.8379 44.0449)" fill="#EBCFF6" stroke="#101828" stroke-width="0.4"/>
<path d="M63.8808 43.4982C62.6974 43.614 62.1389 47.7991 62.6327 52.8454C63.1266 57.8912 64.4857 61.8875 65.669 61.7722C65.7746 61.7619 65.8748 61.7185 65.9701 61.6456C66.029 61.7499 66.1022 61.8301 66.1949 61.8812C67.237 62.4539 70.0618 59.3155 72.504 54.872C74.9458 50.4291 76.081 46.3634 75.0395 45.7901C73.9975 45.2174 71.1728 48.355 68.7306 52.7983C68.0896 53.9647 67.5407 55.1062 67.0955 56.1642C67.1032 55.0163 67.0475 53.7509 66.9179 52.4262C66.424 47.3799 65.0642 43.3824 63.8808 43.4982Z" fill="#EBCFF6"/>
<path d="M63.8808 43.4982L63.8614 43.2991L63.8614 43.2991L63.8808 43.4982ZM62.6327 52.8454L62.4337 52.8649L62.4337 52.8649L62.6327 52.8454ZM65.669 61.7722L65.6885 61.9713L65.6884 61.9713L65.669 61.7722ZM65.9701 61.6456L65.8487 61.4867L66.0314 61.3471L66.1443 61.5473L65.9701 61.6456ZM66.1949 61.8812L66.0986 62.0564L66.0985 62.0564L66.1949 61.8812ZM72.504 54.872L72.6793 54.9684L72.6793 54.9684L72.504 54.872ZM75.0395 45.7901L75.1358 45.6149L75.1359 45.6149L75.0395 45.7901ZM68.7306 52.7983L68.5554 52.702L68.5554 52.702L68.7306 52.7983ZM67.0955 56.1642L67.2799 56.2418L66.8955 56.1629L67.0955 56.1642ZM66.9179 52.4262L67.1169 52.4067L67.1169 52.4067L66.9179 52.4262ZM63.8808 43.4982L63.9003 43.6972C63.8137 43.7057 63.7175 43.752 63.6127 43.8633C63.5067 43.9757 63.4009 44.1457 63.3007 44.3774C63.1001 44.8406 62.9379 45.5116 62.826 46.3493C62.6028 48.0216 62.5859 50.3134 62.8318 52.8259L62.6327 52.8454L62.4337 52.8649C62.1857 50.3311 62.2012 48.0072 62.4296 46.2964C62.5435 45.4426 62.712 44.7303 62.9336 44.2185C63.0443 43.9626 63.1725 43.7472 63.3216 43.5889C63.4719 43.4294 63.6521 43.3196 63.8614 43.2991L63.8808 43.4982ZM62.6327 52.8454L62.8318 52.8259C63.0777 55.3382 63.5385 57.5828 64.0817 59.1798C64.3538 59.9798 64.643 60.6066 64.9295 61.022C65.0727 61.2298 65.2095 61.3761 65.3353 61.4659C65.4597 61.5547 65.563 61.5816 65.6496 61.5731L65.669 61.7722L65.6884 61.9713C65.4792 61.9916 65.2812 61.9188 65.1028 61.7914C64.9259 61.6651 64.7584 61.4786 64.6002 61.2491C64.2836 60.79 63.9803 60.124 63.703 59.3086C63.1473 57.6748 62.6816 55.3984 62.4337 52.8649L62.6327 52.8454ZM65.669 61.7722L65.6495 61.5732C65.7113 61.5671 65.777 61.5415 65.8487 61.4867L65.9701 61.6456L66.0916 61.8045C65.9725 61.8955 65.8379 61.9566 65.6885 61.9713L65.669 61.7722ZM65.9701 61.6456L66.1443 61.5473C66.1899 61.628 66.239 61.6771 66.2914 61.706L66.1949 61.8812L66.0985 62.0564C65.9654 61.9831 65.8681 61.8718 65.796 61.7439L65.9701 61.6456ZM66.1949 61.8812L66.2913 61.7059C66.3675 61.7478 66.4731 61.7639 66.6224 61.7313C66.7734 61.6983 66.9567 61.6178 67.1703 61.4832C67.5974 61.2142 68.1103 60.7521 68.6758 60.1239C69.8045 58.8699 71.1128 56.9881 72.3287 54.7757L72.504 54.872L72.6793 54.9684C71.453 57.1995 70.1278 59.1086 68.9731 60.3915C68.3968 61.0317 67.8554 61.5245 67.3835 61.8217C67.1476 61.9703 66.9202 62.0757 66.7077 62.1221C66.4936 62.1688 66.2829 62.1577 66.0986 62.0564L66.1949 61.8812ZM72.504 54.872L72.3287 54.7757C73.5445 52.5636 74.4318 50.4509 74.8854 48.8262C75.1126 48.0122 75.2279 47.3317 75.2261 46.8269C75.2252 46.5745 75.195 46.3766 75.1419 46.2314C75.0894 46.0878 75.0193 46.0073 74.9431 45.9654L75.0395 45.7901L75.1359 45.6149C75.3201 45.7163 75.4423 45.8882 75.5176 46.0941C75.5922 46.2983 75.6251 46.5468 75.6261 46.8255C75.6281 47.3832 75.5022 48.1042 75.2706 48.9337C74.8066 50.5959 73.9053 52.7375 72.6793 54.9684L72.504 54.872ZM75.0395 45.7901L74.9432 45.9654C74.8669 45.9235 74.7614 45.9074 74.612 45.94C74.461 45.9729 74.2777 46.0535 74.0641 46.188C73.637 46.4569 73.1242 46.9189 72.5588 47.547C71.4301 48.8008 70.1218 50.6824 68.9059 52.8947L68.7306 52.7983L68.5554 52.702C69.7816 50.4709 71.1068 48.5621 72.2615 47.2794C72.8377 46.6393 73.3791 46.1466 73.851 45.8495C74.0869 45.7009 74.3143 45.5956 74.5268 45.5492C74.7409 45.5025 74.9516 45.5136 75.1358 45.6149L75.0395 45.7901ZM68.7306 52.7983L68.9059 52.8947C68.2681 54.0551 67.7223 55.1904 67.2799 56.2418L67.0955 56.1642L66.9112 56.0867C67.3591 55.022 67.9111 53.8743 68.5554 52.702L68.7306 52.7983ZM67.0955 56.1642L66.8955 56.1629C66.9032 55.0222 66.8478 53.7638 66.7188 52.4456L66.9179 52.4262L67.1169 52.4067C67.2472 53.738 67.3033 55.0104 67.2955 56.1656L67.0955 56.1642ZM66.9179 52.4262L66.7188 52.4456C66.4729 49.9331 66.0119 47.6881 65.4686 46.0908C65.1964 45.2906 64.9071 44.6638 64.6205 44.2483C64.4772 44.0404 64.3404 43.8942 64.2146 43.8044C64.0903 43.7156 63.9869 43.6888 63.9003 43.6972L63.8808 43.4982L63.8614 43.2991C64.0706 43.2787 64.2686 43.3515 64.447 43.4788C64.6241 43.6052 64.7915 43.7916 64.9498 44.0212C65.2665 44.4803 65.5699 45.1465 65.8473 45.962C66.4031 47.5961 66.869 49.8729 67.1169 52.4067L66.9179 52.4262Z" fill="#101828"/>
<ellipse cx="2.153" cy="9.18073" rx="2.153" ry="9.18073" transform="matrix(-0.927395 0.374085 0.374085 0.927395 60.334 43.7803)" fill="#EBCFF6"/>
<ellipse cx="73.2049" cy="55.4475" rx="2.153" ry="9.18072" transform="rotate(45.1717 73.2049 55.4475)" fill="#EBCFF6"/>
<path d="M65.206 61.614C64.1033 62.0588 61.6717 58.6075 59.775 53.9052C57.8782 49.203 57.2346 45.0305 58.3373 44.5857C59.44 44.1409 61.8716 47.5922 63.7684 52.2944C64.3716 53.7898 64.848 55.2317 65.1819 56.5171" stroke="#101828" stroke-width="0.4"/>
<ellipse cx="73.2049" cy="55.4475" rx="2.153" ry="9.18072" transform="rotate(45.1717 73.2049 55.4475)" fill="#EBCFF6"/>
<path d="M66.6937 61.9217C67.532 62.765 71.1267 60.5509 74.7227 56.9764C78.3188 53.4018 80.5543 49.8205 79.7161 48.9772C78.8778 48.1338 75.2831 50.3479 71.6871 53.9225C70.5434 55.0592 69.5374 56.1967 68.7241 57.2466" stroke="#101828" stroke-width="0.4"/>
<path d="M63.4987 60.5954C63.7827 61.5106 64.1669 63.6352 63.4355 64.8124C62.5545 66.2309 63.3109 67.4684 64.6821 67.8258L64.6805 67.8335C64.7068 67.8389 64.7335 67.8411 64.7597 67.8457C64.7855 67.8517 64.8112 67.8603 64.8374 67.8657L64.8389 67.858C66.2396 68.0693 67.4218 67.2299 67.171 65.5793C66.9626 64.2091 68.1538 62.4079 68.7754 61.6787C67.8693 61.9138 66.8015 61.7861 66.0349 61.6345C65.2707 61.4718 64.2391 61.1685 63.4987 60.5954Z" fill="#2DA17D"/>
<path d="M63.4987 60.5954L63.3077 60.6547C63.2819 60.5713 63.313 60.4808 63.3847 60.431C63.4564 60.3813 63.5521 60.3838 63.6212 60.4372L63.4987 60.5954ZM63.4355 64.8124L63.2656 64.7069L63.2656 64.7068L63.4355 64.8124ZM64.6821 67.8258L64.7325 67.6323C64.8354 67.6591 64.8994 67.7618 64.878 67.866L64.6821 67.8258ZM64.6805 67.8335L64.6403 68.0294C64.5883 68.0187 64.5427 67.9879 64.5135 67.9436C64.4843 67.8993 64.4739 67.8452 64.4846 67.7932L64.6805 67.8335ZM64.7597 67.8457L64.7948 67.6486L64.805 67.6509L64.7597 67.8457ZM64.8374 67.8657L65.0333 67.9059C65.0111 68.0141 64.9054 68.0838 64.7972 68.0616L64.8374 67.8657ZM64.8389 67.858L64.643 67.8178C64.6644 67.7136 64.7636 67.6444 64.8688 67.6603L64.8389 67.858ZM67.171 65.5793L67.3688 65.5492L67.3688 65.5493L67.171 65.5793ZM68.7754 61.6787L68.7252 61.4851C68.8096 61.4632 68.8986 61.4986 68.9449 61.5726C68.9912 61.6466 68.9842 61.742 68.9276 61.8085L68.7754 61.6787ZM66.0349 61.6345L65.9961 61.8307L65.9933 61.8301L66.0349 61.6345ZM63.4987 60.5954L63.6897 60.5361C63.836 61.0074 64.0066 61.7839 64.0476 62.5955C64.0884 63.4004 64.0039 64.2765 63.6054 64.9179L63.4355 64.8124L63.2656 64.7068C63.5985 64.171 63.6876 63.3963 63.6481 62.6157C63.609 61.8419 63.4455 61.0986 63.3077 60.6547L63.4987 60.5954ZM63.4355 64.8124L63.6054 64.9179C63.194 65.5803 63.1787 66.1724 63.3951 66.6318C63.6146 67.0976 64.0903 67.4649 64.7325 67.6323L64.6821 67.8258L64.6316 68.0193C63.9026 67.8293 63.3145 67.3991 63.0333 66.8023C62.749 66.1989 62.796 65.463 63.2656 64.7069L63.4355 64.8124ZM64.6821 67.8258L64.878 67.866L64.8764 67.8737L64.6805 67.8335L64.4846 67.7932L64.4861 67.7856L64.6821 67.8258ZM64.6805 67.8335L64.7207 67.6375C64.7267 67.6388 64.7342 67.6399 64.7473 67.6417C64.7584 67.6433 64.7767 67.6456 64.7948 67.6488L64.7597 67.8457L64.7246 68.0426C64.7166 68.0412 64.7084 68.0401 64.693 68.038C64.6796 68.0362 64.6606 68.0335 64.6403 68.0294L64.6805 67.8335ZM64.7597 67.8457L64.805 67.6509C64.8229 67.6551 64.8407 67.6601 64.8516 67.6631C64.8644 67.6667 64.8717 67.6685 64.8776 67.6698L64.8374 67.8657L64.7972 68.0616C64.7769 68.0574 64.7583 68.0523 64.7452 68.0488C64.7303 68.0446 64.7223 68.0424 64.7144 68.0406L64.7597 67.8457ZM64.8374 67.8657L64.6415 67.8255L64.643 67.8178L64.8389 67.858L65.0349 67.8982L65.0333 67.9059L64.8374 67.8657ZM64.8389 67.858L64.8688 67.6603C65.5248 67.7592 66.1064 67.609 66.4916 67.2672C66.8713 66.9303 67.0904 66.3801 66.9733 65.6094L67.171 65.5793L67.3688 65.5493C67.5024 66.4291 67.2558 67.1239 66.757 67.5664C66.2636 68.0042 65.5538 68.1681 64.8091 68.0558L64.8389 67.858ZM67.171 65.5793L66.9733 65.6094C66.8598 64.8628 67.1276 64.0242 67.4824 63.3006C67.8402 62.5708 68.3031 61.9244 68.6232 61.549L68.7754 61.6787L68.9276 61.8085C68.6261 62.1621 68.1826 62.7809 67.8415 63.4766C67.4975 64.1784 67.2739 64.9256 67.3688 65.5492L67.171 65.5793ZM68.7754 61.6787L68.8256 61.8723C67.874 62.1192 66.769 61.9835 65.9961 61.8307L66.0349 61.6345L66.0737 61.4383C66.834 61.5886 67.8647 61.7084 68.7252 61.4851L68.7754 61.6787ZM66.0349 61.6345L65.9933 61.8301C65.2227 61.6661 64.1539 61.3555 63.3763 60.7535L63.4987 60.5954L63.6212 60.4372C64.3243 60.9815 65.3186 61.2776 66.0766 61.4389L66.0349 61.6345Z" fill="#101828"/>
<path opacity="0.14" fill-rule="evenodd" clip-rule="evenodd" d="M59.1211 44.6718C59.1706 44.7019 59.2209 44.7353 59.2719 44.7718C59.2698 44.8 59.2678 44.8284 59.266 44.8571C59.2174 44.7936 59.1691 44.7318 59.1211 44.6718ZM79.2756 48.7264C79.1004 48.7139 78.8974 48.7389 78.672 48.7963C78.6619 48.8375 78.6506 48.8794 78.6382 48.9221C78.4875 49.442 78.1702 50.0873 77.7168 50.8136C76.8093 52.2675 75.3473 54.061 73.5465 55.8511C71.7456 57.6413 66.7751 61.7373 66.7751 61.7373C66.7751 61.7373 66.8382 61.5391 66.492 62.2453C66.1446 62.9538 65.9073 63.7292 66.0079 64.391C66.1365 65.2366 65.899 65.8872 65.4376 66.2978C64.9838 66.7017 64.3248 66.863 63.6178 66.7632C63.6077 66.7653 63.5971 66.7657 63.5867 66.7636C63.5599 66.7581 63.5334 66.752 63.5073 66.746C63.4812 66.7413 63.4541 66.7365 63.427 66.7309C63.4162 66.7287 63.4066 66.7242 63.3982 66.7182C63.2852 66.6876 63.1762 66.651 63.0717 66.6088C63.0896 66.658 63.1097 66.7064 63.1319 66.7538C63.3898 67.3037 63.9316 67.7118 64.6205 67.8987C64.6289 67.9046 64.6385 67.9092 64.6492 67.9114C64.6764 67.9169 64.7034 67.9218 64.7296 67.9264C64.7557 67.9325 64.7822 67.9385 64.809 67.9441C64.8193 67.9462 64.8299 67.9458 64.84 67.9437C65.547 68.0435 66.206 67.8821 66.6599 67.4782C67.1213 67.0676 67.3588 66.417 67.2302 65.5714C67.1296 64.9097 67.3669 64.1342 67.7143 63.4257C68.0605 62.7196 68.5099 62.0922 68.8172 61.7317C68.8172 61.7317 69.3996 61.3607 69.7063 61.1718C71.1655 60.273 72.9679 58.8217 74.7687 57.0316C76.5696 55.2415 78.0316 53.4479 78.9391 51.9941C79.3925 51.2677 79.7098 50.6224 79.8605 50.1026C79.9358 49.8427 79.9707 49.6102 79.9578 49.4127C79.9449 49.2145 79.8837 49.0468 79.7624 48.9248C79.6411 48.8028 79.4738 48.7404 79.2756 48.7264Z" fill="#101828"/>
<path d="M66.4153 79.2454C66.6017 74.7129 70.1238 62.3546 76.7191 59.5686C77.2325 65.7543 74.6903 80.427 66.4153 79.2454Z" fill="#2DA17D"/>
<path d="M66.6811 76.9607C67.6326 71.4764 71.0338 61.9689 76.7166 59.5683C77.2141 65.5611 74.8435 79.5197 67.1705 79.3102" stroke="#101828" stroke-width="0.4"/>
<path d="M68.5515 76.7857C69.3507 75.8173 71.1926 71.5404 72.3732 68.7335C73.5538 65.9266 75.3957 61.6497 76.1949 60.6813" stroke="#101828" stroke-width="0.4"/>
<path d="M46.1411 40.0781C46.1165 50.3927 44.3057 59.2875 44.4764 59.2364C44.4764 59.2364 38.5729 52.6474 38.5967 42.3355C38.6213 32.0209 40.4322 23.1261 40.2614 23.1771C40.4336 23.1256 46.1649 29.7662 46.1411 40.0781Z" fill="#2DA17D" stroke="#101828" stroke-width="0.4" stroke-linejoin="round"/>
<path d="M44.3765 59.1005C44.3765 59.1005 41.928 48.0358 42.2158 38.833C42.5036 29.6302 40.2603 23.1765 40.2603 23.1765" fill="#2DA17D"/>
<path d="M44.3765 59.1005C44.3765 59.1005 41.928 48.0358 42.2158 38.833C42.5036 29.6302 40.2603 23.1765 40.2603 23.1765" stroke="#101828" stroke-width="0.4"/>
<path d="M48.2892 83.8374C43.4933 75.8999 38.0921 55.3013 54.4537 35.9898L54.9862 36.4403L55.5182 36.8916C39.6404 55.6321 44.9126 75.551 49.4833 83.1157L48.8859 83.4763L48.2892 83.8374Z" fill="#00A47B"/>
<path d="M48.2892 83.8374L48.118 83.9408L48.2215 84.1121L48.3927 84.0085L48.2892 83.8374ZM54.4537 35.9898L54.5829 35.8371L54.4303 35.708L54.3011 35.8605L54.4537 35.9898ZM54.9862 36.4403L55.1156 36.2878L55.1154 36.2876L54.9862 36.4403ZM55.5182 36.8916L55.6708 37.0209L55.8 36.8684L55.6476 36.7391L55.5182 36.8916ZM49.4833 83.1157L49.5867 83.287L49.758 83.1836L49.6545 83.0123L49.4833 83.1157ZM48.8859 83.4763L48.7825 83.305L48.7823 83.3052L48.8859 83.4763ZM48.2892 83.8374L48.4603 83.734C43.6967 75.8498 38.314 55.3487 54.6063 36.1191L54.4537 35.9898L54.3011 35.8605C37.8701 55.2539 43.2899 75.95 48.118 83.9408L48.2892 83.8374ZM54.4537 35.9898L54.3245 36.1425L54.8571 36.593L54.9862 36.4403L55.1154 36.2876L54.5829 35.8371L54.4537 35.9898ZM54.9862 36.4403L54.8569 36.5928L55.3888 37.0441L55.5182 36.8916L55.6476 36.7391L55.1156 36.2878L54.9862 36.4403ZM55.5182 36.8916L55.3656 36.7623C39.4185 55.5846 44.7092 75.6009 49.3121 83.2192L49.4833 83.1157L49.6545 83.0123C45.1161 75.501 39.8623 55.6796 55.6708 37.0209L55.5182 36.8916ZM49.4833 83.1157L49.38 82.9445L48.7825 83.305L48.8859 83.4763L48.9892 83.6475L49.5867 83.287L49.4833 83.1157ZM48.8859 83.4763L48.7823 83.3052L48.1856 83.6663L48.2892 83.8374L48.3927 84.0085L48.9894 83.6474L48.8859 83.4763Z" fill="#101828"/>
<path d="M51.7975 16.0131C53.0147 17.1672 58.5421 24.2823 57.388 25.4995C56.2338 26.7167 48.8351 21.575 47.618 20.4208C46.4008 19.2667 46.3497 17.3443 47.5038 16.1272C48.658 14.91 50.5803 14.8589 51.7975 16.0131Z" fill="#EBCFF6" stroke="#101828" stroke-width="0.4"/>
<path d="M58.1882 13.9343C58.6652 15.5424 59.8946 24.468 58.2864 24.945C56.6783 25.422 52.8417 17.2699 52.3647 15.6617C51.8877 14.0536 52.8046 12.3633 54.4127 11.8863C56.0208 11.4092 57.7112 12.3262 58.1882 13.9343Z" fill="#EBCFF6" stroke="#EBCFF6" stroke-width="0.4"/>
<path d="M55.1631 21.5449C56.3117 23.5263 57.5395 25.1666 58.2864 24.945C59.8946 24.468 58.6652 15.5424 58.1882 13.9343C57.7112 12.3262 56.0208 11.4092 54.4127 11.8863C52.8046 12.3633 51.8877 14.0536 52.3647 15.6617C52.5094 16.1495 52.9632 17.2394 53.5702 18.508" stroke="#101828" stroke-width="0.4"/>
<path d="M64.7734 15.3331C64.3825 16.9643 60.9843 25.3087 59.3531 24.9178C57.7219 24.5269 58.4754 15.5486 58.8664 13.9174C59.2573 12.2862 60.8966 11.2808 62.5277 11.6717C64.1589 12.0627 65.1643 13.7019 64.7734 15.3331Z" fill="#EBCFF6" stroke="#101828" stroke-width="0.4"/>
<path d="M69.7682 19.8307C68.614 21.0479 61.4989 26.5753 60.2817 25.4212C59.0646 24.267 64.2063 16.8683 65.3604 15.6512C66.5146 14.434 68.4369 14.3829 69.6541 15.537C70.8713 16.6912 70.9223 18.6135 69.7682 19.8307Z" fill="#EBCFF6" stroke="#EBCFF6" stroke-width="0.4"/>
<path d="M63.2949 18.4173C64.1694 17.1212 64.9807 16.0516 65.3604 15.6512C66.5146 14.434 68.4369 14.3829 69.6541 15.537C70.8713 16.6912 70.9223 18.6135 69.7682 19.8307C68.614 21.0479 61.4989 26.5753 60.2817 25.4212C59.8164 24.9799 60.2805 23.6261 61.0958 22.0538" stroke="#101828" stroke-width="0.4"/>
<path d="M71.8431 26.2253C70.235 26.7023 61.3094 27.9317 60.8323 26.3236C60.3553 24.7154 68.5075 20.8788 70.1156 20.4018C71.7237 19.9248 73.4141 20.8417 73.8911 22.4498C74.3681 24.0579 73.4512 25.7483 71.8431 26.2253Z" fill="#EBCFF6" stroke="#101828" stroke-width="0.4"/>
<path d="M70.4482 32.7988C68.817 32.4078 60.4725 29.0097 60.8635 27.3785C61.2544 25.7473 70.2327 26.5008 71.8639 26.8918C73.495 27.2827 74.5005 28.9219 74.1095 30.5531C73.7186 32.1843 72.0793 33.1897 70.4482 32.7988Z" fill="#EBCFF6" stroke="#EBCFF6" stroke-width="0.4"/>
<path d="M65.118 26.3751C62.9323 26.3962 61.0384 26.6487 60.8635 27.3785C60.4725 29.0097 68.817 32.4078 70.4482 32.7988C72.0793 33.1897 73.7186 32.1843 74.1095 30.5531C74.5005 28.9219 73.495 27.2827 71.8639 26.8918C71.3761 26.7748 70.2313 26.6255 68.8556 26.5172" stroke="#101828" stroke-width="0.4"/>
<path d="M65.9457 37.7946C64.7285 36.6404 59.2011 29.5253 60.3552 28.3081C61.5094 27.0909 68.908 32.2326 70.1252 33.3868C71.3424 34.5409 71.3935 36.4633 70.2393 37.6805C69.0852 38.8976 67.1628 38.9487 65.9457 37.7946Z" fill="#EBCFF6" stroke="#EBCFF6" stroke-width="0.4"/>
<path d="M63.6049 29.0616C63.402 28.9579 63.2031 28.8605 63.0097 28.7704C61.7525 28.1853 60.728 27.9149 60.3552 28.3081C59.2011 29.5253 64.7285 36.6404 65.9457 37.7946C67.1628 38.9487 69.0852 38.8976 70.2393 37.6805C71.3935 36.4633 71.3424 34.5409 70.1252 33.3868C69.7318 33.0138 68.6927 32.2242 67.4274 31.3674" stroke="#101828" stroke-width="0.4"/>
<path d="M59.5471 39.8733C59.0701 38.2652 57.8408 29.3396 59.4489 28.8626C61.057 28.3856 64.8936 36.5378 65.3706 38.1459C65.8477 39.754 64.9307 41.4443 63.3226 41.9214C61.7145 42.3984 60.0242 41.4815 59.5471 39.8733Z" fill="#EBCFF6" stroke="#101828" stroke-width="0.4"/>
<path d="M52.9766 38.4775C53.3675 36.8463 56.7657 28.5018 58.3969 28.8928C60.0281 29.2837 59.2746 38.262 58.8836 39.8932C58.4927 41.5243 56.8534 42.5298 55.2223 42.1388C53.5911 41.7479 52.5857 40.1086 52.9766 38.4775Z" fill="#EBCFF6" stroke="#101828" stroke-width="0.4"/>
<path d="M47.9808 33.9789C49.135 32.7617 56.2501 27.2343 57.4673 28.3884C58.6845 29.5426 53.5428 36.9412 52.3886 38.1584C51.2345 39.3756 49.3121 39.4267 48.0949 38.2725C46.8778 37.1184 46.8267 35.196 47.9808 33.9789Z" fill="#EBCFF6" stroke="#EBCFF6" stroke-width="0.4"/>
<path d="M56.2599 32.4841C57.3063 30.6154 58.0032 28.8966 57.4673 28.3884C56.2501 27.2343 49.135 32.7617 47.9808 33.9789C46.8267 35.196 46.8778 37.1184 48.0949 38.2725C49.3121 39.4267 51.2345 39.3756 52.3886 38.1584C52.7285 37.7999 53.4144 36.9052 54.1818 35.7916" stroke="#101828" stroke-width="0.4"/>
<path d="M45.906 27.5843C47.5141 27.1072 56.4397 25.8779 56.9167 27.486C57.3937 29.0941 49.2415 32.9307 47.6334 33.4077C46.0253 33.8848 44.335 32.9679 43.8579 31.3597C43.3809 29.7516 44.2978 28.0613 45.906 27.5843Z" fill="#EBCFF6" stroke="#101828" stroke-width="0.4"/>
<path d="M47.295 21.0079C48.9262 21.3988 57.2706 24.797 56.8797 26.4282C56.4888 28.0593 47.5105 27.3058 45.8793 26.9149C44.2481 26.524 43.2427 24.8847 43.6336 23.2535C44.0246 21.6223 45.6638 20.6169 47.295 21.0079Z" fill="#EBCFF6" stroke="#EBCFF6" stroke-width="0.4"/>
<path d="M49.3368 27.3227C47.7645 27.2135 46.4193 27.0443 45.8793 26.9149C44.2481 26.524 43.2427 24.8847 43.6336 23.2535C44.0246 21.6223 45.6638 20.6169 47.295 21.0079C48.9262 21.3988 57.2706 24.797 56.8797 26.4282C56.7268 27.0661 55.2603 27.3393 53.4335 27.4121" stroke="#101828" stroke-width="0.4"/>
<circle cx="58.6009" cy="26.9102" r="3.84575" transform="rotate(-46.5224 58.6009 26.9102)" fill="#F8DA92" stroke="#101828" stroke-width="0.4"/>
<path opacity="0.14" d="M61.3929 29.5561C62.5259 28.3611 62.7418 26.6295 62.0631 25.2305C62.0607 26.1773 61.7107 27.1249 61.0079 27.8661C59.5465 29.4073 57.1124 29.4721 55.5711 28.0106C55.2249 27.6823 54.953 27.3048 54.7564 26.8994C54.7538 27.9212 55.1561 28.942 55.9561 29.7006C57.4974 31.1621 59.9315 31.0973 61.3929 29.5561Z" fill="#101828"/>
<path d="M44.4049 72.4479C45.4833 67.3485 51.9826 52.9831 60.2989 48.8558C59.7341 55.6974 53.9536 72.5019 44.4049 72.4479Z" fill="#2DA17D"/>
<path d="M45.1553 69.8512C47.3175 63.5698 53.1343 52.4122 60.3001 48.8559C59.7528 55.4841 54.3103 71.4634 45.2885 72.4047" stroke="#101828" stroke-width="0.4"/>
<ellipse cx="2.03793" cy="8.69002" rx="2.03793" ry="8.69002" transform="matrix(-0.758 0.652255 0.652255 0.758 27.4102 54.3545)" fill="#CD90E3" stroke="#101828" stroke-width="0.4"/>
<ellipse cx="33.5662" cy="60.8845" rx="2.03793" ry="8.69002" transform="rotate(-27.6809 33.5662 60.8845)" fill="#CD90E3" stroke="#101828" stroke-width="0.4"/>
<ellipse cx="32.4212" cy="61.3841" rx="2.03793" ry="8.69002" transform="rotate(-34.1964 32.4212 61.3841)" fill="#EBCFF6" stroke="#101828" stroke-width="0.4"/>
<ellipse cx="2.03793" cy="8.69002" rx="2.03793" ry="8.69002" transform="matrix(-0.653469 0.756954 0.756954 0.653469 25.4395 55.8047)" fill="#EBCFF6" stroke="#101828" stroke-width="0.4"/>
<ellipse cx="34.5681" cy="60.3903" rx="2.03793" ry="8.69002" transform="rotate(-19.1964 34.5681 60.3903)" fill="#EBCFF6"/>
<path d="M37.4254 68.5971C38.4884 68.227 38.0708 64.2527 36.4927 59.7202C34.9146 55.1877 32.7737 51.8134 31.7107 52.1834C30.6478 52.5535 31.0654 56.5278 32.6435 61.0604C32.8933 61.7781 33.1573 62.4667 33.4289 63.1161C33.6491 63.6424 33.8742 64.1429 34.1008 64.612" stroke="#101828" stroke-width="0.4"/>
<path d="M37.8417 64.7706C38.0533 65.8511 38.7892 68.2729 40.0417 69.3184C41.5925 70.6125 41.5032 72.2442 40.3753 73.0411L40.3769 73.0436C40.3667 73.0505 40.3555 73.056 40.3451 73.0628C40.3441 73.0635 40.3435 73.0651 40.3425 73.0658L40.3419 73.065C39.1857 73.8202 37.6356 73.3023 37.0036 71.384C36.4928 69.8345 34.5122 68.2585 33.5855 67.6639C34.5298 67.6334 35.4334 67.1464 36.0421 66.7372L36.2779 66.5699C36.8457 66.1525 37.5064 65.5433 37.8417 64.7706Z" fill="#2DA17D"/>
<path d="M37.8417 64.7706L38.038 64.7322C38.0211 64.6462 37.9503 64.5812 37.8633 64.5718C37.7762 64.5623 37.6931 64.6106 37.6582 64.691L37.8417 64.7706ZM40.0417 69.3184L39.9136 69.4719L39.9136 69.472L40.0417 69.3184ZM40.3753 73.0411L40.2599 72.8778C40.1708 72.9407 40.1486 73.0634 40.2099 73.1536L40.3753 73.0411ZM40.3769 73.0436L40.4893 73.209C40.5807 73.1469 40.6044 73.0225 40.5424 72.9312L40.3769 73.0436ZM40.3451 73.0628L40.2355 72.8955L40.2325 72.8976L40.3451 73.0628ZM40.3425 73.0658L40.177 73.1782C40.2391 73.2696 40.3635 73.2933 40.4549 73.2312L40.3425 73.0658ZM40.3419 73.065L40.5073 72.9526C40.446 72.8624 40.3238 72.8379 40.2325 72.8976L40.3419 73.065ZM37.0036 71.384L37.1935 71.3214L37.1935 71.3214L37.0036 71.384ZM33.5855 67.6639L33.579 67.464C33.4915 67.4668 33.416 67.5263 33.3927 67.6107C33.3694 67.6952 33.4038 67.7849 33.4775 67.8322L33.5855 67.6639ZM36.0421 66.7372L36.1538 66.9033L36.1579 66.9004L36.0421 66.7372ZM36.2779 66.5699L36.3937 66.7331L36.3964 66.7311L36.2779 66.5699ZM37.8417 64.7706L37.6454 64.809C37.7536 65.3613 37.9942 66.2502 38.3671 67.1353C38.7378 68.0154 39.2501 68.9181 39.9136 69.4719L40.0417 69.3184L40.1699 69.1649C39.5809 68.6732 39.0989 67.8423 38.7357 66.98C38.3745 66.1227 38.1414 65.2604 38.038 64.7322L37.8417 64.7706ZM40.0417 69.3184L39.9136 69.472C40.6563 70.0918 40.9858 70.7744 41.0132 71.3753C41.0405 71.9738 40.7704 72.5171 40.2599 72.8778L40.3753 73.0411L40.4907 73.2045C41.1081 72.7683 41.4466 72.0972 41.4128 71.3571C41.3791 70.6194 40.9779 69.8391 40.1699 69.1649L40.0417 69.3184ZM40.3753 73.0411L40.2099 73.1536L40.2115 73.156L40.3769 73.0436L40.5424 72.9312L40.5407 72.9287L40.3753 73.0411ZM40.3769 73.0436L40.2645 72.8781C40.2664 72.8769 40.2671 72.8766 40.2613 72.8799C40.2575 72.8821 40.2465 72.8883 40.2355 72.8955L40.3451 73.0628L40.4548 73.2301C40.4541 73.2306 40.4538 73.2306 40.4608 73.2266C40.4658 73.2237 40.4772 73.2172 40.4893 73.209L40.3769 73.0436ZM40.3451 73.0628L40.2325 72.8976C40.2218 72.9048 40.2133 72.9121 40.2067 72.9184C40.2002 72.9246 40.1951 72.9303 40.1915 72.9346C40.1879 72.9388 40.1852 72.9424 40.1836 72.9446C40.1828 72.9457 40.1821 72.9466 40.1817 72.9471C40.1815 72.9474 40.1813 72.9477 40.1812 72.9478C40.1811 72.948 40.181 72.9481 40.181 72.9481C40.1807 72.9485 40.1818 72.9471 40.183 72.9453C40.1844 72.9435 40.187 72.9401 40.1903 72.9361C40.1938 72.9321 40.1986 72.9266 40.205 72.9206C40.2113 72.9146 40.2196 72.9075 40.23 72.9004L40.3425 73.0658L40.4549 73.2312C40.4655 73.224 40.4741 73.2167 40.4807 73.2104C40.4873 73.2042 40.4924 73.1985 40.496 73.1942C40.4996 73.1899 40.5023 73.1863 40.5039 73.1841C40.5048 73.183 40.5054 73.1821 40.5059 73.1815C40.5062 73.181 40.5066 73.1805 40.5066 73.1805C40.5069 73.1801 40.5059 73.1815 40.5046 73.1832C40.5032 73.1851 40.5007 73.1884 40.4973 73.1924C40.494 73.1964 40.4891 73.2018 40.4828 73.2078C40.4765 73.2139 40.4682 73.221 40.4578 73.228L40.3451 73.0628ZM40.3425 73.0658L40.5079 72.9534L40.5073 72.9526L40.3419 73.065L40.1765 73.1774L40.177 73.1782L40.3425 73.0658ZM40.3419 73.065L40.2325 72.8976C39.7092 73.2393 39.1046 73.2904 38.5582 73.0446C38.0096 72.7979 37.4963 72.2402 37.1935 71.3214L37.0036 71.384L36.8136 71.4466C37.143 72.4461 37.7207 73.1065 38.3941 73.4094C39.0698 73.7134 39.8184 73.6458 40.4513 73.2325L40.3419 73.065ZM37.0036 71.384L37.1935 71.3214C36.9229 70.5006 36.2723 69.6919 35.5905 69.0231C34.905 68.3505 34.1672 67.7995 33.6935 67.4956L33.5855 67.6639L33.4775 67.8322C33.9305 68.1229 34.6463 68.6572 35.3104 69.3086C35.9784 69.9639 36.5734 70.718 36.8137 71.4466L37.0036 71.384ZM33.5855 67.6639L33.592 67.8638C34.5941 67.8314 35.5366 67.318 36.1537 66.9032L36.0421 66.7372L35.9306 66.5712C35.3302 66.9748 34.4655 67.4353 33.579 67.464L33.5855 67.6639ZM36.0421 66.7372L36.1579 66.9004L36.3937 66.733L36.2779 66.5699L36.1622 66.4068L35.9264 66.5741L36.0421 66.7372ZM36.2779 66.5699L36.3964 66.7311C36.9743 66.3062 37.6688 65.6713 38.0252 64.8502L37.8417 64.7706L37.6582 64.691C37.3439 65.4153 36.717 65.9989 36.1595 66.4088L36.2779 66.5699Z" fill="#101828"/>
<g opacity="0.15">
<path d="M31.3486 52.4367C31.4391 52.2852 31.5547 52.1774 31.6986 52.1273C31.8483 52.0752 32.0129 52.0907 32.185 52.1599C32.3568 52.229 32.5396 52.353 32.7299 52.523C33.1104 52.8633 33.5304 53.3971 33.9643 54.081C34.8326 55.4496 35.7642 57.4306 36.5543 59.6997C37.1916 61.5302 37.6401 63.2711 37.8786 64.7219C37.8899 64.7303 37.8981 64.7425 37.9009 64.7569C38.006 65.2936 38.2419 66.1655 38.6073 67.0328C38.9733 67.9015 39.4662 68.7581 40.0818 69.2718C40.8677 69.9276 41.2435 70.6747 41.2741 71.3648C41.3046 72.0534 40.9909 72.6778 40.413 73.0866C40.411 73.0884 40.4089 73.0903 40.4067 73.0918C40.4035 73.094 40.4003 73.0959 40.3979 73.0974L40.386 73.1055C40.3837 73.1072 40.3807 73.1095 40.3776 73.1116C40.3753 73.1131 40.3728 73.1144 40.3704 73.1155C39.7775 73.5023 39.0815 73.564 38.4526 73.2821C38.3375 73.2304 38.225 73.1672 38.1157 73.0927C38.339 73.0375 38.557 72.9428 38.7626 72.8087C38.765 72.8075 38.7674 72.8063 38.7697 72.8048C38.7728 72.8026 38.7758 72.8004 38.7782 72.7987L38.79 72.7906C38.7925 72.789 38.7957 72.7871 38.7988 72.785C38.8011 72.7835 38.8031 72.7816 38.8051 72.7798C39.3831 72.371 39.6968 71.7465 39.6663 71.058C39.6357 70.3678 39.2598 69.6208 38.474 68.965C37.8584 68.4512 37.3654 67.5947 36.9994 66.726C36.634 65.8587 36.3982 64.9868 36.2931 64.4501C36.2902 64.4356 36.282 64.4235 36.2708 64.4151C36.0322 62.9643 35.5837 61.2234 34.9464 59.3929C34.1564 57.1238 33.2248 55.1428 32.3564 53.7742C32.007 53.2235 31.6666 52.7701 31.3486 52.4367Z" fill="#101828"/>
<path d="M29.4819 53.1515C29.4747 53.2431 29.4696 53.3388 29.4668 53.4383C29.4146 53.3931 29.363 53.35 29.3123 53.309C29.36 53.2443 29.4165 53.1914 29.4819 53.1515Z" fill="#101828"/>
<path d="M27.5 54.252C27.4784 54.2373 27.4565 54.2235 27.4352 54.2094C27.4536 54.1913 27.4733 54.1745 27.4941 54.159C27.4958 54.1896 27.4977 54.2206 27.5 54.252Z" fill="#101828"/>
</g>
<path d="M88.6633 66.248V110.176C88.6633 111.143 87.9953 111.981 87.0546 112.196L52.4062 120.116L48.4258 98.1927L52.4062 74.5347L59.7087 75.2564L68.6379 70.8249L88.6633 66.248Z" fill="#E7A200" stroke="#101828" stroke-width="0.4" stroke-linejoin="round"/>
<mask id="mask0_10283_1423" style="mask-type:alpha" maskUnits="userSpaceOnUse" x="48" y="66" width="41" height="55">
<path d="M88.6652 66.2471V110.175C88.6652 111.142 87.9972 111.98 87.0566 112.196L52.4082 120.115L48.4277 98.1917L52.4082 74.5337L59.7107 75.2554L68.6398 70.8239L88.6652 66.2471Z" fill="#E7A200" stroke="#101828" stroke-width="0.4" stroke-linejoin="round"/>
</mask>
<g mask="url(#mask0_10283_1423)">
<path opacity="0.1" d="M47.6318 75.0349L63.3012 90.5421C63.4183 90.6579 63.5871 90.7064 63.7486 90.6704L106.118 81.2328C106.489 81.1502 106.623 80.695 106.354 80.4291L90.9912 65.2275L47.6318 75.0349Z" fill="#101828" stroke="#101828" stroke-width="0.4" stroke-linejoin="round"/>
</g>
<path d="M52.4033 74.5347L65.506 87.6374C65.6039 87.7353 65.7451 87.7762 65.8801 87.7458L101.31 79.7716C101.62 79.7018 101.731 79.3172 101.507 79.0925L88.6603 66.248L52.4033 74.5347Z" fill="#FECC2F" stroke="#101828" stroke-width="0.4" stroke-linejoin="round"/>
<path d="M16.1445 66.2471L22.1992 67.6318V69.0986L36.4541 75.8154L52.4014 74.5342V120.115L22.1992 113.212V113.213L17.7529 112.195C16.8126 111.979 16.1447 111.142 16.1445 110.176V66.2471Z" fill="#FECC2F"/>
<path d="M16.1445 66.2471L16.1891 66.0521C16.1298 66.0385 16.0675 66.0527 16.0199 66.0907C15.9723 66.1286 15.9445 66.1862 15.9445 66.2471H16.1445ZM22.1992 67.6318H22.3992C22.3992 67.5386 22.3347 67.4577 22.2438 67.4369L22.1992 67.6318ZM22.1992 69.0986H21.9992C21.9992 69.1761 22.0439 69.2465 22.114 69.2796L22.1992 69.0986ZM36.4541 75.8154L36.3689 75.9964C36.4004 76.0112 36.4353 76.0176 36.4701 76.0148L36.4541 75.8154ZM52.4014 74.5342H52.6014C52.6014 74.4784 52.578 74.4251 52.537 74.3872C52.496 74.3493 52.441 74.3304 52.3853 74.3348L52.4014 74.5342ZM52.4014 120.115L52.3568 120.31C52.4161 120.324 52.4784 120.31 52.526 120.272C52.5736 120.234 52.6014 120.176 52.6014 120.115H52.4014ZM22.1992 113.212L22.2438 113.017C22.1844 113.003 22.1221 113.018 22.0745 113.056C22.0269 113.093 21.9992 113.151 21.9992 113.212H22.1992ZM22.1992 113.213L22.1546 113.408C22.214 113.421 22.2763 113.407 22.3239 113.369C22.3715 113.331 22.3992 113.274 22.3992 113.213H22.1992ZM17.7529 112.195L17.7082 112.39L17.7083 112.39L17.7529 112.195ZM16.1445 110.176H15.9445V110.176L16.1445 110.176ZM16.1445 66.2471L16.0999 66.442L22.1546 67.8268L22.1992 67.6318L22.2438 67.4369L16.1891 66.0521L16.1445 66.2471ZM22.1992 67.6318H21.9992V69.0986H22.1992H22.3992V67.6318H22.1992ZM22.1992 69.0986L22.114 69.2796L36.3689 75.9964L36.4541 75.8154L36.5394 75.6345L22.2845 68.9177L22.1992 69.0986ZM36.4541 75.8154L36.4701 76.0148L52.4174 74.7335L52.4014 74.5342L52.3853 74.3348L36.4381 75.6161L36.4541 75.8154ZM52.4014 74.5342H52.2014V120.115H52.4014H52.6014V74.5342H52.4014ZM52.4014 120.115L52.4459 119.92L22.2438 113.017L22.1992 113.212L22.1547 113.407L52.3568 120.31L52.4014 120.115ZM22.1992 113.212H21.9992V113.213H22.1992H22.3992V113.212H22.1992ZM22.1992 113.213L22.2438 113.018L17.7975 112L17.7529 112.195L17.7083 112.39L22.1546 113.408L22.1992 113.213ZM17.7529 112.195L17.7977 112C16.9482 111.805 16.3447 111.049 16.3445 110.176L16.1445 110.176L15.9445 110.176C15.9448 111.236 16.6771 112.153 17.7082 112.39L17.7529 112.195ZM16.1445 110.176H16.3445V66.2471H16.1445H15.9445V110.176H16.1445Z" fill="#101828"/>
<mask id="mask1_10283_1423" style="mask-type:alpha" maskUnits="userSpaceOnUse" x="15" y="66" width="38" height="55">
<path d="M16.1416 66.2461L22.1963 67.6309V69.0977L36.4512 75.8145L52.3984 74.5332V120.114L22.1963 113.211V113.212L17.75 112.194C16.8097 111.978 16.1418 111.141 16.1416 110.175V66.2461Z" fill="#FECC2F"/>
<path d="M16.1416 66.2461L16.1862 66.0511C16.1268 66.0376 16.0645 66.0518 16.0169 66.0897C15.9693 66.1276 15.9416 66.1852 15.9416 66.2461H16.1416ZM22.1963 67.6309H22.3963C22.3963 67.5376 22.3318 67.4567 22.2409 67.4359L22.1963 67.6309ZM22.1963 69.0977H21.9963C21.9963 69.1751 22.041 69.2456 22.111 69.2786L22.1963 69.0977ZM36.4512 75.8145L36.3659 75.9954C36.3975 76.0103 36.4324 76.0166 36.4672 76.0138L36.4512 75.8145ZM52.3984 74.5332H52.5984C52.5984 74.4774 52.5751 74.4241 52.5341 74.3862C52.4931 74.3484 52.4381 74.3294 52.3824 74.3338L52.3984 74.5332ZM52.3984 120.114L52.3539 120.309C52.4132 120.323 52.4755 120.309 52.5231 120.271C52.5707 120.233 52.5984 120.175 52.5984 120.114H52.3984ZM22.1963 113.211L22.2409 113.016C22.1815 113.002 22.1192 113.017 22.0716 113.055C22.024 113.092 21.9963 113.15 21.9963 113.211H22.1963ZM22.1963 113.212L22.1517 113.407C22.211 113.42 22.2733 113.406 22.3209 113.368C22.3686 113.33 22.3963 113.273 22.3963 113.212H22.1963ZM17.75 112.194L17.7052 112.389L17.7054 112.389L17.75 112.194ZM16.1416 110.175H15.9416V110.175L16.1416 110.175ZM16.1416 66.2461L16.097 66.4411L22.1517 67.8258L22.1963 67.6309L22.2409 67.4359L16.1862 66.0511L16.1416 66.2461ZM22.1963 67.6309H21.9963V69.0977H22.1963H22.3963V67.6309H22.1963ZM22.1963 69.0977L22.111 69.2786L36.3659 75.9954L36.4512 75.8145L36.5364 75.6335L22.2815 68.9167L22.1963 69.0977ZM36.4512 75.8145L36.4672 76.0138L52.4145 74.7326L52.3984 74.5332L52.3824 74.3338L36.4352 75.6151L36.4512 75.8145ZM52.3984 74.5332H52.1984V120.114H52.3984H52.5984V74.5332H52.3984ZM52.3984 120.114L52.443 119.919L22.2409 113.016L22.1963 113.211L22.1517 113.406L52.3539 120.309L52.3984 120.114ZM22.1963 113.211H21.9963V113.212H22.1963H22.3963V113.211H22.1963ZM22.1963 113.212L22.2409 113.017L17.7946 111.999L17.75 112.194L17.7054 112.389L22.1517 113.407L22.1963 113.212ZM17.75 112.194L17.7948 111.999C16.9453 111.804 16.3418 111.048 16.3416 110.175L16.1416 110.175L15.9416 110.175C15.9418 111.235 16.6742 112.152 17.7052 112.389L17.75 112.194ZM16.1416 110.175H16.3416V66.2461H16.1416H15.9416V110.175H16.1416Z" fill="#101828"/>
</mask>
<g mask="url(#mask1_10283_1423)">
<g opacity="0.1">
<path d="M21.7168 66.916H21.5996L56.582 74.9121L41.2676 90.2256C41.1533 90.3397 40.9887 90.3879 40.8311 90.3525L6.25293 82.5693L6.25195 82.5713L-0.576172 81.0332C-0.936988 80.9507 -1.06954 80.5026 -0.805664 80.2383L14.208 65.2266L21.7168 66.916Z" fill="#101828"/>
<path d="M21.7168 66.916V67.116C21.8187 67.116 21.9043 67.0394 21.9156 66.9381C21.9268 66.8368 21.8601 66.7433 21.7607 66.7209L21.7168 66.916ZM21.5996 66.916V66.716C21.4978 66.716 21.4123 66.7925 21.4009 66.8936C21.3895 66.9947 21.4558 67.0883 21.555 67.111L21.5996 66.916ZM56.582 74.9121L56.7234 75.0535C56.7749 75.0021 56.7944 74.9267 56.7742 74.8568C56.7541 74.7868 56.6975 74.7334 56.6266 74.7171L56.582 74.9121ZM41.2676 90.2256L41.4089 90.3671L41.409 90.367L41.2676 90.2256ZM40.8311 90.3525L40.7871 90.5477L40.7873 90.5477L40.8311 90.3525ZM6.25293 82.5693L6.29685 82.3742C6.20712 82.354 6.11518 82.3976 6.07404 82.4799L6.25293 82.5693ZM6.25195 82.5713L6.208 82.7664C6.29774 82.7866 6.3897 82.743 6.43084 82.6607L6.25195 82.5713ZM-0.576172 81.0332L-0.62074 81.2282L-0.620122 81.2283L-0.576172 81.0332ZM-0.805664 80.2383L-0.947076 80.0969L-0.9472 80.097L-0.805664 80.2383ZM14.208 65.2266L14.2519 65.0314C14.185 65.0164 14.1151 65.0367 14.0666 65.0851L14.208 65.2266ZM21.7168 66.916V66.716H21.5996V66.916V67.116H21.7168V66.916ZM21.5996 66.916L21.555 67.111L56.5375 75.1071L56.582 74.9121L56.6266 74.7171L21.6442 66.721L21.5996 66.916ZM56.582 74.9121L56.4406 74.7707L41.1262 90.0842L41.2676 90.2256L41.409 90.367L56.7234 75.0535L56.582 74.9121ZM41.2676 90.2256L41.1262 90.0841C41.0602 90.1501 40.9652 90.1777 40.8748 90.1574L40.8311 90.3525L40.7873 90.5477C41.0121 90.5981 41.2465 90.5293 41.4089 90.3671L41.2676 90.2256ZM40.8311 90.3525L40.875 90.1574L6.29685 82.3742L6.25293 82.5693L6.20901 82.7645L40.7871 90.5477L40.8311 90.3525ZM6.25293 82.5693L6.07404 82.4799L6.07307 82.4818L6.25195 82.5713L6.43084 82.6607L6.43182 82.6588L6.25293 82.5693ZM6.25195 82.5713L6.2959 82.3762L-0.532222 80.8381L-0.576172 81.0332L-0.620122 81.2283L6.208 82.7664L6.25195 82.5713ZM-0.576172 81.0332L-0.531604 80.8382C-0.740605 80.7905 -0.815896 80.5316 -0.664128 80.3796L-0.805664 80.2383L-0.9472 80.097C-1.32318 80.4736 -1.13337 81.111 -0.62074 81.2282L-0.576172 81.0332ZM-0.805664 80.2383L-0.664252 80.3797L14.3494 65.368L14.208 65.2266L14.0666 65.0851L-0.947076 80.0969L-0.805664 80.2383ZM14.208 65.2266L14.1641 65.4217L21.6729 67.1111L21.7168 66.916L21.7607 66.7209L14.2519 65.0314L14.208 65.2266Z" fill="#101828"/>
</g>
</g>
<path d="M22.5762 67.6924H22.4756L52.4072 74.5332L39.3047 87.6367C39.2069 87.7344 39.0655 87.7754 38.9307 87.7451L9.34375 81.0859V81.0869L3.50098 79.7715C3.19234 79.7007 3.07962 79.3169 3.30566 79.0908L16.1514 66.2471L22.5762 67.6924Z" fill="#FECC2F"/>
<path d="M22.5762 67.6924V67.8924C22.6781 67.8924 22.7637 67.8158 22.7749 67.7145C22.7862 67.6132 22.7195 67.5196 22.6201 67.4973L22.5762 67.6924ZM22.4756 67.6924V67.4924C22.3738 67.4924 22.2883 67.5688 22.2768 67.67C22.2654 67.7711 22.3318 67.8647 22.431 67.8874L22.4756 67.6924ZM52.4072 74.5332L52.5487 74.6746C52.6001 74.6232 52.6196 74.5478 52.5994 74.4779C52.5793 74.4079 52.5227 74.3544 52.4518 74.3382L52.4072 74.5332ZM39.3047 87.6367L39.446 87.7782L39.4461 87.7781L39.3047 87.6367ZM38.9307 87.7451L38.8867 87.9402L38.8868 87.9403L38.9307 87.7451ZM9.34375 81.0859L9.38767 80.8908C9.32839 80.8775 9.26626 80.8918 9.21882 80.9298C9.17137 80.9677 9.14375 81.0252 9.14375 81.0859H9.34375ZM9.34375 81.0869L9.29982 81.282C9.3591 81.2954 9.42123 81.2811 9.46868 81.2431C9.51613 81.2051 9.54375 81.1477 9.54375 81.0869H9.34375ZM3.50098 79.7715L3.45628 79.9664L3.45705 79.9666L3.50098 79.7715ZM3.30566 79.0908L3.16425 78.9494L3.16424 78.9494L3.30566 79.0908ZM16.1514 66.2471L16.1953 66.0519C16.1284 66.0369 16.0584 66.0572 16.01 66.1056L16.1514 66.2471ZM22.5762 67.6924V67.4924H22.4756V67.6924V67.8924H22.5762V67.6924ZM22.4756 67.6924L22.431 67.8874L52.3627 74.7282L52.4072 74.5332L52.4518 74.3382L22.5201 67.4974L22.4756 67.6924ZM52.4072 74.5332L52.2658 74.3918L39.1633 87.4953L39.3047 87.6367L39.4461 87.7781L52.5487 74.6746L52.4072 74.5332ZM39.3047 87.6367L39.1633 87.4952C39.114 87.5445 39.0425 87.5652 38.9745 87.55L38.9307 87.7451L38.8868 87.9403C39.0886 87.9856 39.2998 87.9243 39.446 87.7782L39.3047 87.6367ZM38.9307 87.7451L38.9746 87.55L9.38767 80.8908L9.34375 81.0859L9.29983 81.2811L38.8867 87.9402L38.9307 87.7451ZM9.34375 81.0859H9.14375V81.0869H9.34375H9.54375V81.0859H9.34375ZM9.34375 81.0869L9.38768 80.8918L3.5449 79.5764L3.50098 79.7715L3.45705 79.9666L9.29982 81.282L9.34375 81.0869ZM3.50098 79.7715L3.54567 79.5765C3.38939 79.5407 3.33285 79.3465 3.44709 79.2322L3.30566 79.0908L3.16424 78.9494C2.82639 79.2873 2.9953 79.8607 3.45628 79.9664L3.50098 79.7715ZM3.30566 79.0908L3.44707 79.2323L16.2928 66.3885L16.1514 66.2471L16.01 66.1056L3.16425 78.9494L3.30566 79.0908ZM16.1514 66.2471L16.1075 66.4422L22.5323 67.8875L22.5762 67.6924L22.6201 67.4973L16.1953 66.0519L16.1514 66.2471Z" fill="#101828"/>
<path d="M47.3271 68.6695C49.462 66.1789 54.6568 59.2762 58.3572 51.5908" stroke="#101828" stroke-width="0.4"/>
<path d="M19.9976 24.2236L20.1216 26.8338C20.2968 30.5206 23.2461 33.4699 26.9329 33.6451L29.5431 33.7691L26.9329 33.8931C23.2461 34.0683 20.2968 37.0176 20.1216 40.7043L19.9976 43.3145L19.8736 40.7043C19.6984 37.0176 16.7491 34.0683 13.0623 33.8931L10.4521 33.7691L13.0623 33.6451C16.7491 33.4699 19.6984 30.5206 19.8736 26.8338L19.9976 24.2236Z" fill="white" stroke="#181818" stroke-width="0.4"/>
<path d="M29.3352 12.7285L29.3972 14.0336C29.4848 15.877 30.9595 17.3516 32.8029 17.4392L34.108 17.5012L32.8029 17.5633C30.9595 17.6508 29.4848 19.1255 29.3972 20.9689L29.3352 22.274L29.2732 20.9689C29.1856 19.1255 27.711 17.6508 25.8676 17.5633L24.5625 17.5012L25.8676 17.4392C27.711 17.3516 29.1856 15.877 29.2732 14.0336L29.3352 12.7285Z" fill="white" stroke="#181818" stroke-width="0.4"/>
</g>
<defs>
<clipPath id="clip0_10283_1423">
<rect width="105" height="123.295" fill="white"/>
</clipPath>
</defs>
</svg>
