<svg width="55" height="55" viewBox="0 0 55 55" fill="none" xmlns="http://www.w3.org/2000/svg">
<rect width="55" height="55" rx="10.7714" fill="#D0ECE5"/>
<mask id="path-2-outside-1_10283_3374" maskUnits="userSpaceOnUse" x="12.4658" y="16.4893" width="34" height="26" fill="black">
<rect fill="white" x="12.4658" y="16.4893" width="34" height="26"/>
<path d="M43.6172 17.4893C44.6535 17.4895 45.4941 18.3299 45.4941 19.3662V39.8672C45.4939 40.9033 44.6533 41.7429 43.6172 41.7432H15.3418C14.3055 41.743 13.466 40.9034 13.4658 39.8672V19.3662C13.4658 18.3298 14.3054 17.4894 15.3418 17.4893H43.6172Z"/>
</mask>
<path d="M43.6172 17.4893C44.6535 17.4895 45.4941 18.3299 45.4941 19.3662V39.8672C45.4939 40.9033 44.6533 41.7429 43.6172 41.7432H15.3418C14.3055 41.743 13.466 40.9034 13.4658 39.8672V19.3662C13.4658 18.3298 14.3054 17.4894 15.3418 17.4893H43.6172Z" fill="#72D0B8"/>
<path d="M43.6172 17.4893L43.6173 17.1631H43.6172V17.4893ZM45.4941 39.8672L45.8203 39.8673V39.8672H45.4941ZM43.6172 41.7432V42.0693H43.6173L43.6172 41.7432ZM15.3418 41.7432L15.3418 42.0693H15.3418V41.7432ZM13.4658 39.8672H13.1397V39.8673L13.4658 39.8672ZM15.3418 17.4893V17.1631H15.3418L15.3418 17.4893ZM43.6172 17.4893L43.6171 17.8154C44.4734 17.8156 45.168 18.5101 45.168 19.3662H45.4941H45.8203C45.8203 18.1498 44.8335 17.1634 43.6173 17.1631L43.6172 17.4893ZM45.4941 19.3662H45.168V39.8672H45.4941H45.8203V19.3662H45.4941ZM45.4941 39.8672L45.168 39.8671C45.1679 40.723 44.4734 41.4168 43.6171 41.417L43.6172 41.7432L43.6173 42.0693C44.8332 42.069 45.82 41.0837 45.8203 39.8673L45.4941 39.8672ZM43.6172 41.7432V41.417H15.3418V41.7432V42.0693H43.6172V41.7432ZM15.3418 41.7432L15.3418 41.417C14.4857 41.4169 13.7921 40.7233 13.7919 39.8671L13.4658 39.8672L13.1397 39.8673C13.1399 41.0835 14.1254 42.0691 15.3418 42.0693L15.3418 41.7432ZM13.4658 39.8672H13.7919V19.3662H13.4658H13.1397V39.8672H13.4658ZM13.4658 19.3662H13.7919C13.7919 18.5097 14.4857 17.8155 15.3418 17.8154L15.3418 17.4893L15.3418 17.1631C14.1251 17.1633 13.1397 18.1499 13.1397 19.3662H13.4658ZM15.3418 17.4893V17.8154H43.6172V17.4893V17.1631H15.3418V17.4893Z" fill="black" mask="url(#path-2-outside-1_10283_3374)"/>
<path d="M27.4908 15.4912H13.3532C12.3167 15.4912 11.4766 16.3314 11.4766 17.3679V35.7582L27.4908 36.3837L28.7419 24.9508L27.4908 15.4912Z" fill="#F9F4F2"/>
<path d="M41.6288 15.4912H27.4912V36.3837L43.5055 35.7582V17.3679C43.5055 16.3315 42.6653 15.4912 41.6288 15.4912Z" fill="#D3D8E0"/>
<path d="M27.4908 35.7588H11.4766V37.869C11.4766 38.9055 12.3167 39.7457 13.3532 39.7457H27.4908L28.7419 37.7523L27.4908 35.7588Z" fill="#D3D8E0"/>
<path d="M27.4912 39.7457H41.6288C42.6653 39.7457 43.5055 38.9055 43.5055 37.869V35.7588H27.4912V39.7457Z" fill="#D3D8E0"/>
<path d="M21.2705 26.1236C21.2705 28.5217 22.6269 30.603 24.6143 31.6421H27.4937L28.7448 25.7712L27.4937 19.9004C24.0568 19.9003 21.2705 22.6866 21.2705 26.1236Z" fill="#F8DA92"/>
<path d="M27.502 19.9004V31.6421H30.3814C32.3688 30.603 33.7252 28.5217 33.7252 26.1236C33.7252 22.6867 30.9389 19.9004 27.502 19.9004Z" fill="#E7A200"/>
<path d="M25.4509 24.8067C25.4509 25.8268 26.1471 26.6842 27.0902 26.9301H26.5723C25.3604 26.9301 24.3779 27.9126 24.3779 29.1246V31.5478C25.355 32.0587 26.4664 32.348 27.6453 32.348L28.3552 30.3167L27.6453 22.6123C26.4334 22.6123 25.4509 23.5948 25.4509 24.8067Z" fill="#72D0B8"/>
<path d="M28.574 26.9301H28.0561C28.9992 26.6842 29.6954 25.8268 29.6954 24.8067C29.6954 23.5948 28.7129 22.6123 27.501 22.6123V32.348C28.68 32.348 29.7913 32.0586 30.7684 31.5478V29.1246C30.7684 27.9126 29.7859 26.9301 28.574 26.9301Z" fill="#005D46"/>
<g opacity="0.18">
<mask id="mask0_10283_3374" style="mask-type:alpha" maskUnits="userSpaceOnUse" x="11" y="15" width="33" height="25">
<path d="M27.4785 15.4902H27.4795H41.6162C42.6527 15.4902 43.4932 16.3308 43.4932 17.3672V35.7568V35.7578V37.8682C43.493 38.9045 42.6526 39.7441 41.6162 39.7441H27.4795H27.4785H13.3408C12.3045 39.744 11.465 38.9045 11.4648 37.8682V35.7578V35.7568V17.3672C11.4648 16.3308 12.3044 15.4904 13.3408 15.4902H27.4785Z" fill="#C8D2DC"/>
</mask>
<g mask="url(#mask0_10283_3374)">
<path d="M17.7151 8.66061C21.9812 8.35498 25.7836 11.4461 26.3107 15.7392L26.3508 16.1534C26.6464 20.2819 23.7603 23.976 19.6828 24.6877L19.2712 24.7491C17.3975 24.979 15.5951 24.5478 14.0974 23.6389L13.4632 24.4517L13.7309 24.6609L13.9093 24.7993L13.7697 24.9769L13.0775 25.8618L13.081 25.8662L12.9805 25.9937L8.84728 31.2839C8.3773 31.8849 7.54585 32.0339 6.9027 31.6653L6.88752 31.6858L6.70892 31.5454C6.66761 31.5131 6.6282 31.4793 6.59116 31.4438L6.56069 31.42L6.56301 31.4147C6.03555 30.8809 5.97343 30.0253 6.44771 29.4178L10.5809 24.1277L10.6378 24.0538L10.6397 24.0535L11.3768 23.109L11.5153 22.9307L11.6928 23.0702L11.9594 23.2785L12.5945 22.4646C11.4406 21.3218 10.6212 19.8258 10.3236 18.1211L10.2623 17.7095C9.7183 13.2781 12.8697 9.24506 17.3009 8.70065L17.7151 8.66061Z" fill="#101828"/>
</g>
</g>
<mask id="path-14-outside-2_10283_3374" maskUnits="userSpaceOnUse" x="10.4658" y="14.4902" width="34" height="26" fill="black">
<rect fill="white" x="10.4658" y="14.4902" width="34" height="26"/>
<path d="M41.6172 15.4902C42.6535 15.4905 43.4941 16.3309 43.4941 17.3672V37.8682C43.4939 38.9043 42.6533 39.7439 41.6172 39.7441H13.3418C12.3055 39.744 11.466 38.9044 11.4658 37.8682V17.3672C11.4658 16.3308 12.3054 15.4904 13.3418 15.4902H41.6172Z"/>
</mask>
<path d="M41.6172 15.4902L41.6173 15.1641H41.6172V15.4902ZM43.4941 37.8682L43.8203 37.8682V37.8682H43.4941ZM41.6172 39.7441V40.0703H41.6173L41.6172 39.7441ZM13.3418 39.7441L13.3418 40.0703H13.3418V39.7441ZM11.4658 37.8682H11.1397V37.8682L11.4658 37.8682ZM13.3418 15.4902V15.1641H13.3418L13.3418 15.4902ZM41.6172 15.4902L41.6171 15.8164C42.4734 15.8166 43.168 16.5111 43.168 17.3672H43.4941H43.8203C43.8203 16.1507 42.8335 15.1644 41.6173 15.1641L41.6172 15.4902ZM43.4941 17.3672H43.168V37.8682H43.4941H43.8203V17.3672H43.4941ZM43.4941 37.8682L43.168 37.8681C43.1679 38.724 42.4734 39.4178 41.6171 39.418L41.6172 39.7441L41.6173 40.0703C42.8332 40.07 43.82 39.0847 43.8203 37.8682L43.4941 37.8682ZM41.6172 39.7441V39.418H13.3418V39.7441V40.0703H41.6172V39.7441ZM13.3418 39.7441L13.3418 39.418C12.4857 39.4179 11.7921 38.7243 11.7919 37.8681L11.4658 37.8682L11.1397 37.8682C11.1399 39.0845 12.1254 40.0701 13.3418 40.0703L13.3418 39.7441ZM11.4658 37.8682H11.7919V17.3672H11.4658H11.1397V37.8682H11.4658ZM11.4658 17.3672H11.7919C11.7919 16.5107 12.4857 15.8165 13.3418 15.8164L13.3418 15.4902L13.3418 15.1641C12.1251 15.1643 11.1397 16.1509 11.1397 17.3672H11.4658ZM13.3418 15.4902V15.8164H41.6172V15.4902V15.1641H13.3418V15.4902Z" fill="black" mask="url(#path-14-outside-2_10283_3374)"/>
<path opacity="0.2" d="M27.4922 39.7447H41.6298C42.6663 39.7447 43.5064 38.9045 43.5064 37.8681V35.7578H27.4922V39.7447Z" fill="#101828"/>
<path d="M10.7624 23.8307C10.4514 23.5876 10.3962 23.1385 10.6393 22.8274L11.8029 21.3381C12.0459 21.027 12.4951 20.9719 12.8062 21.2149L12.8273 21.2314C13.1384 21.4744 13.1935 21.9236 12.9505 22.2347L11.7868 23.724C11.5438 24.0351 11.0946 24.0902 10.7836 23.8472L10.7624 23.8307Z" fill="#FFF4D9" stroke="#101828" stroke-width="0.326116"/>
<path d="M11.3919 25.1432L7.25848 30.4337C6.81969 30.9953 6.00887 31.0948 5.4473 30.656L10.2269 23.1414L11.3919 25.1432Z" fill="#E7A200"/>
<path d="M10.9 23.6707L5.4425 30.6558C4.88122 30.2173 4.78134 29.4062 5.22014 28.8446L9.35359 23.5542L10.9 23.6707Z" fill="#F8DA92"/>
<path d="M12.1802 24.1266L11.1634 23.3322L10.4273 23.5757L10.369 24.3489L11.3858 25.1434L12.1802 24.1266Z" fill="#FEE29E"/>
<path d="M9.34766 23.5527L10.142 22.5361L11.1586 23.3304L10.3643 24.347L9.34766 23.5527Z" fill="white"/>
<path d="M11.2261 23.377L11.3546 23.4774L11.455 23.3489L11.3264 23.2485L11.2261 23.377ZM11.2244 23.3792L11.0959 23.2788L10.9955 23.4073L11.124 23.5077L11.2244 23.3792ZM12.1832 24.1283L12.3116 24.2288L12.4121 24.1003L12.2836 23.9998L12.1832 24.1283ZM11.3915 25.1405L11.263 25.0401L11.1845 25.1404L11.2629 25.2408L11.3915 25.1405ZM11.395 25.145L11.5235 25.2454L11.6018 25.1451L11.5235 25.0447L11.395 25.145ZM7.26174 30.4352L7.39023 30.5356L7.26174 30.4352ZM5.45015 30.6576L5.31185 30.5712L5.23409 30.6957L5.34975 30.7861L5.45015 30.6576ZM5.49208 30.5905L5.63038 30.6769L5.36279 30.4911L5.49208 30.5905ZM5.43949 30.6589L5.33909 30.7874L5.46861 30.8886L5.56877 30.7583L5.43949 30.6589ZM5.21719 28.8483L5.34568 28.9487L5.34569 28.9487L5.21719 28.8483ZM9.3503 23.5572L9.24091 23.4362L9.23047 23.4457L9.2218 23.4568L9.3503 23.5572ZM9.37421 23.5355L9.4836 23.6565L9.494 23.647L9.50264 23.636L9.37421 23.5355ZM10.1532 22.5396L10.2535 22.4111L10.1251 22.3109L10.0247 22.4392L10.1532 22.5396ZM11.2261 23.377L11.0976 23.2766L11.0959 23.2788L11.2244 23.3792L11.3529 23.4796L11.3546 23.4774L11.2261 23.377ZM11.2244 23.3792L11.124 23.5077L12.0828 24.2568L12.1832 24.1283L12.2836 23.9998L11.3248 23.2507L11.2244 23.3792ZM12.1832 24.1283L12.0548 24.0279L11.263 25.0401L11.3915 25.1405L11.5199 25.241L12.3116 24.2288L12.1832 24.1283ZM11.3915 25.1405L11.2629 25.2408L11.2664 25.2453L11.395 25.145L11.5235 25.0447L11.52 25.0402L11.3915 25.1405ZM11.395 25.145L11.2665 25.0446L7.13325 30.3348L7.26174 30.4352L7.39023 30.5356L11.5235 25.2454L11.395 25.145ZM7.26174 30.4352L7.13325 30.3348C6.7499 30.8255 6.04115 30.9125 5.55054 30.5291L5.45015 30.6576L5.34975 30.7861C5.98229 31.2803 6.896 31.1682 7.39023 30.5356L7.26174 30.4352ZM5.45015 30.6576L5.58844 30.744L5.63038 30.6769L5.49208 30.5905L5.35379 30.5041L5.31185 30.5712L5.45015 30.6576ZM5.49208 30.5905L5.36279 30.4911L5.3102 30.5596L5.43949 30.6589L5.56877 30.7583L5.62137 30.6898L5.49208 30.5905ZM5.43949 30.6589L5.53988 30.5304C5.04957 30.1473 4.9624 29.4392 5.34568 28.9487L5.21719 28.8483L5.0887 28.7479C4.59448 29.3804 4.70693 30.2935 5.33909 30.7874L5.43949 30.6589ZM5.21719 28.8483L5.34569 28.9487L9.4788 23.6575L9.3503 23.5572L9.2218 23.4568L5.08869 28.7479L5.21719 28.8483ZM9.3503 23.5572L9.45969 23.6781L9.4836 23.6565L9.37421 23.5355L9.26482 23.4146L9.24091 23.4362L9.3503 23.5572ZM9.37421 23.5355L9.50264 23.636L10.2816 22.6401L10.1532 22.5396L10.0247 22.4392L9.24577 23.4351L9.37421 23.5355ZM10.1532 22.5396L10.0529 22.6682L11.1258 23.5056L11.2261 23.377L11.3264 23.2485L10.2535 22.4111L10.1532 22.5396Z" fill="#101828"/>
<path d="M15.9278 8.21513C20.2357 7.68623 24.157 10.7494 24.6862 15.0572C25.2151 19.3653 22.1511 23.2869 17.8431 23.8158C13.5351 24.3446 9.61347 21.2807 9.08456 16.9727C8.55591 12.6648 11.6199 8.74405 15.9278 8.21513ZM16.085 9.46406C12.4663 9.90834 9.89283 13.2021 10.3371 16.8209C10.7816 20.4394 14.0753 23.0131 17.6939 22.5688C21.3124 22.1244 23.8859 18.8305 23.4418 15.212C22.9976 11.5933 19.7037 9.01997 16.085 9.46406Z" fill="#F8DA92"/>
<path d="M15.9278 8.21513L15.9079 8.05328L15.9079 8.05328L15.9278 8.21513ZM24.6862 15.0572L24.848 15.0374L24.848 15.0374L24.6862 15.0572ZM17.8431 23.8158L17.863 23.9776L17.863 23.9776L17.8431 23.8158ZM9.08456 16.9727L8.92272 16.9925L8.92272 16.9926L9.08456 16.9727ZM16.085 9.46406L16.0652 9.30221L16.0652 9.30222L16.085 9.46406ZM10.3371 16.8209L10.1753 16.8407L10.1753 16.8408L10.3371 16.8209ZM17.6939 22.5688L17.7138 22.7306L17.7138 22.7306L17.6939 22.5688ZM23.4418 15.212L23.6037 15.1921L23.6037 15.1921L23.4418 15.212ZM15.9278 8.21513L15.9476 8.37697C20.1662 7.85905 24.0062 10.8587 24.5243 15.0771L24.6862 15.0572L24.848 15.0374C24.3079 10.6401 20.3052 7.51342 15.9079 8.05328L15.9278 8.21513ZM24.6862 15.0572L24.5243 15.0771C25.0423 19.2958 22.0419 23.136 17.8232 23.6539L17.8431 23.8158L17.863 23.9776C22.2604 23.4377 25.3879 19.4348 24.848 15.0374L24.6862 15.0572ZM17.8431 23.8158L17.8232 23.6539C13.6046 24.1718 9.76434 21.1715 9.2464 16.9528L9.08456 16.9727L8.92272 16.9926C9.4626 21.39 13.4656 24.5174 17.863 23.9776L17.8431 23.8158ZM9.08456 16.9727L9.2464 16.9528C8.72873 12.7344 11.7291 8.89492 15.9476 8.37697L15.9278 8.21513L15.9079 8.05328C11.5107 8.59318 8.3831 12.5953 8.92272 16.9925L9.08456 16.9727ZM16.085 9.46406L16.0652 9.30222C12.357 9.75747 9.72001 13.1326 10.1753 16.8407L10.3371 16.8209L10.499 16.801C10.0656 13.2716 12.5755 10.0592 16.1049 9.6259L16.085 9.46406ZM10.3371 16.8209L10.1753 16.8408C10.6307 20.5487 14.0058 23.1859 17.7138 22.7306L17.6939 22.5688L17.6741 22.4069C14.1448 22.8402 10.9324 20.3302 10.499 16.801L10.3371 16.8209ZM17.6939 22.5688L17.7138 22.7306C21.4217 22.2752 24.0587 18.9 23.6037 15.1921L23.4418 15.212L23.28 15.2318C23.7131 18.761 21.2031 21.9735 17.6741 22.4069L17.6939 22.5688ZM23.4418 15.212L23.6037 15.1921C23.1484 11.4841 19.7732 8.84715 16.0652 9.30221L16.085 9.46406L16.1049 9.6259C19.6342 9.19278 22.8467 11.7026 23.28 15.2318L23.4418 15.212Z" fill="#101828"/>
<path d="M17.6915 22.5639C21.3103 22.1196 23.8837 18.8259 23.4394 15.2071C22.9951 11.5884 19.7014 9.01494 16.0826 9.45922C12.4639 9.90351 9.89044 13.1973 10.3347 16.816C10.779 20.4348 14.0728 23.0082 17.6915 22.5639Z" fill="white" stroke="#101828" stroke-width="0.326116"/>
<path d="M10.3347 16.816C10.779 20.4348 14.0728 23.0082 17.6915 22.5639L16.0826 9.45922C12.4639 9.90351 9.89044 13.1973 10.3347 16.816Z" fill="white"/>
<path d="M17.6915 22.5639C21.3103 22.1196 23.8837 18.8259 23.4394 15.2071C22.9951 11.5884 19.7014 9.01494 16.0826 9.45922C12.4639 9.90351 9.89044 13.1973 10.3347 16.816C10.779 20.4348 14.0728 23.0082 17.6915 22.5639Z" stroke="#101828" stroke-width="0.326116"/>
<path d="M20.3818 14.1738L16.8047 18.2314L16.4736 18.6074L16.0664 18.3145L13.8115 16.6855L14.1357 16.2373L14.459 15.7891L16.3076 17.123L19.5527 13.4424L20.3818 14.1738Z" fill="#72D0B8"/>
</svg>
