<svg width="55" height="55" viewBox="0 0 55 55" fill="none" xmlns="http://www.w3.org/2000/svg">
<rect width="55" height="55" rx="10.7714" fill="#E6D0F3"/>
<path fill-rule="evenodd" clip-rule="evenodd" d="M33.8268 34.7748C30.9539 34.7073 28.061 35.6541 25.1566 37.1834C22.1456 34.7549 16.884 34.2032 14.8467 35.4305L19.886 28.7957C20.5521 27.9178 21.2471 26.1881 21.3004 24.6492C21.3029 24.5888 21.3042 24.5291 21.3042 24.47L21.3062 23.6858L21.31 22.0807L21.312 21.1173L21.3158 19.5115L21.3184 18.5481L21.3248 15.8184H27.8478L27.8677 24.4699C27.8716 26.0518 28.5941 27.8836 29.2878 28.7957L33.8268 34.7748Z" fill="#F9F4F2"/>
<path d="M19.6221 33.8506C21.5897 33.6818 23.711 33.9711 25.2666 35.2256L25.4219 35.3506L25.2783 35.4883C24.061 36.6553 22.5983 37.8722 20.5977 38.6797C18.5954 39.4878 16.066 39.8816 12.7207 39.4229L12.5254 39.3955L12.5752 39.2051C12.8441 38.1647 13.303 37.1742 13.8887 36.4014L14.708 35.3232L14.7275 35.2969L14.7568 35.2793C15.8016 34.65 17.6531 34.0196 19.6221 33.8506Z" fill="#00A47B" stroke="#101828" stroke-width="0.35"/>
<path fill-rule="evenodd" clip-rule="evenodd" d="M16.3227 45.5005H24.5845H32.8446C34.2428 45.5005 35.2077 44.998 35.8231 44.2151C37.2267 41.9902 36.2345 38.0722 35.1986 36.5847L33.824 34.775C30.476 32.8505 28.0582 33.8337 25.1543 35.363C22.103 36.9706 18.5146 39.181 12.7415 39.2501C11.9842 42.1596 12.7124 45.5005 16.3227 45.5005Z" fill="#89DDC8"/>
<path d="M27.1465 15.6445C27.6271 15.6447 28.0174 16.0339 28.0186 16.5146L28.0371 24.4707L28.0459 24.7627C28.1239 26.1352 28.7057 27.646 29.2949 28.5146L29.4209 28.6914L33.9473 34.6523L33.9492 34.6543L33.9619 34.6709L35.3359 36.4795L35.3408 36.4854C35.8786 37.2577 36.3931 38.6373 36.5977 40.0996C36.802 41.5602 36.7028 43.1461 35.9688 44.3096L35.9639 44.3164L35.959 44.3242C35.3063 45.1544 34.2873 45.6757 32.8428 45.6758H16.3213C15.3913 45.6758 14.6347 45.4603 14.0381 45.0811C13.4415 44.7018 13.0149 44.1651 12.7334 43.5391C12.1728 42.2918 12.1858 40.685 12.5703 39.207L12.5791 39.1709L12.583 39.165C12.8534 38.1399 13.3079 37.1657 13.8857 36.4033L14.6875 35.3477L19.7402 28.6914C20.3849 27.8417 21.0681 26.1456 21.1201 24.6436V24.6426C21.1225 24.5856 21.123 24.528 21.123 24.4707L21.126 23.6865L21.1426 16.5146C21.1438 16.0339 21.5339 15.6445 22.0146 15.6445H27.1465Z" stroke="#101828" stroke-width="0.35"/>
<path fill-rule="evenodd" clip-rule="evenodd" d="M41.5414 18.1445V30.2323C40.6653 30.8168 39.2453 30.8168 38.3718 30.2323C37.4957 29.6478 36.0776 29.6478 35.2021 30.2323V18.1445H41.5414Z" fill="#F9F4F2"/>
<path fill-rule="evenodd" clip-rule="evenodd" d="M23.3096 29.72C23.3096 30.4228 23.8794 30.9926 24.5804 30.9926C25.2832 30.9926 25.853 30.4228 25.853 29.72C25.853 29.0173 25.2832 28.4492 24.5804 28.4492C23.8794 28.4492 23.3096 29.0173 23.3096 29.72Z" fill="#00A47B"/>
<path fill-rule="evenodd" clip-rule="evenodd" d="M27.6309 40.7829C27.6309 41.8607 28.5048 42.7347 29.5807 42.7347C30.6585 42.7347 31.5324 41.8607 31.5324 40.7829C31.5324 39.705 30.6585 38.833 29.5807 38.833C28.5048 38.8329 27.6309 39.705 27.6309 40.7829Z" fill="#00A47B"/>
<path fill-rule="evenodd" clip-rule="evenodd" d="M18.5825 43.0638C19.2379 43.0638 19.7695 42.5321 19.7695 41.8767C19.7695 41.223 19.2379 40.6914 18.5825 40.6914C17.9271 40.6914 17.3955 41.223 17.3955 41.8767C17.3955 42.5321 17.9271 43.0638 18.5825 43.0638Z" fill="#00A47B"/>
<path fill-rule="evenodd" clip-rule="evenodd" d="M27.8666 24.471L27.8466 16.4619H25.833L25.853 24.471C25.8566 26.0531 26.5794 27.8847 27.2731 28.7968L31.0472 33.769C31.9156 33.8892 32.8295 34.2041 33.8254 34.7759L29.2866 28.7968C28.593 27.8847 27.8702 26.0531 27.8666 24.471Z" fill="#D3D8E0"/>
<path fill-rule="evenodd" clip-rule="evenodd" d="M35.1429 36.5076L33.8248 34.7744C32.8289 34.2028 31.915 33.8878 31.0465 33.7676L31.813 34.7744C33.7793 37.367 34.2654 45.4998 29.916 45.4998H32.8454C34.2436 45.4998 35.2085 44.9973 35.8239 44.2144C35.4324 43.6864 35.1994 43.0347 35.1994 42.3301V36.5841L35.1429 36.5076Z" fill="#00A47B"/>
<path d="M29.2979 33.6006C30.7259 33.3982 32.2066 33.6433 33.9111 34.623L33.9424 34.6406L33.9639 34.6689L35.3379 36.4785L35.3428 36.4844H35.3418C35.8796 37.2566 36.3939 38.6364 36.5986 40.0986C36.8031 41.5592 36.7048 43.1451 35.9707 44.3086L35.9658 44.3164L35.9609 44.3232C35.3083 45.1536 34.2895 45.6757 32.8447 45.6758H16.3223C15.3926 45.6757 14.6365 45.4602 14.04 45.0811C13.4433 44.7016 13.0158 44.1644 12.7344 43.5381C12.1739 42.2907 12.1875 40.6841 12.5723 39.2061L12.6055 39.0771L12.7393 39.0752C18.4634 39.0066 22.0152 36.8187 25.0723 35.208H25.0732C26.525 34.4435 27.8791 33.8017 29.2979 33.6006Z" stroke="#101828" stroke-width="0.35"/>
<path fill-rule="evenodd" clip-rule="evenodd" d="M41.5388 29.589V18.7871H39.9111V29.589V30.026C40.4973 30.0333 41.089 29.8876 41.5388 29.589Z" fill="#D3D8E0"/>
<path fill-rule="evenodd" clip-rule="evenodd" d="M35.2021 36.5836V42.3296C35.2021 43.0342 35.4352 43.686 35.8266 44.214C36.3928 44.975 37.2922 45.4776 38.3045 45.4994H38.4392C40.1505 45.463 41.5415 44.0501 41.5415 42.3296V29.5887C40.6658 30.1732 39.2457 30.1732 38.3718 29.5887C37.4961 29.0043 36.0779 29.0043 35.2022 29.5887V36.5836H35.2021Z" fill="#FFCA00"/>
<mask id="path-15-outside-1_10283_3318" maskUnits="userSpaceOnUse" x="34.1934" y="17.1436" width="8" height="29" fill="black">
<rect fill="white" x="34.1934" y="17.1436" width="8" height="29"/>
<path d="M41.5332 42.3301C41.5332 44.0506 40.142 45.4635 38.4307 45.5H38.2959C37.2838 45.4782 36.3845 44.9757 35.8184 44.2148C35.4269 43.6869 35.1934 43.0347 35.1934 42.3301V18.1436H41.5332V42.3301Z"/>
</mask>
<path d="M38.4307 45.5V45.8501L38.4381 45.8499L38.4307 45.5ZM38.2959 45.5L38.2884 45.85H38.2959V45.5ZM35.8184 44.2148L35.5372 44.4233L35.5376 44.4238L35.8184 44.2148ZM35.1934 18.1436V17.7936H34.8434V18.1436H35.1934ZM41.5332 18.1436H41.8832V17.7936H41.5332V18.1436ZM41.5332 42.3301H41.1832C41.1832 43.8596 39.9447 45.1177 38.4232 45.1501L38.4307 45.5L38.4381 45.8499C40.3392 45.8094 41.8832 44.2415 41.8832 42.3301H41.5332ZM38.4307 45.5V45.15H38.2959V45.5V45.85H38.4307V45.5ZM38.2959 45.5L38.3034 45.1501C37.4047 45.1307 36.6042 44.6846 36.0991 44.0059L35.8184 44.2148L35.5376 44.4238C36.1649 45.2668 37.1629 45.8257 38.2884 45.8499L38.2959 45.5ZM35.8184 44.2148L36.0995 44.0064C35.7506 43.5358 35.5434 42.956 35.5434 42.3301H35.1934H34.8434C34.8434 43.1133 35.1033 43.838 35.5372 44.4233L35.8184 44.2148ZM35.1934 42.3301H35.5434V18.1436H35.1934H34.8434V42.3301H35.1934ZM35.1934 18.1436V18.4936H41.5332V18.1436V17.7936H35.1934V18.1436ZM41.5332 18.1436H41.1832V42.3301H41.5332H41.8832V18.1436H41.5332Z" fill="#101828" mask="url(#path-15-outside-1_10283_3318)"/>
<path fill-rule="evenodd" clip-rule="evenodd" d="M38.3753 35.3485C39.0016 35.3485 39.5095 34.8405 39.5095 34.2142C39.5095 33.5861 39.0016 33.0781 38.3753 33.0781C37.7473 33.0781 37.2393 33.5861 37.2393 34.2142C37.2393 34.8405 37.7473 35.3485 38.3753 35.3485Z" fill="white"/>
<path fill-rule="evenodd" clip-rule="evenodd" d="M41.5362 42.3307V29.5898C41.0865 29.8884 40.4948 30.0341 39.9086 30.0268V42.3308C39.9086 43.7928 38.9036 45.0327 37.5527 45.395C37.7912 45.4587 38.0407 45.4951 38.2992 45.5006H38.4339C40.1452 45.4641 41.5362 44.0513 41.5362 42.3307Z" fill="#E7A200"/>
<path d="M22.1409 40.0764C22.0172 40.0764 21.8935 40.029 21.7993 39.9343C21.6117 39.7456 21.6126 39.4406 21.8012 39.253L21.8067 39.2475C21.9954 39.0599 22.3005 39.0609 22.488 39.2495C22.6756 39.4381 22.6747 39.7431 22.4861 39.9307L22.4806 39.9362C22.3866 40.0297 22.2637 40.0764 22.1409 40.0764Z" fill="#00A47B"/>
<path d="M26.0677 38.5343C25.9444 38.5343 25.8211 38.4873 25.7271 38.3933C25.5389 38.2052 25.5389 37.9002 25.7271 37.712L25.7325 37.7065C25.9206 37.5184 26.2256 37.5184 26.4138 37.7065C26.602 37.8946 26.602 38.1996 26.4138 38.3878L26.4083 38.3933C26.3142 38.4873 26.1909 38.5343 26.0677 38.5343Z" fill="#00A47B"/>
<path d="M37.6223 38.7941C37.4991 38.7941 37.3758 38.747 37.2817 38.653C37.0936 38.4649 37.0936 38.1599 37.2817 37.9718L37.2872 37.9663C37.4753 37.7782 37.7803 37.7782 37.9685 37.9663C38.1567 38.1544 38.1567 38.4594 37.9685 38.6475L37.9629 38.653C37.8689 38.747 37.7456 38.7941 37.6223 38.7941Z" fill="white"/>
<path d="M38.6526 42.4729C38.5289 42.4729 38.4052 42.4255 38.311 42.3308C38.1234 42.1421 38.1243 41.8371 38.313 41.6495L38.3185 41.644C38.5071 41.4564 38.8121 41.4574 38.9997 41.6459C39.1873 41.8346 39.1864 42.1396 38.9978 42.3272L38.9923 42.3327C38.8983 42.4262 38.7755 42.4729 38.6526 42.4729Z" fill="white"/>
<path d="M36.7822 28.9775C37.3826 28.9776 37.9915 29.1301 38.4639 29.4453C38.8662 29.7144 39.4044 29.8535 39.9512 29.8535C40.4979 29.8535 41.0362 29.7144 41.4395 29.4453L41.7119 29.2637V42.332C41.7117 44.1476 40.2444 45.6381 38.4385 45.6768H38.2959C37.227 45.6537 36.2784 45.1224 35.6816 44.3203H35.6807C35.2681 43.7638 35.0226 43.0756 35.0225 42.332V29.4971L35.1006 29.4453C35.5729 29.1301 36.1819 28.9775 36.7822 28.9775Z" stroke="#101828" stroke-width="0.35"/>
<path d="M21.1387 18.3477H23.3063" stroke="#101828" stroke-width="0.35"/>
<path d="M35.0127 20.5166H37.1803" stroke="#101828" stroke-width="0.35"/>
<path d="M21.1387 20.5166H23.3063" stroke="#101828" stroke-width="0.35"/>
<path d="M35.0127 22.6826H37.1803" stroke="#101828" stroke-width="0.35"/>
<path d="M21.1387 22.6826H23.3063" stroke="#101828" stroke-width="0.35"/>
<path d="M35.0127 24.8516H37.1803" stroke="#101828" stroke-width="0.35"/>
<path d="M41.6602 15.7314C42.5043 15.7314 43.1738 16.4706 43.1738 17.3486C43.1736 18.2248 42.504 18.9629 41.6602 18.9629H35.0586C34.2128 18.9627 33.5461 18.2245 33.5459 17.3486C33.5459 16.4709 34.2125 15.7316 35.0586 15.7314H41.6602Z" fill="#DCEBFF" stroke="#101828" stroke-width="0.35"/>
<path opacity="0.14" fill-rule="evenodd" clip-rule="evenodd" d="M43.0009 17.3482C43.0009 16.5544 42.3983 15.9062 41.6628 15.9062H40.0388C40.7725 15.9081 41.3733 16.5562 41.3733 17.3482C41.3733 18.1402 40.7707 18.7883 40.0352 18.7883H41.5317H41.6628C42.3983 18.7883 43.0009 18.1402 43.0009 17.3482Z" fill="#101828"/>
<path d="M28.1338 13.4043C29.0219 13.4045 29.7501 14.1307 29.75 15.0195C29.7498 15.9097 29.024 16.6355 28.1338 16.6357H21.0234C20.1334 16.6355 19.4074 15.9097 19.4072 15.0195C19.4072 14.1308 20.1353 13.4046 21.0234 13.4043H28.1338Z" fill="#DCEBFF" stroke="#101828" stroke-width="0.35"/>
<path opacity="0.14" fill-rule="evenodd" clip-rule="evenodd" d="M29.5776 15.0192C29.5776 14.2273 28.9276 13.5791 28.1356 13.5791H26.1275C26.9176 13.5809 27.564 14.2291 27.564 15.0192C27.564 15.813 26.9158 16.4612 26.1221 16.4612H27.8425H28.1356C28.9294 16.4612 29.5776 15.813 29.5776 15.0192Z" fill="#101828"/>
<path d="M32.3979 7.49902L32.3797 8.27171C32.3442 9.78486 33.5802 11.0208 35.0933 10.9853L35.866 10.9672L35.0933 10.9491C33.5802 10.9136 32.3442 12.1495 32.3797 13.6627L32.3979 14.4353L32.416 13.6627C32.4515 12.1495 31.2155 10.9136 29.7024 10.9491L28.9297 10.9672L29.7024 10.9853C31.2155 11.0208 32.4515 9.78486 32.416 8.27171L32.3979 7.49902Z" fill="white" stroke="#101828" stroke-width="0.35"/>
<path d="M14.2003 17.9141L14.1731 19.0731C14.1198 21.3428 15.9738 23.1968 18.2435 23.1435L19.4025 23.1163L18.2435 23.0891C15.9738 23.0359 14.1198 24.8898 14.1731 27.1595L14.2003 28.3186L14.2275 27.1595C14.2807 24.8898 12.4268 23.0359 10.1571 23.0891L8.99805 23.1163L10.1571 23.1435C12.4268 23.1968 14.2807 21.3428 14.2275 19.0731L14.2003 17.9141Z" fill="white" stroke="#101828" stroke-width="0.35"/>
</svg>
