<svg width="55" height="55" viewBox="0 0 55 55" fill="none" xmlns="http://www.w3.org/2000/svg">
<rect width="55" height="55" rx="10.7714" fill="url(#paint0_linear_10283_3164)"/>
<circle cx="36.9209" cy="18.7822" r="3.51756" fill="#E7A200" stroke="#101828" stroke-width="0.35"/>
<path opacity="0.2" fill-rule="evenodd" clip-rule="evenodd" d="M35.9867 20.9079C35.0667 20.9079 34.2291 20.5553 33.6016 19.9778C34.0926 21.3324 35.3908 22.3002 36.9149 22.3002C38.8608 22.3002 40.4383 20.7228 40.4383 18.7769C40.4383 17.751 39.9998 16.8275 39.3001 16.1836C39.436 16.5584 39.5101 16.9628 39.5101 17.3845C39.5101 19.3304 37.9326 20.9079 35.9867 20.9079Z" fill="#101828" stroke="#101828" stroke-width="0.35"/>
<path d="M9.22168 27.928C9.22168 27.4694 9.59343 27.0977 10.052 27.0977H28.1115C28.5701 27.0977 28.9418 27.4694 28.9418 27.928V31.38C28.9418 31.8385 28.5701 32.2103 28.1115 32.2103H10.052C9.59343 32.2103 9.22168 31.8385 9.22168 31.38V27.928Z" fill="#FEE29E" stroke="#101828" stroke-width="0.35"/>
<path d="M12.1533 35.5588C12.1533 35.1003 12.5251 34.7285 12.9836 34.7285H31.0432C31.5017 34.7285 31.8735 35.1003 31.8735 35.5588V39.0108C31.8735 39.4694 31.5017 39.8411 31.0432 39.8411H12.9836C12.5251 39.8411 12.1533 39.4694 12.1533 39.0108V35.5588Z" fill="#FEE29E" stroke="#101828" stroke-width="0.35"/>
<mask id="mask0_10283_3164" style="mask-type:alpha" maskUnits="userSpaceOnUse" x="9" y="26" width="24" height="15">
<path d="M31.04 34.5166C31.6142 34.5166 32.0798 34.9826 32.0801 35.5566V39.0088C32.0801 39.5831 31.6144 40.0488 31.04 40.0488H12.9805C12.4063 40.0487 11.9404 39.583 11.9404 39.0088V35.5566C11.9407 34.9827 12.4064 34.5168 12.9805 34.5166H31.04ZM28.1084 26.8867C28.6826 26.8867 29.1483 27.3526 29.1484 27.9268V31.3789C29.1484 31.9532 28.6827 32.4189 28.1084 32.4189H10.0488C9.4747 32.4187 9.00879 31.9531 9.00879 31.3789V27.9268C9.00897 27.3527 9.47482 26.887 10.0488 26.8867H28.1084Z" fill="#FFCA00"/>
</mask>
<g mask="url(#mask0_10283_3164)">
<path opacity="0.2" d="M25.2354 14.0732C31.4279 14.0734 36.4491 19.0936 36.4492 25.2861L36.4346 25.8633C36.3122 28.2764 35.4266 30.4883 34.0146 32.2627L35.1201 33.3682L35.6709 32.8184L37.2988 34.4463L37.2959 34.4492L43.7363 40.8896C44.4882 41.6419 44.534 42.8324 43.874 43.6377L43.8818 43.6523L43.7432 43.791C42.9422 44.5918 41.6439 44.5917 40.8428 43.791L34.2217 37.1699L34.0938 37.041L32.9482 35.8965L32.7705 35.7188L33.3271 35.1611L32.2217 34.0557C30.3051 35.5846 27.8774 36.4999 25.2354 36.5C19.2363 36.4998 14.3375 31.7877 14.0371 25.8633L14.0225 25.2861C14.0226 19.0936 19.0428 14.0734 25.2354 14.0732Z" fill="#101828"/>
</g>
<path d="M36.8029 35.0672C37.1922 34.6779 37.1922 34.0467 36.8029 33.6574L34.9389 31.7934C34.5496 31.4041 33.9184 31.4041 33.5291 31.7934L33.5026 31.8199C33.1133 32.2092 33.1133 32.8404 33.5026 33.2297L35.3666 35.0937C35.7559 35.483 36.3871 35.483 36.7764 35.0937L36.8029 35.0672Z" fill="#D0ECE5" stroke="#101828" stroke-width="0.35"/>
<path d="M36.1451 36.9888L42.7664 43.6102C43.4693 44.313 44.6087 44.313 45.3115 43.6102L37.4176 34.0195L36.1451 36.9888Z" fill="#005D46"/>
<path d="M36.5705 34.8675L45.3128 43.6098C46.0153 42.9073 46.0157 41.7675 45.3128 41.0647L38.6915 34.4434L36.5705 34.8675Z" fill="#00A47B"/>
<path d="M34.8718 35.7159L36.1444 34.4434L37.2049 34.6554L37.417 35.7159L36.1444 36.9885L34.8718 35.7159Z" fill="#89DDC8"/>
<path d="M38.6885 34.4434L37.4161 33.171L36.1437 34.4434L37.4161 35.7157L38.6885 34.4434Z" fill="white"/>
<path d="M36.0771 34.5137V34.6887H35.6547L35.9534 34.3899L36.0771 34.5137ZM36.0781 34.5137V34.3387H36.5009L36.2018 34.6375L36.0781 34.5137ZM34.875 35.7158L34.7513 35.8396L34.6274 35.7158L34.7513 35.592L34.875 35.7158ZM36.1484 36.9883L36.2721 36.8645L36.3234 36.9158V36.9883H36.1484ZM36.1484 36.9893L36.0247 37.113L35.9734 37.0617V36.9893H36.1484ZM42.7695 43.6104L42.8933 43.4866L42.7695 43.6104ZM45.3145 43.6104L45.4645 43.5203L45.5348 43.6375L45.4382 43.7341L45.3145 43.6104ZM45.3115 43.6055L45.1615 43.6955L45.0914 43.5787L45.1874 43.4821L45.3115 43.6055ZM45.3086 41.0645L45.4323 40.9407L45.4324 40.9407L45.3086 41.0645ZM38.6904 34.4453L38.5667 34.569L38.443 34.4453L38.5667 34.3216L38.6904 34.4453ZM38.6924 34.4434L38.8161 34.3196L38.9399 34.4434L38.8161 34.5671L38.6924 34.4434ZM37.4199 33.1709L37.2962 33.0472L37.4199 32.9234L37.5437 33.0472L37.4199 33.1709ZM36.0771 34.5137V34.3387H36.0781V34.5137V34.6887H36.0771V34.5137ZM36.0781 34.5137L36.2018 34.6375L34.9987 35.8396L34.875 35.7158L34.7513 35.592L35.9544 34.3899L36.0781 34.5137ZM34.875 35.7158L34.9987 35.592L36.2721 36.8645L36.1484 36.9883L36.0247 37.1121L34.7513 35.8396L34.875 35.7158ZM36.1484 36.9883H36.3234V36.9893H36.1484H35.9734V36.9883H36.1484ZM36.1484 36.9893L36.2722 36.8655L42.8933 43.4866L42.7695 43.6104L42.6458 43.7341L36.0247 37.113L36.1484 36.9893ZM42.7695 43.6104L42.8933 43.4866C43.5277 44.1211 44.5562 44.121 45.1907 43.4866L45.3145 43.6104L45.4382 43.7341C44.667 44.5051 43.417 44.5053 42.6458 43.7341L42.7695 43.6104ZM45.3145 43.6104L45.1644 43.7004L45.1615 43.6955L45.3115 43.6055L45.4616 43.5154L45.4645 43.5203L45.3145 43.6104ZM45.3115 43.6055L45.1874 43.4821C45.8183 42.8477 45.8179 41.8215 45.1848 41.1882L45.3086 41.0645L45.4324 40.9407C46.202 41.7107 46.2023 42.9579 45.4356 43.7289L45.3115 43.6055ZM45.3086 41.0645L45.1848 41.1882L38.5667 34.569L38.6904 34.4453L38.8142 34.3216L45.4323 40.9407L45.3086 41.0645ZM38.6904 34.4453L38.5667 34.3216L38.5686 34.3196L38.6924 34.4434L38.8161 34.5671L38.8142 34.5691L38.6904 34.4453ZM38.6924 34.4434L38.5686 34.5671L37.2962 33.2946L37.4199 33.1709L37.5437 33.0472L38.8161 34.3196L38.6924 34.4434ZM37.4199 33.1709L37.5437 33.2946L36.2009 34.6374L36.0771 34.5137L35.9534 34.3899L37.2962 33.0472L37.4199 33.1709Z" fill="#101828"/>
<path d="M26.9756 14.3232C20.922 14.3234 16.0148 19.2306 16.0146 25.2842C16.0146 31.3379 20.9219 36.2459 26.9756 36.2461C33.0293 36.2461 37.9375 31.3379 37.9375 25.2842C37.9374 19.2305 33.0293 14.3232 26.9756 14.3232ZM26.9795 16.0762C32.0644 16.0764 36.1865 20.1982 36.1865 25.2832C36.1865 30.3682 32.0644 34.491 26.9795 34.4912C21.8943 34.4912 17.7715 30.3684 17.7715 25.2832C17.7716 20.1981 21.8944 16.0762 26.9795 16.0762Z" fill="#00A47B"/>
<path d="M26.9756 14.3232L26.9756 14.1482H26.9756V14.3232ZM16.0146 25.2842H15.8396V25.2842L16.0146 25.2842ZM26.9756 36.2461V36.4211H26.9756L26.9756 36.2461ZM37.9375 25.2842L38.1125 25.2842V25.2842H37.9375ZM26.9795 16.0762V15.9012H26.9795L26.9795 16.0762ZM36.1865 25.2832L36.3615 25.2832V25.2832H36.1865ZM26.9795 34.4912L26.9795 34.6662H26.9795V34.4912ZM17.7715 25.2832H17.5965V25.2832L17.7715 25.2832ZM26.9756 14.3232L26.9756 14.4982C21.0187 14.4984 16.1898 19.3273 16.1896 25.2842L16.0146 25.2842L15.8396 25.2842C15.8398 19.134 20.8254 14.1484 26.9756 14.1482L26.9756 14.3232ZM16.0146 25.2842H16.1896C16.1896 31.2412 21.0186 36.0709 26.9756 36.0711L26.9756 36.2461L26.9756 36.4211C20.8253 36.4209 15.8396 31.4345 15.8396 25.2842H16.0146ZM26.9756 36.2461V36.0711C32.9327 36.0711 37.7625 31.2413 37.7625 25.2842H37.9375H38.1125C38.1125 31.4346 33.126 36.4211 26.9756 36.4211V36.2461ZM37.9375 25.2842L37.7625 25.2842C37.7624 19.3272 32.9326 14.4982 26.9756 14.4982V14.3232V14.1482C33.1259 14.1482 38.1124 19.1339 38.1125 25.2842L37.9375 25.2842ZM26.9795 16.0762L26.9795 15.9012C32.1611 15.9014 36.3615 20.1016 36.3615 25.2832L36.1865 25.2832L36.0115 25.2832C36.0115 20.2949 31.9678 16.2514 26.9795 16.2512L26.9795 16.0762ZM36.1865 25.2832H36.3615C36.3615 30.4648 32.1611 34.666 26.9795 34.6662L26.9795 34.4912L26.9795 34.3162C31.9678 34.316 36.0115 30.2716 36.0115 25.2832H36.1865ZM26.9795 34.4912V34.6662C21.7977 34.6662 17.5965 30.465 17.5965 25.2832H17.7715H17.9465C17.9465 30.2717 21.991 34.3162 26.9795 34.3162V34.4912ZM17.7715 25.2832L17.5965 25.2832C17.5966 20.1014 21.7977 15.9012 26.9795 15.9012V16.0762V16.2512C21.991 16.2512 17.9466 20.2948 17.9465 25.2832L17.7715 25.2832Z" fill="#101828"/>
<path d="M36.8029 35.0672C37.1922 34.6779 37.1922 34.0467 36.8029 33.6574L34.9389 31.7934C34.5496 31.4041 33.9184 31.4041 33.5291 31.7934L33.5026 31.8199C33.1133 32.2092 33.1133 32.8404 33.5026 33.2297L35.3666 35.0937C35.7559 35.483 36.3871 35.483 36.7764 35.0937L36.8029 35.0672Z" fill="#D0ECE5" stroke="#101828" stroke-width="0.35"/>
<path d="M36.1451 36.9888L42.7664 43.6102C43.4693 44.313 44.6087 44.313 45.3115 43.6102L37.4176 34.0195L36.1451 36.9888Z" fill="#005D46"/>
<path d="M36.5705 34.8695L45.3128 43.6117C46.0153 42.9093 46.0157 41.7695 45.3128 41.0666L38.6915 34.4453L36.5705 34.8695Z" fill="#00A47B"/>
<path d="M34.8718 35.7179L36.1444 34.4453L37.2049 34.6574L37.417 35.7179L36.1444 36.9904L34.8718 35.7179Z" fill="#89DDC8"/>
<path d="M38.6885 34.4434L37.4161 33.171L36.1437 34.4434L37.4161 35.7157L38.6885 34.4434Z" fill="white"/>
<path d="M36.0771 34.5137V34.6887H35.6547L35.9534 34.3899L36.0771 34.5137ZM36.0781 34.5137V34.3387H36.5009L36.2018 34.6375L36.0781 34.5137ZM34.875 35.7158L34.7513 35.8396L34.6274 35.7158L34.7513 35.592L34.875 35.7158ZM36.1484 36.9883L36.2721 36.8645L36.3234 36.9158V36.9883H36.1484ZM36.1484 36.9893L36.0247 37.113L35.9734 37.0617V36.9893H36.1484ZM42.7695 43.6104L42.8933 43.4866L42.7695 43.6104ZM45.3145 43.6104L45.4645 43.5203L45.5348 43.6375L45.4382 43.7341L45.3145 43.6104ZM45.3115 43.6055L45.1615 43.6955L45.0914 43.5787L45.1874 43.4821L45.3115 43.6055ZM45.3086 41.0645L45.4323 40.9407L45.4324 40.9407L45.3086 41.0645ZM38.6904 34.4453L38.5667 34.569L38.443 34.4453L38.5667 34.3216L38.6904 34.4453ZM38.6924 34.4434L38.8161 34.3196L38.9399 34.4434L38.8161 34.5671L38.6924 34.4434ZM37.4199 33.1709L37.2962 33.0472L37.4199 32.9234L37.5437 33.0472L37.4199 33.1709ZM36.0771 34.5137V34.3387H36.0781V34.5137V34.6887H36.0771V34.5137ZM36.0781 34.5137L36.2018 34.6375L34.9987 35.8396L34.875 35.7158L34.7513 35.592L35.9544 34.3899L36.0781 34.5137ZM34.875 35.7158L34.9987 35.592L36.2721 36.8645L36.1484 36.9883L36.0247 37.1121L34.7513 35.8396L34.875 35.7158ZM36.1484 36.9883H36.3234V36.9893H36.1484H35.9734V36.9883H36.1484ZM36.1484 36.9893L36.2722 36.8655L42.8933 43.4866L42.7695 43.6104L42.6458 43.7341L36.0247 37.113L36.1484 36.9893ZM42.7695 43.6104L42.8933 43.4866C43.5277 44.1211 44.5562 44.121 45.1907 43.4866L45.3145 43.6104L45.4382 43.7341C44.667 44.5051 43.417 44.5053 42.6458 43.7341L42.7695 43.6104ZM45.3145 43.6104L45.1644 43.7004L45.1615 43.6955L45.3115 43.6055L45.4616 43.5154L45.4645 43.5203L45.3145 43.6104ZM45.3115 43.6055L45.1874 43.4821C45.8183 42.8477 45.8179 41.8215 45.1848 41.1882L45.3086 41.0645L45.4324 40.9407C46.202 41.7107 46.2023 42.9579 45.4356 43.7289L45.3115 43.6055ZM45.3086 41.0645L45.1848 41.1882L38.5667 34.569L38.6904 34.4453L38.8142 34.3216L45.4323 40.9407L45.3086 41.0645ZM38.6904 34.4453L38.5667 34.3216L38.5686 34.3196L38.6924 34.4434L38.8161 34.5671L38.8142 34.5691L38.6904 34.4453ZM38.6924 34.4434L38.5686 34.5671L37.2962 33.2946L37.4199 33.1709L37.5437 33.0472L38.8161 34.3196L38.6924 34.4434ZM37.4199 33.1709L37.5437 33.2946L36.2009 34.6374L36.0771 34.5137L35.9534 34.3899L37.2962 33.0472L37.4199 33.1709Z" fill="#101828"/>
<path d="M26.9756 14.3232C20.922 14.3234 16.0148 19.2306 16.0146 25.2842C16.0146 31.3379 20.9219 36.2459 26.9756 36.2461C33.0293 36.2461 37.9375 31.3379 37.9375 25.2842C37.9374 19.2305 33.0293 14.3232 26.9756 14.3232ZM26.9795 16.0762C32.0644 16.0764 36.1865 20.1982 36.1865 25.2832C36.1865 30.3682 32.0644 34.491 26.9795 34.4912C21.8943 34.4912 17.7715 30.3684 17.7715 25.2832C17.7716 20.1981 21.8944 16.0762 26.9795 16.0762Z" fill="#00A47B"/>
<path d="M26.9756 14.3232L26.9756 14.1482H26.9756V14.3232ZM16.0146 25.2842H15.8396V25.2842L16.0146 25.2842ZM26.9756 36.2461V36.4211H26.9756L26.9756 36.2461ZM37.9375 25.2842L38.1125 25.2842V25.2842H37.9375ZM26.9795 16.0762V15.9012H26.9795L26.9795 16.0762ZM36.1865 25.2832L36.3615 25.2832V25.2832H36.1865ZM26.9795 34.4912L26.9795 34.6662H26.9795V34.4912ZM17.7715 25.2832H17.5965V25.2832L17.7715 25.2832ZM26.9756 14.3232L26.9756 14.4982C21.0187 14.4984 16.1898 19.3273 16.1896 25.2842L16.0146 25.2842L15.8396 25.2842C15.8398 19.134 20.8254 14.1484 26.9756 14.1482L26.9756 14.3232ZM16.0146 25.2842H16.1896C16.1896 31.2412 21.0186 36.0709 26.9756 36.0711L26.9756 36.2461L26.9756 36.4211C20.8253 36.4209 15.8396 31.4345 15.8396 25.2842H16.0146ZM26.9756 36.2461V36.0711C32.9327 36.0711 37.7625 31.2413 37.7625 25.2842H37.9375H38.1125C38.1125 31.4346 33.126 36.4211 26.9756 36.4211V36.2461ZM37.9375 25.2842L37.7625 25.2842C37.7624 19.3272 32.9326 14.4982 26.9756 14.4982V14.3232V14.1482C33.1259 14.1482 38.1124 19.1339 38.1125 25.2842L37.9375 25.2842ZM26.9795 16.0762L26.9795 15.9012C32.1611 15.9014 36.3615 20.1016 36.3615 25.2832L36.1865 25.2832L36.0115 25.2832C36.0115 20.2949 31.9678 16.2514 26.9795 16.2512L26.9795 16.0762ZM36.1865 25.2832H36.3615C36.3615 30.4648 32.1611 34.666 26.9795 34.6662L26.9795 34.4912L26.9795 34.3162C31.9678 34.316 36.0115 30.2716 36.0115 25.2832H36.1865ZM26.9795 34.4912V34.6662C21.7977 34.6662 17.5965 30.465 17.5965 25.2832H17.7715H17.9465C17.9465 30.2717 21.991 34.3162 26.9795 34.3162V34.4912ZM17.7715 25.2832L17.5965 25.2832C17.5966 20.1014 21.7977 15.9012 26.9795 15.9012V16.0762V16.2512C21.991 16.2512 17.9466 20.2948 17.9465 25.2832L17.7715 25.2832Z" fill="#101828"/>
<path d="M26.9761 34.4951C21.8909 34.4951 17.7686 30.3727 17.7686 25.2876C17.7686 20.2024 21.8909 16.0801 26.9761 16.0801C32.0613 16.0801 36.1836 20.2024 36.1836 25.2876C36.1836 30.3727 32.0613 34.4951 26.9761 34.4951Z" fill="#D0ECE5" stroke="#101828" stroke-width="0.35"/>
<path d="M36.1836 25.2876C36.1836 30.3727 32.0613 34.4951 26.9761 34.4951V16.0801C32.0613 16.0801 36.1836 20.2024 36.1836 25.2876Z" fill="white"/>
<path d="M24.4541 18.708C24.7107 18.7181 24.9307 18.8952 24.9961 19.1436L27.5762 28.9395L29.3623 22.2939L29.3945 22.2031C29.4857 22.0024 29.6853 21.8675 29.9111 21.8613C30.1692 21.8544 30.4018 22.0174 30.4824 22.2627L31.5273 25.4463H33.8525C34.1751 25.4465 34.4365 25.7077 34.4365 26.0303C34.4364 26.3528 34.175 26.6141 33.8525 26.6143H31.1045C30.8522 26.6143 30.6287 26.4524 30.5498 26.2129L29.9824 24.4873L28.1357 31.3652C28.0669 31.6207 27.8349 31.7984 27.5703 31.7979C27.3055 31.7972 27.0744 31.6183 27.0068 31.3623L24.3525 21.2861L22.6279 26.2227C22.546 26.4571 22.3245 26.6142 22.0762 26.6143H20.1133C19.7906 26.6143 19.5294 26.3529 19.5293 26.0303C19.5293 25.7076 19.7906 25.4463 20.1133 25.4463H21.6611L23.8799 19.0996L23.918 19.0127C24.0228 18.8199 24.2295 18.6992 24.4541 18.708Z" fill="#3C9E86"/>
<path d="M24.4525 18.7065C24.709 18.7167 24.9291 18.8934 24.9946 19.1416L26.9827 26.6894L27.5752 28.9388L29.3609 22.2922L29.3926 22.2026C29.4836 22.0015 29.6826 21.8658 29.9086 21.8594C30.1667 21.8524 30.3994 22.0159 30.4801 22.2612L31.5255 25.4443H33.8501C34.1726 25.4444 34.4348 25.7059 34.435 26.0284C34.4349 26.3509 34.1727 26.6132 33.8501 26.6133H31.103C30.8508 26.6133 30.6264 26.451 30.5474 26.2115L29.9807 24.4868L28.134 31.3633C28.0653 31.6189 27.8328 31.7966 27.5681 31.796C27.3035 31.7953 27.0721 31.6168 27.0046 31.3609L26.9827 31.278L24.3502 21.2856L22.6256 26.2218C22.5435 26.456 22.3221 26.6132 22.0739 26.6133H20.1115C19.7888 26.6133 19.5275 26.351 19.5273 26.0284C19.5275 25.7059 19.7889 25.4443 20.1115 25.4443H21.6594L23.8778 19.098C23.9626 18.8556 24.1958 18.6964 24.4525 18.7065Z" fill="#3C9E86"/>
<path d="M26.9803 26.6905V31.2791L27.0021 31.3621C27.0697 31.6179 27.301 31.7964 27.5657 31.7972C27.8304 31.7977 28.0628 31.6201 28.1316 31.3644L29.9783 24.488L30.545 26.2126C30.6239 26.4522 30.8483 26.6145 31.1006 26.6145H33.8477C34.1702 26.6144 34.4325 26.3521 34.4326 26.0296C34.4324 25.7071 34.1702 25.4455 33.8477 25.4454H31.523L30.4776 22.2624C30.397 22.0171 30.1643 21.8536 29.9062 21.8606C29.6802 21.8669 29.4812 22.0027 29.3902 22.2038L29.3585 22.2933L27.5728 28.9399L26.9803 26.6905Z" fill="#89DDC8"/>
<path d="M26.9761 34.4951C21.8909 34.4951 17.7686 30.3727 17.7686 25.2876C17.7686 20.2024 21.8909 16.0801 26.9761 16.0801C32.0613 16.0801 36.1836 20.2024 36.1836 25.2876C36.1836 30.3727 32.0613 34.4951 26.9761 34.4951Z" stroke="#101828" stroke-width="0.35"/>
<ellipse cx="42.0899" cy="30.7389" rx="2.34673" ry="2.34335" fill="#E7A200" stroke="#101828" stroke-width="0.35"/>
<path opacity="0.2" fill-rule="evenodd" clip-rule="evenodd" d="M41.4662 32.1541C40.8525 32.1541 40.2936 31.9192 39.875 31.5345C40.2026 32.4369 41.0687 33.0817 42.0855 33.0817C43.3837 33.0817 44.4361 32.0308 44.4361 30.7345C44.4361 30.051 44.1436 29.4358 43.6767 29.0068C43.7674 29.2565 43.8168 29.5259 43.8168 29.8069C43.8168 31.1032 42.7644 32.1541 41.4662 32.1541Z" fill="#101828" stroke="#101828" stroke-width="0.35"/>
<mask id="mask1_10283_3164" style="mask-type:alpha" maskUnits="userSpaceOnUse" x="15" y="14" width="31" height="31">
<path d="M26.9688 14.1611C33.113 14.1613 38.0936 19.1419 38.0938 25.2861L38.0791 25.8584C37.9564 28.2786 37.059 30.4937 35.6318 32.2637L36.8604 33.4922L37.4131 32.9404L38.918 34.4453L38.916 34.4473L45.418 40.9502C46.1522 41.6847 46.1805 42.855 45.5088 43.626L45.5146 43.6377L45.4238 43.7285C44.6569 44.4953 43.4134 44.4955 42.6465 43.7285L35.9775 37.0596V37.0586L34.752 35.834L34.6357 35.7178L35.1924 35.1611L33.9648 33.9336C32.0535 35.4822 29.6203 36.412 26.9688 36.4121L26.3965 36.3975C20.7078 36.109 16.1458 31.5471 15.8574 25.8584L15.8428 25.2861C15.8429 19.3339 20.5183 14.4739 26.3965 14.1758L26.9688 14.1611Z" fill="#D0ECE5"/>
</mask>
<g mask="url(#mask1_10283_3164)">
<g opacity="0.5">
<circle cx="15.8216" cy="16.4368" r="5.8626" fill="#101828" stroke="#101828" stroke-width="0.35"/>
<path opacity="0.2" fill-rule="evenodd" clip-rule="evenodd" d="M14.2653 19.9803C12.732 19.9803 11.3359 19.3926 10.29 18.4302C11.1085 20.6879 13.2721 22.3008 15.8123 22.3008C19.0555 22.3008 21.6846 19.6718 21.6846 16.4286C21.6846 14.7188 20.9538 13.1796 19.7876 12.1064C20.014 12.7311 20.1375 13.4052 20.1375 14.108C20.1375 17.3512 17.5084 19.9803 14.2653 19.9803Z" fill="#101828" stroke="#101828" stroke-width="0.35"/>
</g>
</g>
<circle cx="17.2171" cy="14.5579" r="5.8626" fill="#E7A200" stroke="#101828" stroke-width="0.35"/>
<path opacity="0.2" fill-rule="evenodd" clip-rule="evenodd" d="M15.6686 18.1014C14.1353 18.1014 12.7392 17.5137 11.6934 16.5513C12.5118 18.8089 14.6754 20.4219 17.2156 20.4219C20.4588 20.4219 23.0879 17.7928 23.0879 14.5497C23.0879 12.8399 22.3571 11.3007 21.1909 10.2275C21.4173 10.8522 21.5408 11.5263 21.5408 12.2291C21.5408 15.4723 18.9117 18.1014 15.6686 18.1014Z" fill="#101828" stroke="#101828" stroke-width="0.35"/>
<path d="M20.1377 13.252L16.8545 16.5342C16.6799 16.7088 16.3997 16.7183 16.2139 16.5557L14.3379 14.9141L14.6465 14.5615L14.9551 14.208L16.5 15.5605L19.4736 12.5879L20.1377 13.252Z" fill="white"/>
<defs>
<linearGradient id="paint0_linear_10283_3164" x1="-38.024" y1="-27.4312" x2="85.2237" y2="9.32982" gradientUnits="userSpaceOnUse">
<stop offset="0.160747" stop-color="#2A81FE"/>
<stop offset="0.648338" stop-color="#C0E0FF"/>
<stop offset="0.850962" stop-color="#C0E0FF"/>
</linearGradient>
</defs>
</svg>
