<svg width="90" height="90" viewBox="0 0 90 90" fill="none" xmlns="http://www.w3.org/2000/svg">
<g clip-path="url(#clip0_17403_3216)">
<path d="M57.5609 36.6105C58.5039 37.3381 59.8578 37.163 60.5851 36.2208C61.3122 35.2781 61.1376 33.924 60.1954 33.1967C58.2319 31.6816 56.0822 30.4106 53.8066 29.4186C52.7147 28.9425 51.4443 29.4419 50.9688 30.5336C50.493 31.6248 50.9919 32.8953 52.0833 33.3716C54.035 34.2222 55.8779 35.3116 57.5609 36.6105Z" fill="#3C9E86" stroke="black" stroke-width="0.9"/>
<path d="M53.1968 24.5455C57.3034 25.9935 61.0499 28.1685 64.3312 31.0104C65.232 31.7901 66.5937 31.6916 67.3725 30.7917C68.1519 29.8916 68.0541 28.5302 67.1538 27.7503C63.4625 24.5539 59.2493 22.1073 54.6312 20.479C53.5083 20.0826 52.2767 20.6719 51.8804 21.7948C51.4847 22.9181 52.0738 24.1491 53.1968 24.5455Z" fill="#3C9E86" stroke="black" stroke-width="0.9"/>
<path d="M74.0084 22.3008C68.7707 17.4433 62.3765 13.7745 55.5168 11.6913C54.378 11.3454 53.1734 11.9882 52.8277 13.1276C52.4812 14.2666 53.1246 15.471 54.264 15.8167C60.5013 17.7117 66.3147 21.0467 71.0759 25.4625C71.9494 26.2724 73.3139 26.2199 74.1229 25.3474C74.9329 24.4745 74.8817 23.1101 74.0084 22.3008Z" fill="#3C9E86" stroke="black" stroke-width="0.9"/>
<path d="M28.2666 47.9053C35.1023 39.2924 45.8628 35.9909 53.8438 40.5986C56.8716 42.3469 59.1121 45.0114 60.5078 48.2031C63.8875 46.6455 67.5728 46.5567 70.6123 48.3115C76.2183 51.5482 77.5005 59.8224 73.4766 66.792C69.4831 73.7085 61.7651 76.7399 56.1689 73.6221C49.3406 82.3619 38.4925 85.7394 30.459 81.1016C27.5652 79.4308 25.3899 76.9228 23.9844 73.918C20.7726 75.2198 17.3402 75.2024 14.4795 73.5508C8.87353 70.3141 7.59132 62.0399 11.6152 55.0703C15.4546 48.4208 22.7373 45.3609 28.2666 47.9053Z" fill="white"/>
<path d="M28.2666 47.9053L28.0785 48.3141L28.3994 48.4618L28.6191 48.185L28.2666 47.9053ZM53.8438 40.5986L54.0688 40.2089L54.0687 40.2089L53.8438 40.5986ZM60.5078 48.2031L60.0955 48.3834L60.2794 48.8039L60.6962 48.6118L60.5078 48.2031ZM70.6123 48.3115L70.8373 47.9218L70.8373 47.9218L70.6123 48.3115ZM73.4766 66.792L73.8663 67.017L73.8663 67.017L73.4766 66.792ZM56.1689 73.6221L56.388 73.229L56.0515 73.0415L55.8143 73.345L56.1689 73.6221ZM30.459 81.1016L30.234 81.4913L30.234 81.4913L30.459 81.1016ZM23.9844 73.918L24.392 73.7273L24.2111 73.3405L23.8153 73.5009L23.9844 73.918ZM14.4795 73.5508L14.2545 73.9405L14.2545 73.9405L14.4795 73.5508ZM11.6152 55.0703L11.2255 54.8453L11.2255 54.8453L11.6152 55.0703ZM28.2666 47.9053L28.6191 48.185C35.3659 39.6841 45.893 36.5279 53.6188 40.9883L53.8438 40.5986L54.0687 40.2089C45.8326 35.4538 34.8387 38.9007 27.9141 47.6255L28.2666 47.9053ZM53.8438 40.5986L53.6187 40.9883C56.5552 42.6839 58.7343 45.2706 60.0955 48.3834L60.5078 48.2031L60.9201 48.0228C59.4899 44.7522 57.188 42.01 54.0688 40.2089L53.8438 40.5986ZM60.5078 48.2031L60.6962 48.6118C63.9716 47.1023 67.4992 47.0338 70.3873 48.7012L70.6123 48.3115L70.8373 47.9218C67.6464 46.0795 63.8034 46.1888 60.3195 47.7944L60.5078 48.2031ZM70.6123 48.3115L70.3873 48.7012C75.7031 51.7703 77.0347 59.7291 73.0869 66.567L73.4766 66.792L73.8663 67.017C77.9662 59.9157 76.7335 51.326 70.8373 47.9218L70.6123 48.3115ZM73.4766 66.792L73.0869 66.567C69.1694 73.3518 61.6958 76.1862 56.388 73.229L56.1689 73.6221L55.9499 74.0152C61.8345 77.2937 69.7968 74.0651 73.8663 67.017L73.4766 66.792ZM56.1689 73.6221L55.8143 73.345C49.0742 81.972 38.4604 85.2013 30.684 80.7118L30.459 81.1016L30.234 81.4913C38.5245 86.2776 49.607 82.7519 56.5236 73.8991L56.1689 73.6221ZM30.459 81.1016L30.684 80.7119C27.8773 79.0914 25.7622 76.6566 24.392 73.7273L23.9844 73.918L23.5768 74.1086C25.0176 77.189 27.253 79.7702 30.234 81.4913L30.459 81.1016ZM23.9844 73.918L23.8153 73.5009C20.7067 74.761 17.4232 74.7307 14.7045 73.1611L14.4795 73.5508L14.2545 73.9405C17.2573 75.6741 20.8386 75.6786 24.1534 74.335L23.9844 73.918ZM14.4795 73.5508L14.7045 73.1611C9.38871 70.0919 8.05707 62.1332 12.0049 55.2953L11.6152 55.0703L11.2255 54.8453C7.12556 61.9466 8.35834 70.5363 14.2545 73.9405L14.4795 73.5508ZM11.6152 55.0703L12.0049 55.2953C15.769 48.7763 22.8272 45.8976 28.0785 48.3141L28.2666 47.9053L28.4547 47.4965C22.6474 44.8242 15.1403 48.0653 11.2255 54.8453L11.6152 55.0703Z" fill="#101828"/>
<path d="M51.6273 68.2134C52.4674 70.4725 53.9509 72.3627 56.0276 73.5617C61.6336 76.7984 69.4402 73.7722 73.4642 66.8025C77.4881 59.8329 76.2056 51.5591 70.5995 48.3225C66.5011 45.9562 61.2265 46.9373 57.1137 50.3594" stroke="#101828" stroke-width="0.9"/>
<path opacity="0.15" fill-rule="evenodd" clip-rule="evenodd" d="M25.2082 75.1836C24.7512 74.9196 24.3118 74.6352 23.8906 74.3322C25.3182 77.2457 27.4778 79.6813 30.3274 81.3266C38.4521 86.0173 49.3406 82.6329 56.2273 73.9593C58.4665 75.1426 61.0073 75.384 63.5117 74.8291L63.5302 74.8251C63.6389 74.8011 63.7474 74.7751 63.8559 74.7481C63.9406 74.7267 64.0253 74.7047 64.1101 74.6817L64.1346 74.6747C64.2256 74.6497 64.3168 74.6237 64.4075 74.5967L64.435 74.5887C64.5005 74.5692 64.5657 74.5492 64.631 74.5277L64.7015 74.5052L64.7365 74.4937C64.8162 74.4677 64.8954 74.4407 64.9749 74.4132L65.0554 74.3847C65.1292 74.3587 65.2024 74.3317 65.2759 74.3042L65.3404 74.2802C65.4164 74.2512 65.4921 74.2222 65.5678 74.1917L65.6538 74.1572L65.8428 74.0788L65.8593 74.0713L65.9543 74.0303L66.1283 73.9528L66.2642 73.8908L66.4192 73.8178L66.5582 73.7503L66.7092 73.6753L66.8476 73.6048L67.0051 73.5218L67.1441 73.4464L67.2736 73.3749L67.3661 73.3224L67.4655 73.2659L67.542 73.2209C67.6123 73.1799 67.6825 73.1379 67.7525 73.0954L67.8325 73.0464C67.8742 73.0209 67.9157 72.9944 67.957 72.9679L68.0245 72.9259L68.1339 72.8555L68.2834 72.757L68.4234 72.6635C68.4759 72.628 68.5281 72.5915 68.5804 72.555L68.6814 72.484C68.7478 72.437 68.8143 72.3895 68.8803 72.341L68.9558 72.2855C69.0273 72.2326 69.098 72.1786 69.1688 72.1241L69.2133 72.0901L69.3435 71.9886L69.4512 71.9026L69.4817 71.8781C69.5527 71.8211 69.623 71.7626 69.6932 71.7041L69.7652 71.6446C69.8299 71.5902 69.8942 71.5347 69.9582 71.4792L70.0226 71.4227C70.0944 71.3597 70.1656 71.2957 70.2366 71.2312L70.2806 71.1917C70.3433 71.1342 70.4056 71.0757 70.4676 71.0172L70.5496 70.9398C71.7376 69.8044 72.8052 68.4587 73.6891 66.9279C77.3112 60.6539 76.7121 53.2626 72.4608 49.3667C72.3818 49.2943 72.3013 49.2233 72.2198 49.1533C71.8601 48.8443 71.4754 48.5604 71.067 48.3024C70.9565 48.2324 70.8445 48.1639 70.7305 48.098C70.647 48.05 70.5631 48.0035 70.4786 47.958L70.3996 47.916L70.2699 47.8485C71.5474 51.7044 71.041 56.5046 68.5699 60.7849C67.686 62.3157 66.6184 63.6614 65.4304 64.7968L65.3484 64.8742C65.2864 64.9327 65.2241 64.9912 65.1614 65.0487L65.1174 65.0882L64.9977 65.1962L64.9034 65.2797L64.839 65.3362C64.775 65.3917 64.7107 65.4471 64.646 65.5016L64.574 65.5611C64.5038 65.6196 64.4335 65.6781 64.3625 65.7351L64.332 65.7596C64.253 65.8231 64.1738 65.8856 64.0941 65.9471L64.0496 65.9811C63.9788 66.0356 63.9081 66.0895 63.8366 66.1425L63.7611 66.198C63.6951 66.2465 63.6286 66.294 63.5622 66.341L63.4612 66.412C63.4089 66.4485 63.3567 66.485 63.3042 66.5205L63.1642 66.614L63.0147 66.7124L62.9053 66.7829L62.793 66.8534L62.7133 66.9034L62.6333 66.9524L62.5546 66.9994C62.5108 67.0259 62.4668 67.0524 62.4228 67.0779L62.3463 67.1229L62.2604 67.1719L62.1544 67.2319L62.0249 67.3033L61.8859 67.3788L61.7284 67.4618L61.59 67.5323L61.439 67.6073L61.3 67.6748L61.145 67.7478L61.0091 67.8098L60.8351 67.8873L60.7401 67.9282L60.7236 67.9357L60.5346 68.0142L60.4486 68.0487L60.3647 68.0817L60.2212 68.1372L60.1567 68.1612C60.0832 68.1887 60.01 68.2157 59.9362 68.2417L59.8557 68.2702L59.7605 68.3032L59.6173 68.3507L59.5823 68.3622L59.4905 68.3917L59.3158 68.4457L59.2883 68.4537C59.1976 68.4807 59.1064 68.5067 59.0154 68.5317L58.9909 68.5386C58.7979 68.5911 58.6047 68.6391 58.411 68.6821L58.3925 68.6861C55.8881 69.241 53.3473 68.9996 51.1081 67.8163C44.2214 76.4899 33.3329 79.8743 25.2082 75.1836ZM55.7869 41.6085C55.6956 41.6465 55.6044 41.685 55.5134 41.725C55.4372 41.5575 55.3587 41.391 55.278 41.2266C55.4507 41.3505 55.6204 41.478 55.7869 41.6085Z" fill="#101828"/>
<mask id="mask0_17403_3216" style="mask-type:alpha" maskUnits="userSpaceOnUse" x="8" y="38" width="69" height="46">
<path d="M28.2754 47.9102C35.1109 39.2939 45.8731 35.9901 53.8555 40.5986C56.8818 42.346 59.1217 45.0087 60.5176 48.1982C63.8945 46.6451 67.5758 46.5584 70.6123 48.3115C76.2183 51.5482 77.5005 59.8224 73.4766 66.792C69.4852 73.7049 61.7732 76.7367 56.1777 73.627C49.3492 82.3635 38.5028 85.7387 30.4707 81.1016C27.5755 79.43 25.4006 76.9199 23.9951 73.9131C20.7802 75.2194 17.3435 75.2043 14.4795 73.5508C8.87352 70.3141 7.59131 62.0399 11.6152 55.0703C15.4567 48.4171 22.7449 45.3582 28.2754 47.9102Z" fill="white"/>
<path d="M28.2754 47.9102L28.0868 48.3188L28.4081 48.467L28.6279 48.1898L28.2754 47.9102ZM53.8555 40.5986L54.0805 40.2089L54.0805 40.2089L53.8555 40.5986ZM60.5176 48.1982L60.1053 48.3787L60.2891 48.7986L60.7056 48.6071L60.5176 48.1982ZM70.6123 48.3115L70.8373 47.9218L70.8373 47.9218L70.6123 48.3115ZM73.4766 66.792L73.8663 67.017L73.8663 67.017L73.4766 66.792ZM56.1777 73.627L56.3963 73.2336L56.0601 73.0467L55.8232 73.3498L56.1777 73.627ZM30.4707 81.1016L30.2457 81.4913L30.2457 81.4913L30.4707 81.1016ZM23.9951 73.9131L24.4028 73.7225L24.2218 73.3353L23.8257 73.4962L23.9951 73.9131ZM14.4795 73.5508L14.2545 73.9405L14.2545 73.9405L14.4795 73.5508ZM11.6152 55.0703L11.2255 54.8453L11.2255 54.8453L11.6152 55.0703ZM28.2754 47.9102L28.6279 48.1898C35.3746 39.6856 45.9034 36.5271 53.6305 40.9883L53.8555 40.5986L54.0805 40.2089C45.8429 35.453 34.8472 38.9023 27.9229 47.6305L28.2754 47.9102ZM53.8555 40.5986L53.6305 40.9883C56.5655 42.683 58.7439 45.268 60.1053 48.3787L60.5176 48.1982L60.9298 48.0178C59.4994 44.7494 57.1982 42.0091 54.0805 40.2089L53.8555 40.5986ZM60.5176 48.1982L60.7056 48.6071C63.9783 47.1019 67.502 47.0354 70.3873 48.7012L70.6123 48.3115L70.8373 47.9218C67.6495 46.0814 63.8108 46.1883 60.3295 47.7894L60.5176 48.1982ZM70.6123 48.3115L70.3873 48.7012C75.7031 51.7704 77.0347 59.7291 73.0869 66.567L73.4766 66.792L73.8663 67.017C77.9662 59.9157 76.7335 51.326 70.8373 47.9218L70.6123 48.3115ZM73.4766 66.792L73.0869 66.567C69.1715 73.3482 61.7036 76.1832 56.3963 73.2336L56.1777 73.627L55.9591 74.0203C61.8429 77.2903 69.7989 74.0615 73.8663 67.017L73.4766 66.792ZM56.1777 73.627L55.8232 73.3498C49.0829 81.9735 38.4709 85.2006 30.6957 80.7118L30.4707 81.1016L30.2457 81.4913C38.5348 86.2768 49.6155 82.7535 56.5323 73.9041L56.1777 73.627ZM30.4707 81.1016L30.6957 80.7119C27.8877 79.0907 25.773 76.6539 24.4028 73.7225L23.9951 73.9131L23.5875 74.1036C25.0282 77.1859 27.2632 79.7693 30.2457 81.4913L30.4707 81.1016ZM23.9951 73.9131L23.8257 73.4962C20.7139 74.7606 17.4262 74.7324 14.7045 73.1611L14.4795 73.5508L14.2545 73.9405C17.2607 75.6761 20.8466 75.6782 24.1645 74.33L23.9951 73.9131ZM14.4795 73.5508L14.7045 73.1611C9.3887 70.092 8.05707 62.1332 12.0049 55.2953L11.6152 55.0703L11.2255 54.8453C7.12556 61.9466 8.35833 70.5363 14.2545 73.9405L14.4795 73.5508ZM11.6152 55.0703L12.0049 55.2953C15.771 48.7727 22.8345 45.8951 28.0868 48.3188L28.2754 47.9102L28.4639 47.5016C22.6554 44.8213 15.1424 48.0616 11.2255 54.8453L11.6152 55.0703Z" fill="#101828"/>
<path d="M51.6273 68.2134C52.4674 70.4725 53.9509 72.3627 56.0276 73.5617C61.6336 76.7984 69.4402 73.7722 73.4642 66.8025C77.4881 59.8329 76.2056 51.5591 70.5995 48.3225C66.5011 45.9562 61.2265 46.9373 57.1137 50.3594" stroke="#101828" stroke-width="0.9"/>
<path opacity="0.15" fill-rule="evenodd" clip-rule="evenodd" d="M25.2082 75.1914C24.7512 74.9274 24.3118 74.643 23.8906 74.34C25.3182 77.2536 27.4778 79.6892 30.3274 81.3344C38.4521 86.0251 49.3406 82.6407 56.2273 73.9671C58.4665 75.1504 61.0073 75.3919 63.5117 74.8369L63.5302 74.8329C63.6389 74.809 63.7474 74.783 63.8559 74.756C63.9406 74.7345 64.0253 74.7125 64.1101 74.6895L64.1346 74.6825C64.2256 74.6575 64.3168 74.6315 64.4075 74.6045L64.435 74.5965C64.5005 74.577 64.5657 74.557 64.631 74.5355L64.7015 74.513L64.7365 74.5015C64.8162 74.4755 64.8954 74.4485 64.9749 74.421L65.0554 74.3925C65.1292 74.3665 65.2024 74.3395 65.2759 74.312L65.3404 74.288C65.4164 74.259 65.4921 74.23 65.5678 74.1995L65.6538 74.1651L65.8428 74.0866L65.8593 74.0791L65.9543 74.0381L66.1283 73.9606L66.2642 73.8986L66.4192 73.8256L66.5582 73.7581L66.7092 73.6831L66.8476 73.6126L67.0051 73.5297L67.1441 73.4542L67.2736 73.3827L67.3661 73.3302L67.4655 73.2737L67.542 73.2287C67.6123 73.1877 67.6825 73.1457 67.7525 73.1032L67.8325 73.0542C67.8742 73.0287 67.9157 73.0022 67.957 72.9757L68.0245 72.9338L68.1339 72.8633L68.2834 72.7648L68.4234 72.6713C68.4759 72.6358 68.5281 72.5993 68.5804 72.5628L68.6814 72.4918C68.7478 72.4448 68.8143 72.3973 68.8803 72.3488L68.9558 72.2934C69.0273 72.2404 69.098 72.1864 69.1688 72.1319L69.2133 72.0979L69.3435 71.9964L69.4512 71.9104L69.4817 71.8859C69.5527 71.8289 69.623 71.7704 69.6932 71.712L69.7652 71.6525C69.8299 71.598 69.8942 71.5425 69.9582 71.487L70.0226 71.4305C70.0944 71.3675 70.1656 71.3035 70.2366 71.239L70.2806 71.1995C70.3433 71.142 70.4056 71.0836 70.4676 71.0251L70.5496 70.9476C71.7376 69.8123 72.8052 68.4665 73.6891 66.9357C77.3112 60.6617 76.7121 53.2704 72.4608 49.3746C72.3818 49.3021 72.3013 49.2311 72.2198 49.1611C71.8601 48.8521 71.4754 48.5682 71.067 48.3102C70.9565 48.2402 70.8445 48.1718 70.7305 48.1058C70.647 48.0578 70.5631 48.0113 70.4786 47.9658L70.3996 47.9238L70.2699 47.8563C71.5474 51.7122 71.041 56.5124 68.5699 60.7927C67.686 62.3235 66.6184 63.6693 65.4304 64.8046L65.3484 64.8821C65.2864 64.9405 65.2241 64.999 65.1614 65.0565L65.1174 65.096L64.9977 65.204L64.9034 65.2875L64.839 65.344C64.775 65.3995 64.7107 65.455 64.646 65.5095L64.574 65.5689C64.5038 65.6274 64.4335 65.6859 64.3625 65.7429L64.332 65.7674C64.253 65.8309 64.1738 65.8934 64.0941 65.9549L64.0496 65.9889C63.9788 66.0434 63.9081 66.0974 63.8366 66.1503L63.7611 66.2058C63.6951 66.2543 63.6286 66.3018 63.5622 66.3488L63.4612 66.4198C63.4089 66.4563 63.3567 66.4928 63.3042 66.5283L63.1642 66.6218L63.0147 66.7203L62.9053 66.7907L62.793 66.8612L62.7133 66.9112L62.6333 66.9602L62.5546 67.0072C62.5108 67.0337 62.4668 67.0602 62.4228 67.0857L62.3463 67.1307L62.2604 67.1797L62.1544 67.2397L62.0249 67.3112L61.8859 67.3866L61.7284 67.4696L61.59 67.5401L61.439 67.6151L61.3 67.6826L61.145 67.7556L61.0091 67.8176L60.8351 67.8951L60.7401 67.9361L60.7236 67.9436L60.5346 68.022L60.4486 68.0565L60.3647 68.0895L60.2212 68.145L60.1567 68.169C60.0832 68.1965 60.01 68.2235 59.9362 68.2495L59.8557 68.278L59.7605 68.311L59.6173 68.3585L59.5823 68.37L59.4905 68.3995L59.3158 68.4535L59.2883 68.4615C59.1976 68.4885 59.1064 68.5145 59.0154 68.5395L58.9909 68.5465C58.7979 68.599 58.6047 68.6469 58.411 68.6899L58.3925 68.6939C55.8881 69.2488 53.3473 69.0074 51.1081 67.8241C44.2214 76.4977 33.3329 79.8821 25.2082 75.1914ZM55.7869 41.6163C55.6956 41.6543 55.6044 41.6928 55.5134 41.7328C55.4372 41.5653 55.3587 41.3988 55.278 41.2344C55.4507 41.3584 55.6204 41.4858 55.7869 41.6163Z" fill="#101828"/>
</mask>
<g mask="url(#mask0_17403_3216)">
<path d="M46.0732 33.4479C42.2399 29.6152 37.1756 27.6094 32.1112 27.6094C27.0469 27.6094 21.9822 29.6152 18.1492 33.4479C10.3565 41.2409 10.3565 53.5791 18.1492 61.3718C22.0058 65.2281 27.0469 67.2339 32.1112 67.2339C37.1756 67.2339 42.2166 65.2281 46.0732 61.3718C53.866 53.5791 53.866 41.2409 46.0732 33.4479ZM21.4248 36.7238C24.3754 33.7965 28.2317 32.209 32.1112 32.209C35.1546 32.209 38.221 33.2157 40.8695 35.0976L32.1112 43.8556L19.7986 56.1681C15.4381 50.0067 16.0772 42.0949 21.4248 36.7238ZM42.7974 58.0963C39.8471 61.0235 35.9908 62.611 32.1112 62.611C29.0679 62.611 26.0015 61.6043 23.3529 59.7224L44.4238 38.6519C48.7841 44.813 48.1453 52.7248 42.7974 58.0963Z" fill="black" stroke="black" stroke-width="0.9"/>
</g>
<path d="M43.0186 33.4401C39.1852 29.6074 34.1209 27.6016 29.0565 27.6016C23.9922 27.6016 18.9276 29.6074 15.0945 33.4401C7.30182 41.2331 7.30182 53.5713 15.0945 61.364C18.9511 65.2203 23.9922 67.2261 29.0565 67.2261C34.1209 67.2261 39.162 65.2203 43.0186 61.364C50.8113 53.5713 50.8113 41.2331 43.0186 33.4401ZM18.3701 36.7159C21.3207 33.7887 25.177 32.2012 29.0565 32.2012C32.0999 32.2012 35.1663 33.2079 37.8148 35.0898L29.0565 43.8478L16.744 56.1603C12.3834 49.9989 13.0225 42.0871 18.3701 36.7159ZM39.7427 58.0884C36.7924 61.0157 32.9361 62.6032 29.0565 62.6032C26.0132 62.6032 22.9468 61.5965 20.2982 59.7146L41.3691 38.6441C45.7294 44.8052 45.0906 52.717 39.7427 58.0884Z" fill="#FFCA00" stroke="black" stroke-width="0.9"/>
</g>
<defs>
<clipPath id="clip0_17403_3216">
<rect width="90" height="90" fill="white"/>
</clipPath>
</defs>
</svg>
