<svg width="81" height="68" viewBox="0 0 81 68" fill="none" xmlns="http://www.w3.org/2000/svg">
<g clip-path="url(#clip0_10183_7912)">
<path d="M2.98828 33.1627C2.98828 20.6384 13.1963 10.4855 25.7886 10.4855C38.3809 10.4855 48.5889 20.6384 48.5889 33.1627V61.0763H2.98828V33.1627Z" fill="white" stroke="black" stroke-width="0.5"/>
<path opacity="0.1" fill-rule="evenodd" clip-rule="evenodd" d="M25.7886 10.4855C13.1963 10.4855 2.98828 20.6382 2.98828 33.1627V61.0763H12.8237V33.1627C12.8237 22.3174 20.4779 13.2506 30.7063 11.0144C29.1225 10.6679 27.477 10.4855 25.7886 10.4855Z" fill="black" stroke="black" stroke-width="0.5"/>
<path d="M12.4166 60.2374V46.8182H7.40214C6.94061 46.8182 6.56641 47.1938 6.56641 47.6569V60.2374C6.56641 60.7006 6.94061 61.0761 7.40214 61.0761H13.2523C12.7908 61.0761 12.4166 60.7006 12.4166 60.2374Z" fill="#BFA774"/>
<path d="M45.0117 60.2374V47.6569C45.0117 47.1938 44.6375 46.8182 44.176 46.8182H12.418V60.2374C12.418 60.7006 12.7922 61.0761 13.2537 61.0761H44.176C44.6375 61.0761 45.0117 60.7006 45.0117 60.2374Z" fill="#E7A200"/>
<path d="M44.1748 46.8182C44.6362 46.8184 45.0107 47.194 45.0107 47.6571V60.2372C45.0107 60.7003 44.6362 61.0759 44.1748 61.076H7.40234C6.94081 61.076 6.56641 60.7004 6.56641 60.2372V47.6571C6.56643 47.194 6.94083 46.8182 7.40234 46.8182H44.1748Z" fill="#E7A200"/>
<path d="M44.1748 46.8182L44.1749 46.5682H44.1748V46.8182ZM45.0107 47.6571H45.2607V47.6571L45.0107 47.6571ZM44.1748 61.076V61.326H44.1749L44.1748 61.076ZM6.56641 47.6571L6.31641 47.6571V47.6571H6.56641ZM44.1748 46.8182L44.1747 47.0682C44.4974 47.0683 44.7607 47.3314 44.7607 47.6571L45.0107 47.6571L45.2607 47.6571C45.2607 47.0567 44.775 46.5684 44.1749 46.5682L44.1748 46.8182ZM45.0107 47.6571H44.7607V60.2372H45.0107H45.2607V47.6571H45.0107ZM45.0107 60.2372H44.7607C44.7607 60.5629 44.4974 60.826 44.1747 60.826L44.1748 61.076L44.1749 61.326C44.7751 61.3259 45.2607 60.8376 45.2607 60.2372H45.0107ZM44.1748 61.076V60.826H7.40234V61.076V61.326H44.1748V61.076ZM7.40234 61.076V60.826C7.0797 60.826 6.81641 60.5631 6.81641 60.2372H6.56641H6.31641C6.31641 60.8376 6.80192 61.326 7.40234 61.326V61.076ZM6.56641 60.2372H6.81641V47.6571H6.56641H6.31641V60.2372H6.56641ZM6.56641 47.6571L6.81641 47.6571C6.81642 47.3312 7.07973 47.0682 7.40234 47.0682V46.8182V46.5682C6.80192 46.5682 6.31644 47.0567 6.31641 47.6571L6.56641 47.6571ZM7.40234 46.8182V47.0682H44.1748V46.8182V46.5682H7.40234V46.8182Z" fill="black"/>
<path d="M39.1549 29.8544C39.1316 29.3967 38.7884 29.0196 38.3366 28.955C33.473 28.2583 28.2964 30.822 25.696 33.7157C24.1578 35.4273 23.5223 37.219 23.906 38.7608C24.5947 41.5239 26.1301 42.4059 26.9843 42.6858C27.3504 42.806 27.7313 42.864 28.1081 42.864C28.89 42.864 29.6523 42.6128 30.2184 42.1397C31.4825 41.0826 32.518 39.0954 33.6142 36.9911C35.0047 34.3226 36.5807 31.2979 38.4331 30.8332C38.8761 30.7223 39.1787 30.312 39.1549 29.8544Z" fill="#137159" stroke="#101828" stroke-width="0.5"/>
<path d="M25.8781 33.7157C23.2777 30.822 18.1007 28.2583 13.2375 28.955C12.7857 29.0196 12.443 29.3967 12.4192 29.8544C12.3959 30.312 12.6985 30.7223 13.1415 30.8332C14.994 31.2979 16.5695 34.3226 17.9599 36.9911C19.0566 39.0954 20.0917 41.0826 21.3562 42.1397C21.9218 42.6128 22.6842 42.864 23.4661 42.864C23.8429 42.864 24.2243 42.806 24.5903 42.6858C25.444 42.4059 26.9799 41.5239 27.6681 38.7608C28.0523 37.219 27.4164 35.4273 25.8781 33.7157Z" fill="#137159" stroke="#101828" stroke-width="0.5"/>
<mask id="mask0_10183_7912" style="mask-type:alpha" maskUnits="userSpaceOnUse" x="23" y="28" width="17" height="16">
<path d="M39.1549 29.8542C39.1316 29.3966 38.7884 29.0195 38.3366 28.9549C33.473 28.2581 28.2964 30.8219 25.696 33.7155C24.1578 35.4272 23.5223 37.2189 23.906 38.7607C24.5947 41.5238 26.1301 42.4058 26.9843 42.6856C27.3504 42.8059 27.7313 42.8639 28.1081 42.8639C28.89 42.8639 29.6523 42.6126 30.2184 42.1396C31.4825 41.0825 32.518 39.0953 33.6142 36.991C35.0047 34.3224 36.5807 31.2978 38.4331 30.8331C38.8761 30.7222 39.1787 30.3119 39.1549 29.8542Z" fill="#137159" stroke="#101828" stroke-width="0.5"/>
</mask>
<g mask="url(#mask0_10183_7912)">
<path opacity="0.18" d="M41.6812 29.2602C38.7181 29.6323 35.4283 30.8529 32.6567 32.6086C29.6796 34.4941 27.5736 36.8072 26.7253 39.1221C25.6718 41.999 25.8964 44.8241 27.2978 46.32C28.0435 47.1157 29.4514 47.9092 31.9239 47.1695C33.445 46.7145 34.4944 45.6982 35.0426 44.1486C35.488 42.891 35.5683 41.4271 35.6461 40.0114C35.6964 39.0943 35.7442 38.2277 35.8824 37.4303C36.2392 35.3709 38.6198 32.9883 42.2506 31.0576C42.6574 30.8412 42.8518 30.3635 42.712 29.9223C42.5724 29.4815 42.1385 29.2025 41.6812 29.2602Z" fill="#101828"/>
</g>
<mask id="mask1_10183_7912" style="mask-type:alpha" maskUnits="userSpaceOnUse" x="12" y="28" width="17" height="16">
<path d="M12.5521 29.8542C12.5754 29.3966 12.9186 29.0195 13.3704 28.9549C18.2341 28.2581 23.4106 30.8219 26.011 33.7155C27.5492 35.4272 28.1848 37.2189 27.801 38.7607C27.1123 41.5238 25.5769 42.4058 24.7227 42.6856C24.3567 42.8059 23.9757 42.8639 23.599 42.8639C22.817 42.8639 22.0547 42.6126 21.4886 42.1396C20.2246 41.0825 19.189 39.0953 18.0928 36.991C16.7024 34.3224 15.1264 31.2978 13.2739 30.8331C12.8309 30.7222 12.5283 30.3119 12.5521 29.8542Z" fill="#137159" stroke="#101828" stroke-width="0.5"/>
</mask>
<g mask="url(#mask1_10183_7912)">
<path opacity="0.18" d="M10.0258 29.2602C12.9889 29.6323 16.2788 30.8529 19.0504 32.6086C22.0274 34.4941 24.1334 36.8072 24.9818 39.1221C26.0353 41.999 25.8106 44.8241 24.4092 46.32C23.6635 47.1157 22.2557 47.9092 19.7831 47.1695C18.2621 46.7145 17.2126 45.6982 16.6644 44.1486C16.2191 42.891 16.1387 41.4271 16.0609 40.0114C16.0107 39.0943 15.9628 38.2277 15.8247 37.4303C15.4679 35.3709 13.0873 32.9883 9.45644 31.0576C9.04959 30.8412 8.85523 30.3635 8.99501 29.9223C9.13466 29.4815 9.56854 29.2025 10.0258 29.2602Z" fill="#101828"/>
</g>
<path d="M44.0886 33.2944C41.1432 32.8017 37.6415 33.0281 34.483 33.9158C31.0904 34.8689 28.4098 36.4814 26.9336 38.456C25.0998 40.9103 24.5053 43.6813 25.4192 45.5161C25.9055 46.4922 27.0269 47.6559 29.6077 47.6559C31.1953 47.6559 32.492 46.983 33.4614 45.6555C34.2485 44.5784 34.745 43.1989 35.2253 41.8649C35.5363 41.0006 35.8305 40.1841 36.1914 39.4597C37.1235 37.589 40.0871 35.9887 44.119 35.1796C44.5708 35.0889 44.8939 34.6869 44.8864 34.2241C44.879 33.7618 44.5433 33.3702 44.0886 33.2944Z" fill="#3C9E86" stroke="#101828" stroke-width="0.5"/>
<path d="M24.6439 38.4563C23.1681 36.4817 20.4871 34.8692 17.095 33.9161C13.936 33.0284 10.4352 32.8024 7.48932 33.2947C7.03471 33.3705 6.69899 33.7616 6.69153 34.2244C6.68407 34.6872 7.0072 35.0887 7.45901 35.1795C11.4909 35.989 14.4545 37.5888 15.3865 39.46C15.7474 40.1844 16.0412 41.0004 16.3527 41.8647C16.8329 43.1992 17.3295 44.5786 18.1161 45.6558C19.0859 46.9833 20.3826 47.6562 21.9703 47.6562C24.5511 47.6562 25.6725 46.4924 26.1588 45.5163C27.0727 43.6816 26.4782 40.9106 24.6439 38.4563Z" fill="#3C9E86" stroke="#101828" stroke-width="0.5"/>
<path d="M28.4788 32.2216C27.5872 29.4304 26.7452 26.7942 26.7452 24.6572C26.7452 24.1279 26.3176 23.6989 25.7902 23.6989C25.2629 23.6989 24.8353 24.1279 24.8353 24.6572C24.8353 26.7942 23.9932 29.4304 23.1017 32.2216C22.0759 35.4316 21.0156 38.751 21.0156 41.9067C21.0156 46.1508 23.5876 47.6565 25.7902 47.6565C27.9929 47.6565 30.5648 46.1508 30.5648 41.9067C30.5648 38.751 29.5045 35.4316 28.4788 32.2216Z" fill="#3C9E86" stroke="#101828" stroke-width="0.5"/>
<path opacity="0.18" d="M23.8804 41.9067C23.8804 38.751 24.9407 35.4316 25.9665 32.2216C26.4388 30.7425 26.8958 29.3079 27.2226 27.9673C26.9326 26.7778 26.7452 25.6618 26.7452 24.6572C26.7452 24.1279 26.3176 23.6989 25.7902 23.6989C25.2629 23.6989 24.8353 24.1279 24.8353 24.6572C24.8353 26.7942 23.9932 29.4304 23.1017 32.2216C22.0759 35.4316 21.0156 38.751 21.0156 41.9067C21.0156 46.1508 23.5876 47.6565 25.7902 47.6565C26.2602 47.6565 26.7475 47.5873 27.2226 47.438C25.4718 46.8882 23.8804 45.2444 23.8804 41.9067Z" fill="#101828"/>
<path d="M35.9953 43.463C34.152 43.463 32.6523 44.968 32.6523 46.8178C32.6523 48.6676 34.152 50.1726 35.9953 50.1726C37.8386 50.1726 39.3382 48.6676 39.3382 46.8178C39.3382 44.968 37.8386 43.463 35.9953 43.463Z" fill="#FFE382" stroke="#101828" stroke-width="0.5"/>
<path d="M30.8039 43.463C28.9606 43.463 27.4609 44.968 27.4609 46.8178C27.4609 48.6676 28.9606 50.1726 30.8039 50.1726C32.6472 50.1726 34.1468 48.6676 34.1468 46.8178C34.1468 44.968 32.6472 43.463 30.8039 43.463Z" fill="#E7A200" stroke="#101828" stroke-width="0.5"/>
<path d="M15.7403 44.606C14.7308 43.8688 13.4017 43.463 11.9987 43.463C10.5957 43.463 9.26663 43.8688 8.25706 44.606C7.16668 45.4017 6.56641 46.4849 6.56641 47.6565C6.56641 48.8281 7.16668 49.9113 8.25706 50.707C9.26663 51.4442 10.5957 51.85 11.9987 51.85C13.4017 51.85 14.7308 51.4442 15.7403 50.707C16.8307 49.9113 17.431 48.8281 17.431 47.6565C17.431 46.4849 16.8307 45.4017 15.7403 44.606Z" fill="#FECC2F" stroke="#101828" stroke-width="0.5"/>
<path d="M41.2491 45.1406C39.1753 45.1406 37.4883 46.6456 37.4883 48.4954C37.4883 50.3452 39.1753 51.8502 41.2491 51.8502C43.3229 51.8502 45.0099 50.3452 45.0099 48.4954C45.0099 46.6456 43.3229 45.1406 41.2491 45.1406Z" fill="#FECC2F" stroke="#101828" stroke-width="0.5"/>
<path d="M17.8507 44.3016C15.7768 44.3016 14.0898 45.8066 14.0898 47.6564C14.0898 49.5062 15.7768 51.0112 17.8507 51.0112C19.9245 51.0112 21.6115 49.5062 21.6115 47.6564C21.6115 45.8066 19.9245 44.3016 17.8507 44.3016Z" fill="#E7A200" stroke="#101828" stroke-width="0.5"/>
<path d="M28.8698 46.0112C27.7011 45.1492 26.1615 44.6746 24.5336 44.6746C22.9058 44.6746 21.3662 45.1492 20.1974 46.0112C18.9516 46.9302 18.2656 48.1764 18.2656 49.5204C18.2656 50.8645 18.9516 52.1106 20.1974 53.0296C21.3658 53.8917 22.9058 54.3663 24.5336 54.3663C26.1615 54.3663 27.7015 53.8917 28.8698 53.0296C30.1157 52.1106 30.8017 50.8645 30.8017 49.5204C30.8017 48.1764 30.1157 46.9302 28.8698 46.0112Z" fill="#FECC2F" stroke="#101828" stroke-width="0.5"/>
<path d="M34.5649 45.9791C31.1085 45.9791 28.2969 48.2364 28.2969 51.0113C28.2969 53.7862 31.1085 56.0435 34.5649 56.0435C38.0213 56.0435 40.8329 53.7862 40.8329 51.0113C40.8329 48.2364 38.0213 45.9791 34.5649 45.9791Z" fill="#E7A200" stroke="#101828" stroke-width="0.5"/>
<path d="M27.2834 49.9454C25.0162 49.9454 23.1719 51.4599 23.1719 53.3213C23.1719 55.1828 25.0162 56.6972 27.2834 56.6972C29.5506 56.6972 31.3949 55.1828 31.3949 53.3213C31.3949 51.4599 29.5506 49.9454 27.2834 49.9454Z" fill="#FFE382" stroke="#101828" stroke-width="0.5"/>
<path d="M22.4278 49.6383C21.4183 48.9012 20.0892 48.4954 18.6862 48.4954C17.2832 48.4954 15.9541 48.9012 14.9446 49.6383C13.8542 50.434 13.2539 51.5172 13.2539 52.6889C13.2539 53.8605 13.8542 54.9437 14.9446 55.7394C15.9541 56.4765 17.2832 56.8824 18.6862 56.8824C20.0892 56.8824 21.4183 56.4765 22.4278 55.7394C23.5182 54.9437 24.1185 53.8605 24.1185 52.6889C24.1185 51.5172 23.5182 50.434 22.4278 49.6383Z" fill="#FFE382" stroke="#101828" stroke-width="0.5"/>
<rect y="60.1213" width="52.3286" height="7.10281" rx="3.55141" fill="white" stroke="#101828" stroke-width="0.5"/>
<path opacity="0.2" fill-rule="evenodd" clip-rule="evenodd" d="M2.99021 60.3282C1.33876 60.3282 0 61.8345 0 63.6922C0 65.55 1.33876 67.0562 2.99021 67.0562H8.97062C7.31917 67.0562 5.98041 65.55 5.98041 63.6922C5.98041 61.8345 7.31917 60.3282 8.97062 60.3282H2.99021Z" fill="#101828" stroke="#101828" stroke-width="0.5"/>
<mask id="mask2_10183_7912" style="mask-type:alpha" maskUnits="userSpaceOnUse" x="2" y="10" width="47" height="52">
<path d="M2.98828 33.1627C2.98828 20.6384 13.1963 10.4855 25.7886 10.4855C38.3809 10.4855 48.5889 20.6384 48.5889 33.1627V61.0763H2.98828V33.1627Z" fill="white" stroke="black" stroke-width="0.5"/>
</mask>
<g mask="url(#mask2_10183_7912)">
<path opacity="0.14" d="M35.7324 6.2428L35.6784 8.54602C35.5725 13.0564 39.2567 16.7405 43.767 16.6347L46.0703 16.5807L43.767 16.5266C39.2567 16.4208 35.5725 20.1049 35.6784 24.6153L35.7324 26.9185L35.7864 24.6153C35.8923 20.1049 32.2081 16.4208 27.6978 16.5266L25.3945 16.5807L27.6978 16.6347C32.2081 16.7405 35.8923 13.0564 35.7864 8.54602L35.7324 6.2428Z" fill="#101828" stroke="#101828" stroke-width="0.5"/>
</g>
<path d="M37.2285 4L37.1744 6.30322C37.0686 10.8136 40.7528 14.4977 45.2631 14.3919L47.5664 14.3379L45.2631 14.2838C40.7528 14.178 37.0686 17.8621 37.1744 22.3725L37.2285 24.6757L37.2825 22.3725C37.3884 17.8621 33.7042 14.178 29.1938 14.2838L26.8906 14.3379L29.1938 14.3919C33.7042 14.4977 37.3884 10.8136 37.2825 6.30322L37.2285 4Z" fill="white" stroke="#101828" stroke-width="0.5"/>
</g>
<defs>
<clipPath id="clip0_10183_7912">
<rect width="81" height="68" fill="white"/>
</clipPath>
</defs>
</svg>
