<svg width="81" height="68" viewBox="0 0 81 68" fill="none" xmlns="http://www.w3.org/2000/svg">
<g clip-path="url(#clip0_10183_7906)">
<path d="M30.7051 21.2589C35.73 17.7124 41.4466 16.7382 45.8389 19.2579C52.7293 23.2109 53.7525 34.267 48.125 43.9523C42.4974 53.6376 32.3495 58.2851 25.459 54.3322C24.5157 53.791 23.6833 53.1158 22.9619 52.3302C17.937 55.8766 12.2213 56.8519 7.8291 54.3322C0.938873 50.3791 -0.0845359 39.323 5.54297 29.6378C11.1706 19.9525 21.3185 15.3051 28.209 19.2579C29.1518 19.7988 29.9839 20.4738 30.7051 21.2589Z" fill="white"/>
<path d="M30.7051 21.2589L30.521 21.428L30.6696 21.5899L30.8492 21.4632L30.7051 21.2589ZM45.8389 19.2579L45.9633 19.0411L45.9633 19.0411L45.8389 19.2579ZM48.125 43.9523L48.3412 44.0779L48.3412 44.0779L48.125 43.9523ZM25.459 54.3322L25.3346 54.549L25.3346 54.549L25.459 54.3322ZM22.9619 52.3302L23.1461 52.1611L22.9974 51.9992L22.8178 52.1259L22.9619 52.3302ZM7.8291 54.3322L7.70469 54.549L7.7047 54.549L7.8291 54.3322ZM5.54297 29.6378L5.32681 29.5122L5.32681 29.5122L5.54297 29.6378ZM28.209 19.2579L28.3334 19.0411L28.3334 19.0411L28.209 19.2579ZM30.7051 21.2589L30.8492 21.4632C35.8276 17.9495 41.4366 17.0207 45.7145 19.4748L45.8389 19.2579L45.9633 19.0411C41.4566 16.4557 35.6324 17.4753 30.5609 21.0547L30.7051 21.2589ZM45.8389 19.2579L45.7145 19.4748C49.0706 21.4002 51.0188 25.0668 51.4272 29.4785C51.8355 33.8896 50.6996 39.0235 47.9088 43.8267L48.125 43.9523L48.3412 44.0779C51.1779 39.1957 52.3441 33.9589 51.9251 29.4324C51.5061 24.9065 49.4976 21.0687 45.9633 19.0411L45.8389 19.2579ZM48.125 43.9523L47.9088 43.8267C45.118 48.6298 41.2111 52.1747 37.1615 54.0293C33.111 55.8842 28.9399 56.0409 25.5834 54.1153L25.459 54.3322L25.3346 54.549C28.8686 56.5764 33.2166 56.3858 37.3697 54.4839C41.5235 52.5816 45.5044 48.9601 48.3412 44.0779L48.125 43.9523ZM25.459 54.3322L25.5834 54.1153C24.6632 53.5874 23.8507 52.9286 23.1461 52.1611L22.9619 52.3302L22.7778 52.4993C23.5158 53.3031 24.3683 53.9946 25.3346 54.549L25.459 54.3322ZM22.9619 52.3302L22.8178 52.1259C17.8394 55.6395 12.2313 56.5694 7.9535 54.1153L7.8291 54.3322L7.7047 54.549C12.2113 57.1344 18.0347 56.1137 23.1061 52.5345L22.9619 52.3302ZM7.8291 54.3322L7.95351 54.1153C4.5975 52.1899 2.64923 48.5232 2.24082 44.1115C1.83247 39.7004 2.96833 34.5665 5.75913 29.7634L5.54297 29.6378L5.32681 29.5122C2.4901 34.3943 1.32392 39.6311 1.74295 44.1576C2.16193 48.6835 4.17048 52.5213 7.70469 54.549L7.8291 54.3322ZM5.54297 29.6378L5.75913 29.7634C8.54996 24.9603 12.4568 21.4154 16.5065 19.5609C20.5569 17.7059 24.7281 17.5492 28.0846 19.4748L28.209 19.2579L28.3334 19.0411C24.7994 17.0138 20.4513 17.2043 16.2983 19.1063C12.1445 21.0085 8.16357 24.63 5.32681 29.5122L5.54297 29.6378ZM28.209 19.2579L28.0846 19.4748C29.0044 20.0024 29.8165 20.661 30.521 21.428L30.7051 21.2589L30.8892 21.0898C30.1514 20.2865 29.2993 19.5952 28.3334 19.0411L28.209 19.2579Z" fill="#101828"/>
<path d="M20.1625 47.1223C21.0344 50.2525 22.8147 52.8156 25.459 54.3325C32.3495 58.2855 42.4974 53.6384 48.1251 43.9531C53.7527 34.2677 52.7289 23.2116 45.8384 19.2587C40.2615 16.0593 32.5508 18.4935 26.8298 24.6729" stroke="#101828" stroke-width="0.5"/>
<path d="M7.90041 54.3325C5.25614 52.8156 3.47586 50.2525 2.6039 47.1223M28.2798 19.2587C22.7029 16.0593 14.9922 18.4935 9.27125 24.6729" stroke="#101828" stroke-width="0.5"/>
<mask id="mask0_10183_7906" style="mask-type:alpha" maskUnits="userSpaceOnUse" x="1" y="17" width="51" height="39">
<path d="M40.0469 17.6692C40.5169 17.6571 40.9829 17.6708 41.4434 17.7112C41.4483 17.7116 41.4531 17.7127 41.458 17.7131C41.7577 17.7398 42.055 17.7779 42.3496 17.8274C42.3626 17.8296 42.3757 17.831 42.3887 17.8333L42.5352 17.8596C42.6354 17.8782 42.7354 17.8979 42.835 17.9192C42.8532 17.9231 42.8714 17.9269 42.8896 17.9309C43.0225 17.96 43.1546 17.9917 43.2861 18.0256C43.2988 18.0289 43.3115 18.0321 43.3242 18.0354C43.4633 18.0718 43.6017 18.1107 43.7393 18.1526C43.7612 18.1593 43.7828 18.1672 43.8047 18.1741C43.913 18.2078 44.0207 18.2433 44.1279 18.2805C44.1669 18.294 44.2063 18.3066 44.2451 18.3206C44.3657 18.364 44.4853 18.4104 44.6045 18.4583C44.6362 18.471 44.6676 18.4843 44.6992 18.4973C44.7993 18.5386 44.8991 18.5808 44.998 18.6252C45.0368 18.6427 45.0756 18.6601 45.1143 18.678C45.2251 18.7294 45.3349 18.7836 45.4443 18.8391C45.4848 18.8596 45.5251 18.8805 45.5654 18.9016C45.664 18.9531 45.7621 19.0059 45.8594 19.0608C45.8823 19.0737 45.9058 19.0857 45.9287 19.0989C46.2033 19.2564 46.4675 19.4266 46.7236 19.6057C46.8159 19.6702 46.9072 19.7358 46.9971 19.803C47.3494 20.0665 47.6839 20.3495 47.999 20.6526C48.4889 21.1237 48.9325 21.6418 49.332 22.1995C49.7366 22.7641 50.0961 23.3692 50.4072 24.011C50.7427 24.703 51.0231 25.4367 51.249 26.2043C51.3243 26.4601 51.394 26.7196 51.457 26.9827C51.5831 27.509 51.6848 28.0494 51.7617 28.6018C51.8002 28.8782 51.8323 29.1576 51.8584 29.4397C52.2759 33.951 51.1137 39.1745 48.2832 44.0461C45.4524 48.9179 41.481 52.53 37.3408 54.426C33.2013 56.3218 28.876 56.5073 25.3652 54.4934C25.3356 54.4764 25.3068 54.458 25.2773 54.4407C25.2141 54.4036 25.1511 54.3666 25.0889 54.3284C25.0438 54.3006 24.9996 54.2718 24.9551 54.2434C24.2169 53.7743 23.5522 53.2204 22.958 52.5959C22.9504 52.5879 22.9422 52.5805 22.9346 52.5725C17.9066 56.0686 12.1735 57.0393 7.73535 54.4934C4.22451 52.4792 2.22332 48.6634 1.80566 44.1526C1.3881 39.6413 2.55122 34.4178 5.38184 29.5461C8.21249 24.6746 12.1833 21.0633 16.3232 19.1672C18.3917 18.22 20.5066 17.6997 22.543 17.6672C24.607 17.6232 26.5917 18.0802 28.3691 19.0999L28.3506 19.1301C29.2414 19.6481 30.0334 20.2848 30.7275 21.0188C30.8119 20.9602 30.8977 20.9041 30.9824 20.8469C31.0686 20.7887 31.1547 20.7308 31.2412 20.6741C31.3196 20.6227 31.3988 20.5729 31.4775 20.5227C31.5916 20.45 31.7056 20.378 31.8203 20.3079C31.8957 20.2618 31.9712 20.2161 32.0469 20.1711C32.1462 20.1121 32.246 20.0544 32.3457 19.9973C32.714 19.7865 33.0845 19.5891 33.457 19.4055C33.5266 19.3712 33.5963 19.3373 33.666 19.304C33.7704 19.254 33.8749 19.2052 33.9795 19.1575C34.0689 19.1167 34.1584 19.0766 34.248 19.0374C34.3522 18.9918 34.4562 18.947 34.5605 18.9036C34.6905 18.8495 34.821 18.798 34.9512 18.7473C34.9963 18.7298 35.0408 18.7108 35.0859 18.6936C35.2664 18.6251 35.4472 18.5602 35.6279 18.4983C35.7228 18.4658 35.8182 18.4362 35.9131 18.4055C36.0027 18.3766 36.092 18.3478 36.1816 18.3206C36.282 18.29 36.3821 18.2602 36.4824 18.2317C36.5712 18.2065 36.6602 18.183 36.749 18.1594C36.8475 18.1333 36.9455 18.1064 37.0439 18.0823C37.2173 18.0398 37.3904 18.0002 37.5635 17.9641C37.6464 17.9468 37.7297 17.9321 37.8125 17.9163C37.9132 17.897 38.0137 17.8776 38.1143 17.8606C38.209 17.8445 38.3039 17.8307 38.3984 17.8167C38.4992 17.8016 38.5997 17.7874 38.7002 17.7747C38.7892 17.7633 38.878 17.752 38.9668 17.7424C39.0717 17.7311 39.1766 17.7229 39.2812 17.7141C39.3641 17.7071 39.4466 17.698 39.5293 17.6926C39.7023 17.6813 39.8749 17.6736 40.0469 17.6692Z" fill="#101828"/>
</mask>
<g mask="url(#mask0_10183_7906)">
<path opacity="0.25" d="M30.7469 68.5698C25.7401 68.5698 21.6813 64.511 21.6813 59.5042C21.6813 54.4974 25.7401 50.4386 30.7469 50.4386C35.7537 50.4386 39.8125 54.4974 39.8125 59.5042C39.8125 64.511 35.7537 68.5698 30.7469 68.5698Z" fill="#101828" stroke="#101828" stroke-width="0.5"/>
<path opacity="0.25" d="M11.3055 68.5698C6.29874 68.5698 2.23994 64.511 2.23994 59.5042C2.23994 54.4974 6.29874 50.4386 11.3055 50.4386C16.3123 50.4386 20.3711 54.4974 20.3711 59.5042C20.3711 64.511 16.3123 68.5698 11.3055 68.5698Z" fill="#101828" stroke="#101828" stroke-width="0.5"/>
</g>
<path opacity="0.15" d="M36.085 18.5422C39.5261 17.4591 42.9645 17.6121 45.8369 19.26C52.7273 23.213 53.7516 34.269 48.124 43.9543C42.899 52.9468 33.7777 57.5936 26.9844 55.0491C31.7975 53.5337 36.6161 49.6006 39.8975 43.9534C45.5251 34.268 44.5009 23.212 37.6104 19.259C37.1176 18.9764 36.6081 18.7382 36.085 18.5422Z" fill="#101828"/>
<path opacity="0.15" fill-rule="evenodd" clip-rule="evenodd" d="M61.7266 9.71851C61.7447 9.72677 61.7629 9.73507 61.781 9.74342L61.8421 9.77182C61.8652 9.78266 61.8881 9.79364 61.9111 9.80468L61.9498 9.82332L61.9686 9.83236C61.9265 9.81206 61.8844 9.7917 61.8421 9.77182C61.8096 9.75653 61.777 9.74151 61.7444 9.7266L61.7266 9.71851Z" fill="#101828"/>
<path d="M44.9285 57.9931H41.0938V58.757H48.0155V24.4067H44.9285V57.9931Z" fill="#E6D0F3" stroke="#101828" stroke-width="0.5"/>
<path d="M49.9276 24.4064H56.2923C64.8716 24.4064 72.0021 30.6063 73.4491 38.77C73.653 39.92 74.3955 40.9024 75.4572 41.3891C76.7114 41.9638 77.5156 43.2168 77.5156 44.5963V58.7569H73.7181H70.6239H47.5261V26.8079C47.5263 25.4816 48.6013 24.4064 49.9276 24.4064Z" fill="#E6D0F3" stroke="#101828" stroke-width="0.5"/>
<path d="M75.4572 41.3887C75.6883 41.579 75.1781 41.2609 75.4572 41.3887C76.7114 41.9634 77.5156 43.2164 77.5156 44.5959V58.7565H73.7183H70.6241H47.5263V41.3888L75.4572 41.3887Z" fill="#101828" fill-opacity="0.12"/>
<path d="M51.8229 39.5751H69.418C69.418 32.7967 63.923 28.0496 57.1446 28.0496H55.1022C53.2911 28.0496 51.8229 29.5177 51.8229 31.3287V39.5751Z" fill="#101828" stroke="#101828" stroke-width="0.5" stroke-linejoin="round"/>
<path d="M69.9913 46.2092C71.2755 46.2092 72.3164 45.1682 72.3164 43.8841V43.1588C72.3164 41.8747 71.2755 40.8337 69.9913 40.8337C69.646 40.8337 69.3659 41.1138 69.3659 41.4591V45.5838C69.3659 45.9291 69.646 46.2092 69.9913 46.2092Z" fill="#E6D0F3" stroke="#101828" stroke-width="0.5"/>
<path d="M47.4656 58.7562H72.5469C72.5469 51.8301 66.9323 46.2156 60.0062 46.2156C58.82 46.2156 57.671 46.38 56.5813 46.6901C51.3192 48.1797 47.4656 53.018 47.4656 58.7562Z" fill="#CD90E3" stroke="#101828" stroke-width="0.5"/>
<path d="M74.6211 55.0083H0.85614V59.2499H74.6211V55.0083Z" fill="#CD90E3" stroke="#101828" stroke-width="0.5"/>
<path d="M14.9852 67.8223C9.97842 67.8223 5.91963 63.7635 5.91963 58.7567C5.91963 53.75 9.97842 49.6912 14.9852 49.6912C19.992 49.6912 24.0508 53.75 24.0508 58.7567C24.0508 63.7635 19.992 67.8223 14.9852 67.8223Z" fill="#101828" stroke="#101828" stroke-width="0.5"/>
<path d="M14.9887 64.0847C12.0462 64.0847 9.66091 61.6994 9.66091 58.7569C9.66091 55.8145 12.0462 53.4292 14.9887 53.4292C17.9311 53.4292 20.3164 55.8145 20.3164 58.7569C20.3164 61.6994 17.9311 64.0847 14.9887 64.0847Z" fill="#CD90E3" stroke="#101828" stroke-width="0.5"/>
<path d="M14.9861 61.8529C13.2763 61.8529 11.8902 60.4668 11.8902 58.7569C11.8902 57.0471 13.2763 55.661 14.9861 55.661C16.6959 55.661 18.082 57.0471 18.082 58.7569C18.082 60.4668 16.6959 61.8529 14.9861 61.8529Z" fill="#E6D0F3" stroke="#101828" stroke-width="0.5"/>
<path opacity="0.4" d="M10.2004 61.0946L13.6819 57.6132C14.0004 57.2494 14.467 57.0186 14.9886 57.0186C15.9484 57.0186 16.7266 57.7967 16.7266 58.7566C16.7266 59.2781 16.4957 59.7446 16.132 60.0633L12.6505 63.5447C11.5861 63.024 10.7211 62.1592 10.2004 61.0946Z" fill="white"/>
<path d="M14.9886 60.495C14.0287 60.495 13.2506 59.7169 13.2506 58.757C13.2506 57.7972 14.0287 57.019 14.9886 57.019C15.9484 57.019 16.7266 57.7972 16.7266 58.757C16.7266 59.7169 15.9484 60.495 14.9886 60.495Z" fill="#101828" stroke="#101828" stroke-width="0.5"/>
<path d="M34.4891 67.8223C29.4823 67.8223 25.4235 63.7635 25.4235 58.7567C25.4235 53.75 29.4823 49.6912 34.4891 49.6912C39.4959 49.6912 43.5547 53.75 43.5547 58.7567C43.5547 63.7635 39.4959 67.8223 34.4891 67.8223Z" fill="#101828" stroke="#101828" stroke-width="0.5"/>
<path d="M34.4887 64.0847C31.5462 64.0847 29.1609 61.6994 29.1609 58.7569C29.1609 55.8145 31.5462 53.4292 34.4887 53.4292C37.4311 53.4292 39.8164 55.8145 39.8164 58.7569C39.8164 61.6994 37.4311 64.0847 34.4887 64.0847Z" fill="#CD90E3" stroke="#101828" stroke-width="0.5"/>
<path d="M34.49 61.8529C32.7802 61.8529 31.3941 60.4668 31.3941 58.7569C31.3941 57.0471 32.7802 55.661 34.49 55.661C36.1998 55.661 37.5859 57.0471 37.5859 58.7569C37.5859 60.4668 36.1998 61.8529 34.49 61.8529Z" fill="#E6D0F3" stroke="#101828" stroke-width="0.5"/>
<path opacity="0.4" d="M29.7004 61.0946L33.1819 57.6132C33.5004 57.2494 33.967 57.0186 34.4886 57.0186C35.4484 57.0186 36.2266 57.7967 36.2266 58.7566C36.2266 59.2781 35.9957 59.7446 35.632 60.0633L32.1505 63.5447C31.0861 63.024 30.2211 62.1592 29.7004 61.0946Z" fill="white"/>
<path d="M34.4886 60.495C33.5287 60.495 32.7506 59.7169 32.7506 58.757C32.7506 57.7972 33.5287 57.019 34.4886 57.019C35.4484 57.019 36.2266 57.7972 36.2266 58.757C36.2266 59.7169 35.4484 60.495 34.4886 60.495Z" fill="#101828" stroke="#101828" stroke-width="0.5"/>
<path d="M77.5156 44.5961V58.7567H73.7181H72.5462V46.8077C72.5462 45.238 73.8185 43.9657 75.3882 43.9657H77.4565C77.494 44.1716 77.5156 44.382 77.5156 44.5961Z" fill="#EEF7F4" stroke="#101828" stroke-width="0.5"/>
<path d="M69.5325 60.9844H76.7458C77.9907 60.9844 79 59.8286 79 58.403V55.3396C79 53.9139 77.9907 52.7583 76.7458 52.7583H69.5325C68.2874 52.7583 67.2783 53.9141 67.2783 55.3396V58.403C67.2783 59.8286 68.2876 60.9844 69.5325 60.9844Z" fill="#CD90E3" stroke="#101828" stroke-width="0.5"/>
<path d="M48.819 24.4062H64.5725C65.2876 24.4062 65.8672 23.8264 65.8672 23.1115V22.9668C65.8672 18.9191 62.5858 15.6379 58.5383 15.6379H48.8192C48.1041 15.6379 47.5245 16.2177 47.5245 16.9326V23.1115C47.5243 23.8266 48.1039 24.4062 48.819 24.4062Z" fill="#E6D0F3" stroke="#101828" stroke-width="0.5"/>
<path d="M43.5109 10.7726H46.9071C48.7598 10.7726 50.2617 12.2745 50.2617 14.1272V31.7902C50.2617 32.4954 49.6902 33.0669 48.9851 33.0669H48.8026C48.0975 33.0669 47.526 32.4952 47.526 31.7902V14.6923C47.526 14.0384 46.9957 13.5082 46.3418 13.5082H45.0483C44.3696 13.5082 43.7491 13.1251 43.445 12.5183L42.9916 11.6134C42.7981 11.2275 43.0788 10.7726 43.5109 10.7726Z" fill="#101828" stroke="#101828" stroke-width="0.5"/>
<mask id="mask1_10183_7906" style="mask-type:alpha" maskUnits="userSpaceOnUse" x="51" y="27" width="19" height="13">
<path d="M51.8189 39.5752H69.4141C69.4141 32.7968 63.9191 28.0497 57.1407 28.0497H55.0983C53.2872 28.0497 51.8189 29.5178 51.8189 31.3288V39.5752Z" fill="#101828" stroke="#101828" stroke-width="0.5" stroke-linejoin="round"/>
</mask>
<g mask="url(#mask1_10183_7906)">
<g opacity="0.2">
<path d="M67.2842 23.2657L50.832 51.7616" stroke="white" stroke-width="5.5"/>
<path d="M73.2685 23.2657L56.8164 51.7616" stroke="white" stroke-width="1.5"/>
</g>
</g>
<path d="M60.0047 67.8221C54.998 67.8221 50.9392 63.7633 50.9392 58.7565C50.9392 53.7497 54.998 49.6909 60.0047 49.6909C65.0115 49.6909 69.0703 53.7497 69.0703 58.7565C69.0703 63.7633 65.0115 67.8221 60.0047 67.8221Z" fill="#101828" stroke="#101828" stroke-width="0.5"/>
<path d="M60.0043 64.0847C57.0619 64.0847 54.6765 61.6994 54.6765 58.7569C54.6765 55.8145 57.0619 53.4292 60.0043 53.4292C62.9467 53.4292 65.332 55.8145 65.332 58.7569C65.332 61.6994 62.9467 64.0847 60.0043 64.0847Z" fill="#CD90E3" stroke="#101828" stroke-width="0.5"/>
<path d="M60.0056 61.853C58.2958 61.853 56.9097 60.4669 56.9097 58.7571C56.9097 57.0472 58.2958 55.6611 60.0056 55.6611C61.7155 55.6611 63.1016 57.0472 63.1016 58.7571C63.1016 60.4669 61.7155 61.853 60.0056 61.853Z" fill="#E6D0F3" stroke="#101828" stroke-width="0.5"/>
<path opacity="0.4" d="M55.216 61.0946L58.6975 57.6132C59.016 57.2494 59.4826 57.0186 60.0042 57.0186C60.964 57.0186 61.7422 57.7967 61.7422 58.7566C61.7422 59.2781 61.5113 59.7446 61.1476 60.0633L57.6661 63.5447C56.6018 63.024 55.7367 62.1592 55.216 61.0946Z" fill="white"/>
<path d="M60.0042 60.495C59.0443 60.495 58.2662 59.7169 58.2662 58.757C58.2662 57.7972 59.0443 57.019 60.0042 57.019C60.9641 57.019 61.7422 57.7972 61.7422 58.757C61.7422 59.7169 60.9641 60.495 60.0042 60.495Z" fill="#101828" stroke="#101828" stroke-width="0.5"/>
</g>
<defs>
<clipPath id="clip0_10183_7906">
<rect width="81" height="68" fill="white"/>
</clipPath>
</defs>
</svg>
