<svg width="55" height="55" viewBox="0 0 55 55" fill="none" xmlns="http://www.w3.org/2000/svg">
<rect width="55" height="55" rx="10.7714" fill="#D0ECE5"/>
<mask id="path-2-outside-1_10283_3048" maskUnits="userSpaceOnUse" x="13.2324" y="12.6592" width="31" height="30" fill="black">
<rect fill="white" x="13.2324" y="12.6592" width="31" height="30"/>
<path d="M33.5225 15.1592H21.6025C18.3606 15.1592 15.7324 17.7874 15.7324 21.0293C15.7326 24.2711 18.3607 26.8994 21.6025 26.8994H35.627C39.8434 26.8996 43.2617 30.3177 43.2617 34.5342C43.2615 38.7505 39.8433 42.1688 35.627 42.1689H24.9365V40.6689H35.627C39.0149 40.6688 41.7615 37.9221 41.7617 34.5342C41.7617 31.1461 39.015 28.3996 35.627 28.3994H21.6025C17.5323 28.3994 14.2326 25.0995 14.2324 21.0293C14.2324 16.9589 17.5322 13.6592 21.6025 13.6592H33.5225V15.1592Z"/>
</mask>
<path d="M33.5225 15.1592H21.6025C18.3606 15.1592 15.7324 17.7874 15.7324 21.0293C15.7326 24.2711 18.3607 26.8994 21.6025 26.8994H35.627C39.8434 26.8996 43.2617 30.3177 43.2617 34.5342C43.2615 38.7505 39.8433 42.1688 35.627 42.1689H24.9365V40.6689H35.627C39.0149 40.6688 41.7615 37.9221 41.7617 34.5342C41.7617 31.1461 39.015 28.3996 35.627 28.3994H21.6025C17.5323 28.3994 14.2326 25.0995 14.2324 21.0293C14.2324 16.9589 17.5322 13.6592 21.6025 13.6592H33.5225V15.1592Z" fill="#F9F4F2"/>
<path d="M33.5225 15.1592V15.5092H33.8725V15.1592H33.5225ZM15.7324 21.0293H15.3824V21.0293L15.7324 21.0293ZM35.627 26.8994L35.627 26.5494H35.627V26.8994ZM43.2617 34.5342L43.6117 34.5342V34.5342H43.2617ZM35.627 42.1689V42.5189H35.627L35.627 42.1689ZM24.9365 42.1689H24.5865V42.5189H24.9365V42.1689ZM24.9365 40.6689V40.3189H24.5865V40.6689H24.9365ZM35.627 40.6689V41.0189H35.627L35.627 40.6689ZM41.7617 34.5342L42.1117 34.5342V34.5342H41.7617ZM35.627 28.3994L35.627 28.0494H35.627V28.3994ZM14.2324 21.0293H13.8824V21.0293L14.2324 21.0293ZM33.5225 13.6592H33.8725V13.3092H33.5225V13.6592ZM33.5225 15.1592V14.8092H21.6025V15.1592V15.5092H33.5225V15.1592ZM21.6025 15.1592V14.8092C18.1673 14.8092 15.3824 17.5941 15.3824 21.0293H15.7324H16.0824C16.0824 17.9807 18.5539 15.5092 21.6025 15.5092V15.1592ZM15.7324 21.0293L15.3824 21.0293C15.3826 24.4644 18.1674 27.2494 21.6025 27.2494V26.8994V26.5494C18.554 26.5494 16.0826 24.0778 16.0824 21.0293L15.7324 21.0293ZM21.6025 26.8994V27.2494H35.627V26.8994V26.5494H21.6025V26.8994ZM35.627 26.8994L35.6269 27.2494C39.6501 27.2496 42.9117 30.511 42.9117 34.5342H43.2617H43.6117C43.6117 30.1244 40.0367 26.5496 35.627 26.5494L35.627 26.8994ZM43.2617 34.5342L42.9117 34.5342C42.9115 38.5572 39.65 41.8188 35.6269 41.8189L35.627 42.1689L35.627 42.5189C40.0366 42.5188 43.6115 38.9438 43.6117 34.5342L43.2617 34.5342ZM35.627 42.1689V41.8189H24.9365V42.1689V42.5189H35.627V42.1689ZM24.9365 42.1689H25.2865V40.6689H24.9365H24.5865V42.1689H24.9365ZM24.9365 40.6689V41.0189H35.627V40.6689V40.3189H24.9365V40.6689ZM35.627 40.6689L35.627 41.0189C39.2082 41.0188 42.1115 38.1154 42.1117 34.5342L41.7617 34.5342L41.4117 34.5342C41.4115 37.7288 38.8216 40.3188 35.6269 40.3189L35.627 40.6689ZM41.7617 34.5342H42.1117C42.1117 30.9528 39.2083 28.0496 35.627 28.0494L35.627 28.3994L35.6269 28.7494C38.8217 28.7496 41.4117 31.3394 41.4117 34.5342H41.7617ZM35.627 28.3994V28.0494H21.6025V28.3994V28.7494H35.627V28.3994ZM21.6025 28.3994V28.0494C17.7256 28.0494 14.5826 24.9062 14.5824 21.0293L14.2324 21.0293L13.8824 21.0293C13.8826 25.2928 17.339 28.7494 21.6025 28.7494V28.3994ZM14.2324 21.0293H14.5824C14.5824 17.1522 17.7255 14.0092 21.6025 14.0092V13.6592V13.3092C17.3389 13.3092 13.8824 16.7656 13.8824 21.0293H14.2324ZM21.6025 13.6592V14.0092H33.5225V13.6592V13.3092H21.6025V13.6592ZM33.5225 13.6592H33.1725V15.1592H33.5225H33.8725V13.6592H33.5225Z" fill="black" mask="url(#path-2-outside-1_10283_3048)"/>
<path d="M40.1152 7.88086C42.3482 7.88086 44.1667 9.69243 44.1758 11.9238L44.1729 12.209C44.1364 13.2197 43.7783 16.5205 40.7881 19.5107C40.6025 19.6967 40.3583 19.7891 40.1152 19.7891C39.8721 19.789 39.6283 19.6966 39.4424 19.5107C36.0258 16.0941 36.0463 12.2721 36.0557 11.9238C36.0648 9.69254 37.8819 7.88101 40.1152 7.88086Z" fill="#FEE29E" stroke="black" stroke-width="0.35"/>
<path d="M40.6731 19.3869C40.5218 19.5386 40.3229 19.6143 40.124 19.6143V8.05566C42.2618 8.05566 44.0023 9.79147 44.009 11.9282C44.0178 12.252 44.0422 16.0178 40.6731 19.3869Z" fill="#FECC2F"/>
<path d="M40.1048 9.94336C39.0004 9.94336 38.1064 10.8373 38.1064 11.9418C38.1064 13.0449 39.0004 13.9402 40.1048 13.9402L41.104 11.9418L40.1048 9.94336Z" fill="#F5F8F9"/>
<path d="M42.1224 11.9418C42.1224 13.0449 41.2271 13.9402 40.124 13.9402V9.94336C41.2271 9.94336 42.1224 10.8373 42.1224 11.9418Z" fill="#DBE1E8"/>
<mask id="path-8-outside-2_10283_3048" maskUnits="userSpaceOnUse" x="37.1104" y="8.94043" width="6" height="6" fill="black">
<rect fill="white" x="37.1104" y="8.94043" width="6" height="6"/>
<path d="M40.1211 9.94043C41.2238 9.94069 42.1189 10.8344 42.1191 11.9385C42.1191 13.0414 41.224 13.9372 40.1211 13.9375V13.9121L40.1084 13.9375C39.0041 13.9373 38.1104 13.0415 38.1104 11.9385C38.1106 10.8344 39.0043 9.94066 40.1084 9.94043L40.1211 9.96484V9.94043Z"/>
</mask>
<path d="M40.1211 9.94043L40.1212 9.59043L39.7711 9.59035V9.94043H40.1211ZM42.1191 11.9385H42.4691V11.9384L42.1191 11.9385ZM40.1211 13.9375H39.7711V14.2876L40.1212 14.2875L40.1211 13.9375ZM40.1211 13.9121H40.4711L39.808 13.7556L40.1211 13.9121ZM40.1084 13.9375L40.1083 14.2875L40.3247 14.2875L40.4214 14.094L40.1084 13.9375ZM38.1104 11.9385L37.7604 11.9384V11.9385H38.1104ZM40.1084 9.94043L40.4189 9.77896L40.3209 9.59039L40.1083 9.59043L40.1084 9.94043ZM40.1211 9.96484L39.8106 10.1263L40.4711 9.96484H40.1211ZM40.1211 9.94043L40.121 10.2904C41.0307 10.2906 41.7689 11.0279 41.7691 11.9386L42.1191 11.9385L42.4691 11.9384C42.4688 10.6409 41.417 9.59073 40.1212 9.59043L40.1211 9.94043ZM42.1191 11.9385H41.7691C41.7691 12.8483 41.0305 13.5873 40.121 13.5875L40.1211 13.9375L40.1212 14.2875C41.4174 14.2872 42.4691 13.2346 42.4691 11.9385H42.1191ZM40.1211 13.9375H40.4711V13.9121H40.1211H39.7711V13.9375H40.1211ZM40.1211 13.9121L39.808 13.7556L39.7953 13.781L40.1084 13.9375L40.4214 14.094L40.4341 14.0686L40.1211 13.9121ZM40.1084 13.9375L40.1085 13.5875C39.1978 13.5873 38.4604 12.8485 38.4604 11.9385H38.1104H37.7604C37.7604 13.2345 38.8105 14.2872 40.1083 14.2875L40.1084 13.9375ZM38.1104 11.9385L38.4604 11.9386C38.4606 11.0277 39.1976 10.2906 40.1085 10.2904L40.1084 9.94043L40.1083 9.59043C38.811 9.5907 37.7607 10.6411 37.7604 11.9384L38.1104 11.9385ZM40.1084 9.94043L39.7979 10.1019L39.8106 10.1263L40.1211 9.96484L40.4316 9.80337L40.4189 9.77896L40.1084 9.94043ZM40.1211 9.96484H40.4711V9.94043H40.1211H39.7711V9.96484H40.1211Z" fill="black" mask="url(#path-8-outside-2_10283_3048)"/>
<circle cx="26.4023" cy="14.5508" r="3.175" fill="#E7A200" stroke="black" stroke-width="0.35"/>
<path opacity="0.2" fill-rule="evenodd" clip-rule="evenodd" d="M24.9298 16.274C24.3807 16.274 23.8516 16.1268 23.4023 15.88C23.9414 16.875 24.9997 17.5508 26.2077 17.5508C27.9747 17.5508 29.4023 16.1219 29.4023 14.3588C29.4023 13.7229 29.2226 13.1293 28.8932 12.6306C28.6037 12.1817 28.2043 11.8076 27.7351 11.5508C27.9847 12.0022 28.1245 12.5308 28.1245 13.082C28.1245 13.4186 28.0746 13.7428 27.9747 14.047C27.835 14.5084 27.5854 14.9248 27.2559 15.269C26.6769 15.8874 25.8483 16.274 24.9298 16.274Z" fill="#101828"/>
<circle cx="24.7871" cy="27.4727" r="3.175" fill="#E7A200" stroke="black" stroke-width="0.35"/>
<path opacity="0.2" fill-rule="evenodd" clip-rule="evenodd" d="M23.3146 29.1958C22.7655 29.1958 22.2364 29.0487 21.7871 28.8018C22.3262 29.7968 23.3844 30.4727 24.5924 30.4727C26.3595 30.4727 27.7871 29.0437 27.7871 27.2806C27.7871 26.6447 27.6074 26.0512 27.278 25.5525C26.9884 25.1036 26.5891 24.7295 26.1199 24.4727C26.3695 24.924 26.5092 25.4527 26.5092 26.0038C26.5092 26.3405 26.4593 26.6647 26.3595 26.9689C26.2197 27.4303 25.9701 27.8467 25.6407 28.1909C25.0617 28.8093 24.233 29.1958 23.3146 29.1958Z" fill="#101828"/>
<circle cx="42.4141" cy="34.3945" r="3.175" fill="#E7A200" stroke="black" stroke-width="0.35"/>
<path opacity="0.2" fill-rule="evenodd" clip-rule="evenodd" d="M40.9415 36.1177C40.3924 36.1177 39.8633 35.9706 39.4141 35.7237C39.9532 36.7187 41.0114 37.3945 42.2194 37.3945C43.9864 37.3945 45.4141 35.9656 45.4141 34.2025C45.4141 33.5666 45.2344 32.9731 44.9049 32.4743C44.6154 32.0255 44.2161 31.6514 43.7468 31.3945C43.9964 31.8459 44.1362 32.3746 44.1362 32.9257C44.1362 33.2624 44.0863 33.5866 43.9864 33.8908C43.8467 34.3521 43.5971 34.7686 43.2676 35.1127C42.6886 35.7312 41.86 36.1177 40.9415 36.1177Z" fill="#101828"/>
<circle cx="32.6396" cy="41.0518" r="3.175" fill="#E7A200" stroke="black" stroke-width="0.35"/>
<path opacity="0.2" fill-rule="evenodd" clip-rule="evenodd" d="M31.4373 42.8502C30.9217 42.8502 30.4248 42.7119 30.0029 42.4799C30.5092 43.415 31.5029 44.0502 32.6373 44.0502C34.2967 44.0502 35.6373 42.7072 35.6373 41.0502C35.6373 40.4525 35.4686 39.8947 35.1592 39.426C34.8873 39.0041 34.5123 38.6525 34.0717 38.4111C34.3061 38.8354 34.4373 39.3322 34.4373 39.8502C34.4373 40.1666 34.3904 40.4713 34.2967 40.7572C34.1654 41.1908 33.9311 41.5822 33.6217 41.9057C33.0779 42.4869 32.2998 42.8502 31.4373 42.8502Z" fill="#101828"/>
<path opacity="0.2" fill-rule="evenodd" clip-rule="evenodd" d="M28.5796 13.3715C28.5796 13.2389 28.5551 13.1084 28.5306 12.9819C28.5061 12.884 28.4816 12.7881 28.449 12.6963C28.5224 12.9146 28.5796 13.1349 28.5796 13.3715ZM28.4245 14.4038C28.449 14.3446 28.4653 14.2814 28.4816 14.2202C28.4816 14.2447 28.4571 14.2712 28.4571 14.2957C28.4571 14.3304 28.4408 14.3691 28.4245 14.4038ZM27.8125 15.3524C27.8533 15.3075 27.9023 15.2626 27.9431 15.2157C27.9186 15.2422 27.8941 15.2688 27.8696 15.2953C27.8533 15.3136 27.8288 15.334 27.8125 15.3524Z" fill="#101828"/>
<mask id="path-19-outside-3_10283_3048" maskUnits="userSpaceOnUse" x="15.9023" y="32.7441" width="3" height="14" fill="black">
<rect fill="white" x="15.9023" y="32.7441" width="3" height="14"/>
<path d="M18.0352 46.335H16.9023V33.7441H18.0352V46.335Z"/>
</mask>
<path d="M18.0352 46.335H16.9023V33.7441H18.0352V46.335Z" fill="#00A47B"/>
<path d="M18.0352 46.335V46.685H18.3852V46.335H18.0352ZM16.9023 46.335H16.5523V46.685H16.9023V46.335ZM16.9023 33.7441V33.3941H16.5523V33.7441H16.9023ZM18.0352 33.7441H18.3852V33.3941H18.0352V33.7441ZM18.0352 46.335V45.985H16.9023V46.335V46.685H18.0352V46.335ZM16.9023 46.335H17.2523V33.7441H16.9023H16.5523V46.335H16.9023ZM16.9023 33.7441V34.0941H18.0352V33.7441V33.3941H16.9023V33.7441ZM18.0352 33.7441H17.6852V46.335H18.0352H18.3852V33.7441H18.0352Z" fill="black" mask="url(#path-19-outside-3_10283_3048)"/>
<path d="M17.2366 42.7389C11.6464 42.5242 10.7287 38.2915 11.0336 35.6738C14.9341 35.7371 16.1489 38.936 16.9066 41.5638C17.0249 41.9741 17.1321 42.3705 17.2366 42.7389Z" fill="#00A47B"/>
<path d="M17.2366 42.7389C11.6464 42.5242 10.7287 38.2915 11.0336 35.6738C14.9341 35.7371 16.1489 38.936 16.9066 41.5638" stroke="black" stroke-width="0.35" stroke-linejoin="round"/>
<path d="M17.2823 40.3492C22.8703 40.0932 23.7498 35.8538 23.4214 33.2384C19.5216 33.3306 18.3357 36.5383 17.6017 39.1716C17.4871 39.5828 17.3835 39.98 17.2823 40.3492Z" fill="#00A47B"/>
<path d="M17.2823 40.3492C22.8703 40.0932 23.7498 35.8538 23.4214 33.2384C19.5216 33.3306 18.3357 36.5383 17.6017 39.1716" stroke="black" stroke-width="0.35" stroke-linejoin="round"/>
<path fill-rule="evenodd" clip-rule="evenodd" d="M12.2695 46.9439H17.4151H22.5606C21.6195 46.1914 20.466 45.6416 19.2061 45.3736C18.6293 45.2499 18.0374 45.1846 17.4151 45.1846C15.4419 45.1846 13.6356 45.8477 12.2695 46.9439Z" fill="#DCEBFF"/>
<path d="M12.2695 46.9439C13.6356 45.8477 15.4419 45.1846 17.4151 45.1846C18.0374 45.1846 18.6293 45.2499 19.2061 45.3736C20.466 45.6416 21.6195 46.1914 22.5606 46.9439" stroke="black" stroke-width="0.35"/>
</svg>
