<svg width="90" height="90" viewBox="0 0 90 90" fill="none" xmlns="http://www.w3.org/2000/svg">
<path d="M69.2039 67.8013C59.1421 76.0809 43.8152 74.3334 43.8152 74.3334C43.8152 74.3334 44.8017 59.1619 54.8635 50.8823C64.9253 42.6026 80.2522 44.3501 80.2522 44.3501C80.2522 44.3501 79.2657 59.5216 69.2039 67.8013Z" fill="#137159" stroke="#101828" stroke-width="0.9"/>
<path d="M44.4883 74.1758L60.9408 59.8089" stroke="#101828" stroke-width="0.9"/>
<path d="M44.9697 6.42969C51.917 6.42969 57.5693 11.9635 57.5693 18.7656V25.124H51.5176V18.9961C51.5175 17.2256 50.7848 15.6223 49.5996 14.4619C48.4144 13.3015 46.777 12.5841 44.9688 12.584C41.3518 12.5847 38.4211 15.4554 38.4209 18.9961V25.124H32.3711V18.7656C32.3711 11.9636 38.0227 6.42993 44.9697 6.42969Z" fill="#3C9E86"/>
<path d="M44.9697 6.42969L44.9697 5.97969L44.9697 5.97969L44.9697 6.42969ZM57.5693 25.124V25.574H58.0193V25.124H57.5693ZM51.5176 25.124H51.0676V25.574H51.5176V25.124ZM51.5176 18.9961L51.9676 18.9961L51.9676 18.9961L51.5176 18.9961ZM49.5996 14.4619L49.9144 14.1404L49.9144 14.1404L49.5996 14.4619ZM44.9688 12.584L44.9688 12.134L44.9687 12.134L44.9688 12.584ZM38.4209 18.9961L37.9709 18.9961V18.9961H38.4209ZM38.4209 25.124V25.574H38.8709V25.124H38.4209ZM32.3711 25.124H31.9211V25.574H32.3711V25.124ZM44.9697 6.42969V6.87969C51.6775 6.87969 57.1193 12.221 57.1193 18.7656H57.5693H58.0193C58.0193 11.706 52.1565 5.97969 44.9697 5.97969V6.42969ZM57.5693 18.7656H57.1193V25.124H57.5693H58.0193V18.7656H57.5693ZM57.5693 25.124V24.674H51.5176V25.124V25.574H57.5693V25.124ZM51.5176 25.124H51.9676V18.9961H51.5176H51.0676V25.124H51.5176ZM51.5176 18.9961L51.9676 18.9961C51.9675 17.0983 51.1815 15.381 49.9144 14.1404L49.5996 14.4619L49.2848 14.7835C50.3881 15.8637 51.0675 17.3528 51.0676 18.9961L51.5176 18.9961ZM49.5996 14.4619L49.9144 14.1404C48.6475 12.9 46.898 12.1341 44.9688 12.134L44.9688 12.584L44.9687 13.034C46.656 13.0341 48.1813 13.703 49.2848 14.7835L49.5996 14.4619ZM44.9688 12.584L44.9687 12.134C41.1122 12.1348 37.9711 15.198 37.9709 18.9961L38.4209 18.9961L38.8709 18.9961C38.8711 15.7128 41.5914 13.0347 44.9688 13.034L44.9688 12.584ZM38.4209 18.9961H37.9709V25.124H38.4209H38.8709V18.9961H38.4209ZM38.4209 25.124V24.674H32.3711V25.124V25.574H38.4209V25.124ZM32.3711 25.124H32.8211V18.7656H32.3711H31.9211V25.124H32.3711ZM32.3711 18.7656H32.8211C32.8211 12.2211 38.2622 6.87993 44.9697 6.87969L44.9697 6.42969L44.9697 5.97969C37.7832 5.97994 31.9211 11.7062 31.9211 18.7656H32.3711Z" fill="#101828"/>
<mask id="mask0_17403_3182" style="mask-type:alpha" maskUnits="userSpaceOnUse" x="43" y="43" width="38" height="32">
<path d="M69.2234 67.8013C59.1616 76.0809 43.8347 74.3334 43.8347 74.3334C43.8347 74.3334 44.8212 59.1619 54.8831 50.8823C64.9449 42.6026 80.2718 44.3501 80.2718 44.3501C80.2718 44.3501 79.2852 59.5216 69.2234 67.8013Z" fill="#137159" stroke="black" stroke-width="0.9"/>
</mask>
<g mask="url(#mask0_17403_3182)">
<path d="M69.1475 29.6748V61.5166H30.917V29.6748H69.1475Z" fill="#101828" stroke="#101828" stroke-width="0.9"/>
</g>
<path d="M65.8975 23.1904V55.0322H27.667V23.1904H65.8975Z" fill="#FFCA00" stroke="#101828" stroke-width="0.9"/>
<path d="M62.292 23.1904V55.0322H24.0615V23.1904H62.292Z" fill="#FEE29E" stroke="#101828" stroke-width="0.9"/>
<path d="M61.8407 23.6406H43.1758V54.5825H61.8407V23.6406Z" fill="#FFCA00"/>
<path d="M43.1768 32.6592C45.631 32.6592 47.6201 34.6483 47.6201 37.1025C47.6201 38.2028 47.2186 39.2094 46.5566 39.9854V45.7666H39.7969V39.9854C39.1349 39.2094 38.7334 38.2028 38.7334 37.1025C38.7334 34.6483 40.7225 32.6592 43.1768 32.6592Z" fill="#3C9E86" stroke="#101828" stroke-width="0.9"/>
<path d="M47.169 37.1026C47.169 38.1499 46.7655 39.1027 46.106 39.8153V45.3164H43.1758V33.1094C45.3816 33.1094 47.169 34.8968 47.169 37.1026Z" fill="#137159"/>
<path d="M19.5148 67.8013C29.5766 76.0809 44.9035 74.3334 44.9035 74.3334C44.9035 74.3334 43.917 59.1619 33.8552 50.8823C23.7934 42.6026 8.46653 44.3501 8.46653 44.3501C8.46653 44.3501 9.45304 59.5216 19.5148 67.8013Z" fill="#3C9E86" stroke="#101828" stroke-width="0.9"/>
<path d="M44.2344 74.1758L27.7819 59.8089" stroke="#101828" stroke-width="0.9"/>
</svg>
