<svg width="90" height="90" viewBox="0 0 90 90" fill="none" xmlns="http://www.w3.org/2000/svg">
<path d="M74.7617 53.2861C74.7617 57.9788 72.5284 63.3651 68.5439 68.4619C63.8926 74.4099 57.0569 79.6428 48.7881 83.6074L48.0068 83.9814L47.8125 84.0742L47.6182 83.9814L46.8369 83.6074H46.8359C38.5673 79.6428 31.7314 74.4099 27.0801 68.4619C23.0956 63.3651 20.8623 57.9788 20.8623 53.2861V34.6289L21.0615 34.4951L33.9541 25.8447L34.0684 25.7686H61.5566L61.6699 25.8447L74.5625 34.4951L74.7617 34.6289V53.2861Z" fill="#137159" stroke="black" stroke-width="0.9"/>
<path d="M74.3005 34.8686V53.2862C74.3005 57.8447 72.1257 63.1358 68.1784 68.185C63.5782 74.0677 56.8019 79.2603 48.5821 83.2015L47.8008 83.5756V26.2188H61.408L74.3005 34.8686Z" fill="#074435"/>
<path d="M59.0723 33.3877L66.8564 38.6084V53.2832C66.8564 55.7141 65.6011 59.4057 62.542 63.4512C59.5217 67.4453 54.7635 71.7546 47.8037 75.4893C40.844 71.7546 36.0856 67.4452 33.0654 63.4512C30.0064 59.4057 28.751 55.7141 28.751 53.2832V38.6094L36.5352 33.3877H59.0723Z" fill="#3C9E86" stroke="black" stroke-width="0.9"/>
<path d="M67.3039 38.3698V53.2832C67.3039 58.4085 62.0552 68.424 47.8008 76.0005V32.9375H59.2064L67.3039 38.3698Z" fill="#137159"/>
<path d="M59.7747 31.2656H35.8626L26.5664 37.5023V53.2918C26.5664 56.5697 28.2946 60.735 31.3066 64.7188C34.974 69.5696 40.3906 73.9825 46.972 77.48L47.8186 77.9304L48.6652 77.48C55.2467 73.9825 60.6633 69.5696 64.3307 64.7188C67.3427 60.735 69.0709 56.5697 69.0709 53.2918V37.5023L59.7747 31.2656ZM65.5726 53.2918C65.5726 57.7629 60.8253 66.8921 47.8186 74.08C34.8119 66.8921 30.0647 57.7629 30.0647 53.2918V39.2545L36.9634 34.6265H58.6739L65.5726 39.2545V53.2918Z" fill="#FEE29E"/>
<path d="M69.053 37.5023V53.2918C69.053 56.5697 67.3248 60.735 64.3128 64.7188C60.6454 69.5696 55.2289 73.9825 48.6474 77.48L47.8008 77.9304V74.08C60.8075 66.8921 65.5547 57.7629 65.5547 53.2918V39.2545L58.656 34.6265H47.8008V31.2656H59.7568L69.053 37.5023Z" fill="#FFCA00"/>
<path d="M58.9777 45.7343L47.8111 56.7602L47.7878 56.7838L44.9484 59.5867L36.6445 52.1256L39.0339 49.671L44.8317 54.8815L47.7878 51.9642L47.8111 51.9407L56.4706 43.3906L58.9777 45.7343Z" fill="#EFF5FA"/>
<path d="M58.9674 45.7343L47.8008 56.7602V51.9407L56.4603 43.3906L58.9674 45.7343Z" fill="#89DDC8"/>
<path d="M63.2486 6.4375L63.364 11.3533C63.5898 20.9797 55.7268 28.8428 46.1005 28.617L41.1847 28.5016L46.1005 28.3863C55.7268 28.1604 63.5898 36.0235 63.364 45.65L63.2486 50.5657L63.1333 45.65C62.9074 36.0235 70.7704 28.1604 80.3968 28.3863L85.3125 28.5016L80.3968 28.617C70.7704 28.8428 62.9074 20.9797 63.1333 11.3533L63.2486 6.4375Z" fill="white" stroke="black" stroke-width="0.9"/>
<path d="M19.1351 50.5547L19.2149 53.9579C19.3713 60.6224 13.9277 66.0661 7.26322 65.9098L3.86002 65.8299L7.26322 65.7501C13.9277 65.5937 19.3713 71.0374 19.2149 77.7019L19.1351 81.1051L19.0552 77.7019C18.8989 71.0374 24.3425 65.5937 31.007 65.7501L34.4102 65.8299L31.007 65.9098C24.3425 66.0661 18.8989 60.6224 19.0552 53.9579L19.1351 50.5547Z" fill="white" stroke="black" stroke-width="0.9"/>
</svg>
