<svg width="90" height="90" viewBox="0 0 90 90" fill="none" xmlns="http://www.w3.org/2000/svg">
<g clip-path="url(#clip0_17403_3199)">
<path d="M47.79 50.999H59.9639C65.8958 50.9992 70.7047 55.8084 70.7051 61.7402V67.4697H66.4082V61.7402C66.4078 58.1813 63.5229 55.2961 59.9639 55.2959H47.79V67.4688H43.4932V55.2959H31.3193C27.7603 55.2961 24.8754 58.1813 24.875 61.7402V67.4697H20.5781V61.7402C20.5785 55.8084 25.3874 50.9992 31.3193 50.999H43.4932V35.9609H47.79V50.999Z" fill="#00A47B"/>
<path d="M47.79 50.999H47.34V51.449H47.79V50.999ZM59.9639 50.999L59.9639 50.549H59.9639V50.999ZM70.7051 61.7402L71.1551 61.7402L71.1551 61.7402L70.7051 61.7402ZM70.7051 67.4697V67.9197H71.1551V67.4697H70.7051ZM66.4082 67.4697H65.9582V67.9197H66.4082V67.4697ZM66.4082 61.7402L66.8582 61.7402L66.8582 61.7402L66.4082 61.7402ZM59.9639 55.2959L59.9639 54.8459H59.9639V55.2959ZM47.79 55.2959V54.8459H47.34V55.2959H47.79ZM47.79 67.4688V67.9187H48.24V67.4688H47.79ZM43.4932 67.4688H43.0432V67.9187H43.4932V67.4688ZM43.4932 55.2959H43.9432V54.8459H43.4932V55.2959ZM31.3193 55.2959L31.3193 54.8459L31.3193 54.8459L31.3193 55.2959ZM24.875 61.7402L24.425 61.7402V61.7402H24.875ZM24.875 67.4697V67.9197H25.325V67.4697H24.875ZM20.5781 67.4697H20.1281V67.9197H20.5781V67.4697ZM20.5781 61.7402L20.1281 61.7402V61.7402H20.5781ZM31.3193 50.999L31.3193 50.549L31.3193 50.549L31.3193 50.999ZM43.4932 50.999V51.449H43.9432V50.999H43.4932ZM43.4932 35.9609V35.5109H43.0432V35.9609H43.4932ZM47.79 35.9609H48.24V35.5109H47.79V35.9609ZM47.79 50.999V51.449H59.9639V50.999V50.549H47.79V50.999ZM59.9639 50.999L59.9639 51.449C65.6472 51.4492 70.2547 56.0569 70.2551 61.7403L70.7051 61.7402L71.1551 61.7402C71.1547 55.5599 66.1443 50.5492 59.9639 50.549L59.9639 50.999ZM70.7051 61.7402H70.2551V67.4697H70.7051H71.1551V61.7402H70.7051ZM70.7051 67.4697V67.0197H66.4082V67.4697V67.9197H70.7051V67.4697ZM66.4082 67.4697H66.8582V61.7402H66.4082H65.9582V67.4697H66.4082ZM66.4082 61.7402L66.8582 61.7402C66.8578 57.9328 63.7714 54.8461 59.9639 54.8459L59.9639 55.2959L59.9638 55.7459C63.2743 55.7461 65.9578 58.4298 65.9582 61.7403L66.4082 61.7402ZM59.9639 55.2959V54.8459H47.79V55.2959V55.7459H59.9639V55.2959ZM47.79 55.2959H47.34V67.4688H47.79H48.24V55.2959H47.79ZM47.79 67.4688V67.0188H43.4932V67.4688V67.9187H47.79V67.4688ZM43.4932 67.4688H43.9432V55.2959H43.4932H43.0432V67.4688H43.4932ZM43.4932 55.2959V54.8459H31.3193V55.2959V55.7459H43.4932V55.2959ZM31.3193 55.2959L31.3193 54.8459C27.5118 54.8461 24.4254 57.9328 24.425 61.7402L24.875 61.7402L25.325 61.7403C25.3254 58.4298 28.0089 55.7461 31.3194 55.7459L31.3193 55.2959ZM24.875 61.7402H24.425V67.4697H24.875H25.325V61.7402H24.875ZM24.875 67.4697V67.0197H20.5781V67.4697V67.9197H24.875V67.4697ZM20.5781 67.4697H21.0281V61.7402H20.5781H20.1281V67.4697H20.5781ZM20.5781 61.7402L21.0281 61.7403C21.0285 56.0569 25.636 51.4492 31.3193 51.449L31.3193 50.999L31.3193 50.549C25.1389 50.5492 20.1285 55.5599 20.1281 61.7402L20.5781 61.7402ZM31.3193 50.999V51.449H43.4932V50.999V50.549H31.3193V50.999ZM43.4932 50.999H43.9432V35.9609H43.4932H43.0432V50.999H43.4932ZM43.4932 35.9609V36.4109H47.79V35.9609V35.5109H43.4932V35.9609ZM47.79 35.9609H47.34V50.999H47.79H48.24V35.9609H47.79Z" fill="#101828"/>
<mask id="mask0_17403_3199" style="mask-type:alpha" maskUnits="userSpaceOnUse" x="20" y="35" width="52" height="33">
<path d="M47.79 50.999H59.9639C65.8958 50.9992 70.7047 55.8084 70.7051 61.7402V67.4697H66.4082V61.7402C66.4078 58.1813 63.5229 55.2961 59.9639 55.2959H47.79V67.4688H43.4932V55.2959H31.3193C27.7603 55.2961 24.8754 58.1813 24.875 61.7402V67.4697H20.5781V61.7402C20.5785 55.8084 25.3874 50.9992 31.3193 50.999H43.4932V35.9609H47.79V50.999Z" fill="#00A47B"/>
<path d="M47.79 50.999H47.34V51.449H47.79V50.999ZM59.9639 50.999L59.9639 50.549H59.9639V50.999ZM70.7051 61.7402L71.1551 61.7402L71.1551 61.7402L70.7051 61.7402ZM70.7051 67.4697V67.9197H71.1551V67.4697H70.7051ZM66.4082 67.4697H65.9582V67.9197H66.4082V67.4697ZM66.4082 61.7402L66.8582 61.7402L66.8582 61.7402L66.4082 61.7402ZM59.9639 55.2959L59.9639 54.8459H59.9639V55.2959ZM47.79 55.2959V54.8459H47.34V55.2959H47.79ZM47.79 67.4688V67.9187H48.24V67.4688H47.79ZM43.4932 67.4688H43.0432V67.9187H43.4932V67.4688ZM43.4932 55.2959H43.9432V54.8459H43.4932V55.2959ZM31.3193 55.2959L31.3193 54.8459L31.3193 54.8459L31.3193 55.2959ZM24.875 61.7402L24.425 61.7402V61.7402H24.875ZM24.875 67.4697V67.9197H25.325V67.4697H24.875ZM20.5781 67.4697H20.1281V67.9197H20.5781V67.4697ZM20.5781 61.7402L20.1281 61.7402V61.7402H20.5781ZM31.3193 50.999L31.3193 50.549L31.3193 50.549L31.3193 50.999ZM43.4932 50.999V51.449H43.9432V50.999H43.4932ZM43.4932 35.9609V35.5109H43.0432V35.9609H43.4932ZM47.79 35.9609H48.24V35.5109H47.79V35.9609ZM47.79 50.999V51.449H59.9639V50.999V50.549H47.79V50.999ZM59.9639 50.999L59.9639 51.449C65.6472 51.4492 70.2547 56.0569 70.2551 61.7403L70.7051 61.7402L71.1551 61.7402C71.1547 55.5599 66.1443 50.5492 59.9639 50.549L59.9639 50.999ZM70.7051 61.7402H70.2551V67.4697H70.7051H71.1551V61.7402H70.7051ZM70.7051 67.4697V67.0197H66.4082V67.4697V67.9197H70.7051V67.4697ZM66.4082 67.4697H66.8582V61.7402H66.4082H65.9582V67.4697H66.4082ZM66.4082 61.7402L66.8582 61.7402C66.8578 57.9328 63.7714 54.8461 59.9639 54.8459L59.9639 55.2959L59.9638 55.7459C63.2743 55.7461 65.9578 58.4298 65.9582 61.7403L66.4082 61.7402ZM59.9639 55.2959V54.8459H47.79V55.2959V55.7459H59.9639V55.2959ZM47.79 55.2959H47.34V67.4688H47.79H48.24V55.2959H47.79ZM47.79 67.4688V67.0188H43.4932V67.4688V67.9187H47.79V67.4688ZM43.4932 67.4688H43.9432V55.2959H43.4932H43.0432V67.4688H43.4932ZM43.4932 55.2959V54.8459H31.3193V55.2959V55.7459H43.4932V55.2959ZM31.3193 55.2959L31.3193 54.8459C27.5118 54.8461 24.4254 57.9328 24.425 61.7402L24.875 61.7402L25.325 61.7403C25.3254 58.4298 28.0089 55.7461 31.3194 55.7459L31.3193 55.2959ZM24.875 61.7402H24.425V67.4697H24.875H25.325V61.7402H24.875ZM24.875 67.4697V67.0197H20.5781V67.4697V67.9197H24.875V67.4697ZM20.5781 67.4697H21.0281V61.7402H20.5781H20.1281V67.4697H20.5781ZM20.5781 61.7402L21.0281 61.7403C21.0285 56.0569 25.636 51.4492 31.3193 51.449L31.3193 50.999L31.3193 50.549C25.1389 50.5492 20.1285 55.5599 20.1281 61.7402L20.5781 61.7402ZM31.3193 50.999V51.449H43.4932V50.999V50.549H31.3193V50.999ZM43.4932 50.999H43.9432V35.9609H43.4932H43.0432V50.999H43.4932ZM43.4932 35.9609V36.4109H47.79V35.9609V35.5109H43.4932V35.9609ZM47.79 35.9609H47.34V50.999H47.79H48.24V35.9609H47.79Z" fill="#101828"/>
</mask>
<g mask="url(#mask0_17403_3199)">
<path d="M55.7983 18.1972C59.0326 15.6734 62.9518 14.376 66.7814 14.9064C74.4069 15.9632 78.7891 23.8662 76.5693 32.5584C74.3491 41.2508 66.368 47.4417 58.7425 46.3852C56.1112 46.0206 53.8657 44.8406 52.1448 43.0945C48.9104 45.6188 44.9917 46.9157 41.1617 46.3852C38.7288 46.0481 36.626 45.0142 34.9625 43.4799C31.8321 45.7471 28.1258 46.8878 24.4976 46.3852C16.8721 45.3285 12.4898 37.4256 14.7097 28.7333C16.9299 20.041 24.911 13.8501 32.5366 14.9064C34.9684 15.2434 37.0694 16.2787 38.7326 17.8117C41.8634 15.544 45.572 14.4068 49.2007 14.9097C51.8316 15.2743 54.0775 16.4515 55.7983 18.1972Z" fill="#101828" stroke="#101828" stroke-width="0.9"/>
</g>
<rect x="37.3477" y="63.9688" width="16.5831" height="13.2665" rx="2.86436" fill="#FFCA00" stroke="#101828" stroke-width="0.9"/>
<path opacity="0.15" fill-rule="evenodd" clip-rule="evenodd" d="M51.1669 69.2486C51.1669 72.4125 48.6021 74.9773 45.4382 74.9773H38.4532C37.8426 74.9773 37.3477 75.4723 37.3477 76.0828C37.3477 76.6934 37.8426 77.1884 38.4532 77.1884H51.0664C52.6484 77.1884 53.9308 75.906 53.9308 74.324V65.3038C53.9308 64.5406 53.3121 63.9219 52.5489 63.9219C51.7856 63.9219 51.1669 64.5406 51.1669 65.3038V69.2486Z" fill="#101828"/>
<path d="M55.7979 14.876C59.0324 12.352 62.9524 11.0552 66.7822 11.5859C74.4078 12.6428 78.7894 20.5459 76.5693 29.2383C74.3491 37.9307 66.3678 44.121 58.7422 43.0645C56.1105 42.6998 53.8645 41.52 52.1436 39.7734C48.9091 42.2974 44.99 43.5952 41.1602 43.0645C38.7288 42.7275 36.6279 41.6938 34.9648 40.1611C31.8342 42.4287 28.1256 43.5673 24.4971 43.0645C16.8714 42.0077 12.4898 34.1046 14.71 25.4121C16.9302 16.7196 24.9114 10.5293 32.5371 11.5859C34.9682 11.9228 37.0695 12.956 38.7324 14.4883C41.863 12.2209 45.5719 11.0832 49.2002 11.5859C51.8313 11.9506 54.077 13.13 55.7979 14.876Z" fill="white"/>
<path d="M55.7979 14.876L55.4774 15.1919L55.7587 15.4773L56.0747 15.2307L55.7979 14.876ZM66.7822 11.5859L66.844 11.1402L66.844 11.1402L66.7822 11.5859ZM76.5693 29.2383L77.0053 29.3496L77.0053 29.3496L76.5693 29.2383ZM58.7422 43.0645L58.6804 43.5102L58.6804 43.5102L58.7422 43.0645ZM52.1436 39.7734L52.4641 39.4576L52.1827 39.1721L51.8667 39.4187L52.1436 39.7734ZM41.1602 43.0645L41.0984 43.5102L41.0984 43.5102L41.1602 43.0645ZM34.9648 40.1611L35.2698 39.8302L34.9991 39.5807L34.7009 39.7967L34.9648 40.1611ZM24.4971 43.0645L24.4353 43.5102L24.4353 43.5102L24.4971 43.0645ZM14.71 25.4121L14.274 25.3007L14.274 25.3008L14.71 25.4121ZM32.5371 11.5859L32.5989 11.1402L32.5989 11.1402L32.5371 11.5859ZM38.7324 14.4883L38.4275 14.8192L38.6982 15.0687L38.9964 14.8527L38.7324 14.4883ZM49.2002 11.5859L49.262 11.1402L49.262 11.1402L49.2002 11.5859ZM55.7979 14.876L56.0747 15.2307C59.2326 12.7665 63.0334 11.5207 66.7205 12.0317L66.7822 11.5859L66.844 11.1402C62.8713 10.5896 58.8321 11.9374 55.521 14.5212L55.7979 14.876ZM66.7822 11.5859L66.7205 12.0317C74.007 13.0415 78.3067 20.6175 76.1333 29.1269L76.5693 29.2383L77.0053 29.3496C79.2722 20.4742 74.8087 12.244 66.844 11.1402L66.7822 11.5859ZM76.5693 29.2383L76.1333 29.1269C73.9557 37.6526 66.1505 43.6366 58.8039 42.6187L58.7422 43.0645L58.6804 43.5102C66.5851 44.6054 74.7425 38.2088 77.0053 29.3496L76.5693 29.2383ZM58.7422 43.0645L58.804 42.6187C56.2723 42.2679 54.1167 41.1348 52.4641 39.4576L52.1436 39.7734L51.823 40.0893C53.6124 41.9052 55.9488 43.1316 58.6804 43.5102L58.7422 43.0645ZM52.1436 39.7734L51.8667 39.4187C48.7087 41.8829 44.9088 43.1297 41.2219 42.6187L41.1602 43.0645L41.0984 43.5102C45.0711 44.0607 49.1094 42.7119 52.4204 40.1282L52.1436 39.7734ZM41.1602 43.0645L41.2219 42.6187C38.8826 42.2945 36.8662 41.3015 35.2698 39.8302L34.9648 40.1611L34.6599 40.492C36.3895 42.086 38.5749 43.1605 41.0984 43.5102L41.1602 43.0645ZM34.9648 40.1611L34.7009 39.7967C31.6461 42.0092 28.052 43.1028 24.5588 42.6187L24.4971 43.0645L24.4353 43.5102C28.1992 44.0318 32.0222 42.8481 35.2288 40.5256L34.9648 40.1611ZM24.4971 43.0645L24.5588 42.6187C17.2722 41.6089 12.9726 34.0329 15.146 25.5235L14.71 25.4121L14.274 25.3008C12.0071 34.1762 16.4706 42.4064 24.4353 43.5102L24.4971 43.0645ZM14.71 25.4121L15.146 25.5235C17.3236 16.9977 25.1287 11.0137 32.4753 12.0317L32.5371 11.5859L32.5989 11.1402C24.6942 10.0449 16.5368 16.4415 14.274 25.3007L14.71 25.4121ZM32.5371 11.5859L32.4753 12.0317C34.8145 12.3558 36.8312 13.3483 38.4275 14.8192L38.7324 14.4883L39.0374 14.1574C37.3078 12.5636 35.1219 11.4899 32.5989 11.1402L32.5371 11.5859ZM38.7324 14.4883L38.9964 14.8527C42.0509 12.6404 45.6454 11.5477 49.1384 12.0317L49.2002 11.5859L49.262 11.1402C45.4984 10.6188 41.675 11.8014 38.4685 14.1238L38.7324 14.4883ZM49.2002 11.5859L49.1384 12.0317C51.6696 12.3825 53.8248 13.5152 55.4774 15.1919L55.7979 14.876L56.1183 14.5601C54.3292 12.7448 51.993 11.5187 49.262 11.1402L49.2002 11.5859Z" fill="#101828"/>
<rect x="14.1328" y="63.9688" width="16.5831" height="13.2665" rx="2.86436" fill="#FFCA00" stroke="#101828" stroke-width="0.9"/>
<path opacity="0.15" fill-rule="evenodd" clip-rule="evenodd" d="M21.6314 37.3373C18.7398 36.9359 16.3146 35.5513 14.5391 33.5121C15.7188 38.5611 19.3769 42.3555 24.4958 43.066C28.1245 43.5695 31.8322 42.4269 34.963 40.1597C36.6267 41.694 38.7288 42.7318 41.1617 43.0688C44.9918 43.5989 48.9093 42.2982 52.1436 39.7737C53.8646 41.5206 56.11 42.701 58.7422 43.066C66.3681 44.122 74.3486 37.9317 76.5689 29.2394C77.9473 23.8435 76.7808 18.7526 73.8738 15.4141C74.4507 17.884 74.4339 20.6547 73.7046 23.5106C71.4843 32.203 63.5038 38.3933 55.8779 37.3373C53.2457 36.9723 51.0002 35.7919 49.2792 34.045C46.0449 36.5695 42.1274 37.8702 38.2973 37.3401C35.8644 37.0031 33.7623 35.9653 32.0986 34.431C28.9678 36.6982 25.2601 37.8408 21.6314 37.3373Z" fill="#101828"/>
<rect x="60.5664" y="63.9688" width="16.5831" height="13.2665" rx="2.86436" fill="#FFCA00" stroke="#101828" stroke-width="0.9"/>
<path opacity="0.15" fill-rule="evenodd" clip-rule="evenodd" d="M74.3857 69.2486C74.3857 72.4125 71.8208 74.9773 68.657 74.9773H61.6719C61.0614 74.9773 60.5664 75.4723 60.5664 76.0828C60.5664 76.6934 61.0614 77.1884 61.6719 77.1884H74.2852C75.8671 77.1884 77.1495 75.906 77.1495 74.324V65.3038C77.1495 64.5406 76.5308 63.9219 75.7676 63.9219C75.0044 63.9219 74.3857 64.5406 74.3857 65.3038V69.2486Z" fill="#101828"/>
<path opacity="0.15" fill-rule="evenodd" clip-rule="evenodd" d="M27.9521 69.2486C27.9521 72.4125 25.3873 74.9773 22.2234 74.9773H15.2384C14.6278 74.9773 14.1328 75.4723 14.1328 76.0828C14.1328 76.6934 14.6278 77.1884 15.2384 77.1884H27.8516C29.4335 77.1884 30.7159 75.906 30.7159 74.324V65.3038C30.7159 64.5406 30.0972 63.9219 29.334 63.9219C28.5708 63.9219 27.9521 64.5406 27.9521 65.3038V69.2486Z" fill="#101828"/>
</g>
<defs>
<clipPath id="clip0_17403_3199">
<rect width="90" height="90" fill="white"/>
</clipPath>
</defs>
</svg>
